<?xml version="1.0" encoding="UTF-8" standalone="no"?>
<!DOCTYPE svg PUBLIC "-//W3C//DTD SVG 1.1//EN"
 "http://www.w3.org/Graphics/SVG/1.1/DTD/svg11.dtd">
<!-- Generated by graphviz version 13.0.1 (20250615.1724)
 -->
<!-- Title: src/composition/include/fourdst/atomic/atomicSpecies.h Pages: 1 -->
<svg width="257pt" height="94pt"
 viewBox="0.00 0.00 257.00 94.00" xmlns="http://www.w3.org/2000/svg" xmlns:xlink="http://www.w3.org/1999/xlink">
<g id="graph0" class="graph" transform="scale(1 1) rotate(0) translate(4 89.75)">
<title>src/composition/include/fourdst/atomic/atomicSpecies.h</title>
<!-- Node1 -->
<g id="Node000001" class="node">
<title>Node1</title>
<g id="a_Node000001"><a xlink:title=" ">
<polygon fill="#999999" stroke="#666666" points="213.25,-85.75 56.25,-85.75 56.25,-55.25 213.25,-55.25 213.25,-85.75"/>
<text xml:space="preserve" text-anchor="start" x="64.25" y="-72.25" font-family="Helvetica,sans-Serif" font-size="10.00">src/composition/include</text>
<text xml:space="preserve" text-anchor="middle" x="134.75" y="-61" font-family="Helvetica,sans-Serif" font-size="10.00">/fourdst/atomic/atomicSpecies.h</text>
</a>
</g>
</g>
<!-- Node2 -->
<g id="Node000002" class="node">
<title>Node2</title>
<g id="a_Node000002"><a xlink:title=" ">
<polygon fill="#e0e0e0" stroke="#999999" points="65.5,-19.25 0,-19.25 0,0 65.5,0 65.5,-19.25"/>
<text xml:space="preserve" text-anchor="middle" x="32.75" y="-5.75" font-family="Helvetica,sans-Serif" font-size="10.00">string_view</text>
</a>
</g>
</g>
<!-- Node1&#45;&gt;Node2 -->
<g id="edge1_Node000001_Node000002" class="edge">
<title>Node1&#45;&gt;Node2</title>
<g id="a_edge1_Node000001_Node000002"><a xlink:title=" ">
<path fill="none" stroke="#63b8ff" d="M109.27,-54.8C93.59,-45.74 73.57,-34.19 57.94,-25.16"/>
<polygon fill="#63b8ff" stroke="#63b8ff" points="60.11,-22.38 49.7,-20.41 56.61,-28.44 60.11,-22.38"/>
</a>
</g>
</g>
<!-- Node3 -->
<g id="Node000003" class="node">
<title>Node3</title>
<g id="a_Node000003"><a xlink:title=" ">
<polygon fill="#e0e0e0" stroke="#999999" points="123.75,-19.25 83.75,-19.25 83.75,0 123.75,0 123.75,-19.25"/>
<text xml:space="preserve" text-anchor="middle" x="103.75" y="-5.75" font-family="Helvetica,sans-Serif" font-size="10.00">string</text>
</a>
</g>
</g>
<!-- Node1&#45;&gt;Node3 -->
<g id="edge2_Node000001_Node000003" class="edge">
<title>Node1&#45;&gt;Node3</title>
<g id="a_edge2_Node000001_Node000003"><a xlink:title=" ">
<path fill="none" stroke="#63b8ff" d="M127.09,-54.95C123.09,-47.36 118.16,-37.99 113.86,-29.82"/>
<polygon fill="#63b8ff" stroke="#63b8ff" points="116.99,-28.26 109.23,-21.04 110.8,-31.52 116.99,-28.26"/>
</a>
</g>
</g>
<!-- Node4 -->
<g id="Node000004" class="node">
<title>Node4</title>
<g id="a_Node000004"><a xlink:title=" ">
<polygon fill="#e0e0e0" stroke="#999999" points="191.62,-19.25 141.88,-19.25 141.88,0 191.62,0 191.62,-19.25"/>
<text xml:space="preserve" text-anchor="middle" x="166.75" y="-5.75" font-family="Helvetica,sans-Serif" font-size="10.00">optional</text>
</a>
</g>
</g>
<!-- Node1&#45;&gt;Node4 -->
<g id="edge3_Node000001_Node000004" class="edge">
<title>Node1&#45;&gt;Node4</title>
<g id="a_edge3_Node000001_Node000004"><a xlink:title=" ">
<path fill="none" stroke="#63b8ff" d="M142.66,-54.95C146.78,-47.36 151.88,-37.99 156.32,-29.82"/>
<polygon fill="#63b8ff" stroke="#63b8ff" points="159.39,-31.49 161.09,-21.03 153.24,-28.15 159.39,-31.49"/>
</a>
</g>
</g>
<!-- Node5 -->
<g id="Node000005" class="node">
<title>Node5</title>
<g id="a_Node000005"><a xlink:title=" ">
<polygon fill="#e0e0e0" stroke="#999999" points="249.38,-19.25 210.12,-19.25 210.12,0 249.38,0 249.38,-19.25"/>
<text xml:space="preserve" text-anchor="middle" x="229.75" y="-5.75" font-family="Helvetica,sans-Serif" font-size="10.00">limits</text>
</a>
</g>
</g>
<!-- Node1&#45;&gt;Node5 -->
<g id="edge4_Node000001_Node000005" class="edge">
<title>Node1&#45;&gt;Node5</title>
<g id="a_edge4_Node000001_Node000005"><a xlink:title=" ">
<path fill="none" stroke="#63b8ff" d="M158.23,-54.95C172.56,-46.07 190.84,-34.74 205.33,-25.76"/>
<polygon fill="#63b8ff" stroke="#63b8ff" points="207.16,-28.74 213.82,-20.5 203.47,-22.79 207.16,-28.74"/>
</a>
</g>
</g>
</g>
</svg>
