<?xml version="1.0" encoding="UTF-8" standalone="no"?>
<!DOCTYPE svg PUBLIC "-//W3C//DTD SVG 1.1//EN"
 "http://www.w3.org/Graphics/SVG/1.1/DTD/svg11.dtd">
<!-- Generated by graphviz version 14.1.2 (20260124.0452)
 -->
<!-- Title: src/composition/include/fourdst/atomic/atomicSpecies.h Pages: 1 -->
<svg width="396pt" height="94pt"
 viewBox="0.00 0.00 396.00 94.00" xmlns="http://www.w3.org/2000/svg" xmlns:xlink="http://www.w3.org/1999/xlink">

<svg id="main" version="1.1" xmlns="http://www.w3.org/2000/svg" xmlns:xlink="http://www.w3.org/1999/xlink" xml:space="preserve">

<style type="text/css"><![CDATA[
.node, .edge {opacity: 0.7;}
.node.selected, .edge.selected {opacity: 1;}
.edge:hover path { stroke: red; }
.edge:hover polygon { stroke: red; fill: red; }
]]></style>
<script type="application/ecmascript" xlink:href="svg.min.js"/>
<svg id="graph" class="graph">
<g id="graph0" class="graph" transform="scale(1 1) rotate(0) translate(4 89.75)">
<title>src/composition/include/fourdst/atomic/atomicSpecies.h</title>
<!-- Node1 -->
<g id="Node000001" class="node">
<title>Node1</title>
<g id="a_Node000001"><a xlink:title=" ">
<polygon fill="#999999" stroke="#666666" points="275.38,-85.75 118.38,-85.75 118.38,-55.25 275.38,-55.25 275.38,-85.75"/>
<text xml:space="preserve" text-anchor="start" x="126.38" y="-72.25" font-family="Helvetica,sans-Serif" font-size="10.00">src/composition/include</text>
<text xml:space="preserve" text-anchor="middle" x="196.88" y="-61" font-family="Helvetica,sans-Serif" font-size="10.00">/fourdst/atomic/atomicSpecies.h</text>
</a>
</g>
</g>
<!-- Node2 -->
<g id="Node000002" class="node">
<title>Node2</title>
<g id="a_Node000002"><a xlink:title=" ">
<polygon fill="#e0e0e0" stroke="#999999" points="43.75,-19.25 0,-19.25 0,0 43.75,0 43.75,-19.25"/>
<text xml:space="preserve" text-anchor="middle" x="21.88" y="-5.75" font-family="Helvetica,sans-Serif" font-size="10.00">format</text>
</a>
</g>
</g>
<!-- Node1&#45;&gt;Node2 -->
<g id="edge1_Node000001_Node000002" class="edge">
<title>Node1&#45;&gt;Node2</title>
<g id="a_edge1_Node000001_Node000002"><a xlink:title=" ">
<path fill="none" stroke="#63b8ff" d="M153.17,-54.8C122.74,-44.56 82.78,-31.12 54.98,-21.76"/>
<polygon fill="#63b8ff" stroke="#63b8ff" points="56.26,-18.5 45.67,-18.63 54.03,-25.14 56.26,-18.5"/>
</a>
</g>
</g>
<!-- Node3 -->
<g id="Node000003" class="node">
<title>Node3</title>
<g id="a_Node000003"><a xlink:title=" ">
<polygon fill="#e0e0e0" stroke="#999999" points="127.62,-19.25 62.12,-19.25 62.12,0 127.62,0 127.62,-19.25"/>
<text xml:space="preserve" text-anchor="middle" x="94.88" y="-5.75" font-family="Helvetica,sans-Serif" font-size="10.00">string_view</text>
</a>
</g>
</g>
<!-- Node1&#45;&gt;Node3 -->
<g id="edge2_Node000001_Node000003" class="edge">
<title>Node1&#45;&gt;Node3</title>
<g id="a_edge2_Node000001_Node000003"><a xlink:title=" ">
<path fill="none" stroke="#63b8ff" d="M171.4,-54.8C155.72,-45.74 135.69,-34.19 120.06,-25.16"/>
<polygon fill="#63b8ff" stroke="#63b8ff" points="122.24,-22.38 111.83,-20.41 118.74,-28.44 122.24,-22.38"/>
</a>
</g>
</g>
<!-- Node4 -->
<g id="Node000004" class="node">
<title>Node4</title>
<g id="a_Node000004"><a xlink:title=" ">
<polygon fill="#e0e0e0" stroke="#999999" points="185.88,-19.25 145.88,-19.25 145.88,0 185.88,0 185.88,-19.25"/>
<text xml:space="preserve" text-anchor="middle" x="165.88" y="-5.75" font-family="Helvetica,sans-Serif" font-size="10.00">string</text>
</a>
</g>
</g>
<!-- Node1&#45;&gt;Node4 -->
<g id="edge3_Node000001_Node000004" class="edge">
<title>Node1&#45;&gt;Node4</title>
<g id="a_edge3_Node000001_Node000004"><a xlink:title=" ">
<path fill="none" stroke="#63b8ff" d="M189.21,-54.95C185.22,-47.36 180.28,-37.99 175.98,-29.82"/>
<polygon fill="#63b8ff" stroke="#63b8ff" points="179.12,-28.26 171.36,-21.04 172.92,-31.52 179.12,-28.26"/>
</a>
</g>
</g>
<!-- Node5 -->
<g id="Node000005" class="node">
<title>Node5</title>
<g id="a_Node000005"><a xlink:title=" ">
<polygon fill="#e0e0e0" stroke="#999999" points="253.75,-19.25 204,-19.25 204,0 253.75,0 253.75,-19.25"/>
<text xml:space="preserve" text-anchor="middle" x="228.88" y="-5.75" font-family="Helvetica,sans-Serif" font-size="10.00">optional</text>
</a>
</g>
</g>
<!-- Node1&#45;&gt;Node5 -->
<g id="edge4_Node000001_Node000005" class="edge">
<title>Node1&#45;&gt;Node5</title>
<g id="a_edge4_Node000001_Node000005"><a xlink:title=" ">
<path fill="none" stroke="#63b8ff" d="M204.79,-54.95C208.91,-47.36 214,-37.99 218.44,-29.82"/>
<polygon fill="#63b8ff" stroke="#63b8ff" points="221.52,-31.49 223.22,-21.03 215.37,-28.15 221.52,-31.49"/>
</a>
</g>
</g>
<!-- Node6 -->
<g id="Node000006" class="node">
<title>Node6</title>
<g id="a_Node000006"><a xlink:title=" ">
<polygon fill="#e0e0e0" stroke="#999999" points="311.5,-19.25 272.25,-19.25 272.25,0 311.5,0 311.5,-19.25"/>
<text xml:space="preserve" text-anchor="middle" x="291.88" y="-5.75" font-family="Helvetica,sans-Serif" font-size="10.00">limits</text>
</a>
</g>
</g>
<!-- Node1&#45;&gt;Node6 -->
<g id="edge5_Node000001_Node000006" class="edge">
<title>Node1&#45;&gt;Node6</title>
<g id="a_edge5_Node000001_Node000006"><a xlink:title=" ">
<path fill="none" stroke="#63b8ff" d="M220.36,-54.95C234.68,-46.07 252.96,-34.74 267.46,-25.76"/>
<polygon fill="#63b8ff" stroke="#63b8ff" points="269.29,-28.74 275.94,-20.5 265.6,-22.79 269.29,-28.74"/>
</a>
</g>
</g>
<!-- Node7 -->
<g id="Node000007" class="node">
<title>Node7</title>
<g id="a_Node000007"><a xlink:title=" ">
<polygon fill="#e0e0e0" stroke="#999999" points="388.25,-19.25 329.5,-19.25 329.5,0 388.25,0 388.25,-19.25"/>
<text xml:space="preserve" text-anchor="middle" x="358.88" y="-5.75" font-family="Helvetica,sans-Serif" font-size="10.00">stdexcept</text>
</a>
</g>
</g>
<!-- Node1&#45;&gt;Node7 -->
<g id="edge6_Node000001_Node000007" class="edge">
<title>Node1&#45;&gt;Node7</title>
<g id="a_edge6_Node000001_Node000007"><a xlink:title=" ">
<path fill="none" stroke="#63b8ff" d="M237.34,-54.8C263.79,-45.18 298.01,-32.75 323.39,-23.52"/>
<polygon fill="#63b8ff" stroke="#63b8ff" points="324.41,-26.88 332.61,-20.17 322.01,-20.3 324.41,-26.88"/>
</a>
</g>
</g>
</g>
</svg>
</svg>

<style type='text/css'>
<![CDATA[
[data-mouse-over-selected='false'] { opacity: 0.7; }
[data-mouse-over-selected='true']  { opacity: 1.0; }
]]>
</style>
<script type="application/ecmascript"><![CDATA[
document.addEventListener('DOMContentLoaded', (event) => {
  highlightEdges();
  highlightAdjacentNodes();
});
]]></script>
</svg>
