<?xml version="1.0" encoding="UTF-8" standalone="no"?>
<!DOCTYPE svg PUBLIC "-//W3C//DTD SVG 1.1//EN"
 "http://www.w3.org/Graphics/SVG/1.1/DTD/svg11.dtd">
<!-- Generated by graphviz version 13.0.1 (20250615.1724)
 -->
<!-- Title: src/composition/include/fourdst/atomic/atomicSpecies.h Pages: 1 -->
<svg width="462pt" height="316pt"
 viewBox="0.00 0.00 462.00 316.00" xmlns="http://www.w3.org/2000/svg" xmlns:xlink="http://www.w3.org/1999/xlink">

<svg id="main" version="1.1" xmlns="http://www.w3.org/2000/svg" xmlns:xlink="http://www.w3.org/1999/xlink" xml:space="preserve">

<style type="text/css"><![CDATA[
.node, .edge {opacity: 0.7;}
.node.selected, .edge.selected {opacity: 1;}
.edge:hover path { stroke: red; }
.edge:hover polygon { stroke: red; fill: red; }
]]></style>
<script type="application/ecmascript" xlink:href="svg.min.js"/>
<svg id="graph" class="graph">
<g id="graph0" class="graph" transform="scale(1 1) rotate(0) translate(4 311.75)">
<title>src/composition/include/fourdst/atomic/atomicSpecies.h</title>
<!-- Node1 -->
<g id="Node000001" class="node">
<title>Node1</title>
<g id="a_Node000001"><a xlink:title=" ">
<polygon fill="#999999" stroke="#666666" points="324.62,-307.75 167.62,-307.75 167.62,-277.25 324.62,-277.25 324.62,-307.75"/>
<text xml:space="preserve" text-anchor="start" x="175.62" y="-294.25" font-family="Helvetica,sans-Serif" font-size="10.00">src/composition/include</text>
<text xml:space="preserve" text-anchor="middle" x="246.12" y="-283" font-family="Helvetica,sans-Serif" font-size="10.00">/fourdst/atomic/atomicSpecies.h</text>
</a>
</g>
</g>
<!-- Node2 -->
<g id="Node000002" class="node">
<title>Node2</title>
<g id="a_Node000002"><a xlink:href="species_8h.html" target="_top" xlink:title=" ">
<polygon fill="white" stroke="#666666" points="126.25,-163.5 0,-163.5 0,-133 126.25,-133 126.25,-163.5"/>
<text xml:space="preserve" text-anchor="start" x="8" y="-150" font-family="Helvetica,sans-Serif" font-size="10.00">src/composition/include</text>
<text xml:space="preserve" text-anchor="middle" x="63.12" y="-138.75" font-family="Helvetica,sans-Serif" font-size="10.00">/fourdst/atomic/species.h</text>
</a>
</g>
</g>
<!-- Node1&#45;&gt;Node2 -->
<g id="edge1_Node000001_Node000002" class="edge">
<title>Node1&#45;&gt;Node2</title>
<g id="a_edge1_Node000001_Node000002"><a xlink:title=" ">
<path fill="none" stroke="#63b8ff" d="M194.35,-272.32C176.22,-264.25 156.35,-253.8 140.12,-241.25 110.96,-218.7 85.32,-183.35 72.27,-163.68"/>
<polygon fill="#63b8ff" stroke="#63b8ff" points="192.83,-275.47 203.4,-276.19 195.58,-269.04 192.83,-275.47"/>
</a>
</g>
</g>
<!-- Node3 -->
<g id="Node000003" class="node">
<title>Node3</title>
<g id="a_Node000003"><a xlink:href="composition_8cpp.html" target="_top" xlink:title=" ">
<polygon fill="white" stroke="#666666" points="203,-97 105.25,-97 105.25,-66.5 203,-66.5 203,-97"/>
<text xml:space="preserve" text-anchor="start" x="113.25" y="-83.5" font-family="Helvetica,sans-Serif" font-size="10.00">src/composition/lib</text>
<text xml:space="preserve" text-anchor="middle" x="154.12" y="-72.25" font-family="Helvetica,sans-Serif" font-size="10.00">/composition.cpp</text>
</a>
</g>
</g>
<!-- Node1&#45;&gt;Node3 -->
<g id="edge12_Node000001_Node000003" class="edge">
<title>Node1&#45;&gt;Node3</title>
<g id="a_edge12_Node000001_Node000003"><a xlink:title=" ">
<path fill="none" stroke="#63b8ff" d="M222.95,-268.59C215.59,-260.45 207.89,-250.9 202.12,-241.25 173.39,-193.11 160.58,-126.34 156.11,-97.26"/>
<polygon fill="#63b8ff" stroke="#63b8ff" points="220.24,-270.82 229.64,-275.7 225.34,-266.02 220.24,-270.82"/>
</a>
</g>
</g>
<!-- Node4 -->
<g id="Node000004" class="node">
<title>Node4</title>
<g id="a_Node000004"><a xlink:href="utils_8cpp.html" target="_top" xlink:title=" ">
<polygon fill="white" stroke="#666666" points="352,-30.5 254.25,-30.5 254.25,0 352,0 352,-30.5"/>
<text xml:space="preserve" text-anchor="start" x="262.25" y="-17" font-family="Helvetica,sans-Serif" font-size="10.00">src/composition/lib</text>
<text xml:space="preserve" text-anchor="middle" x="303.12" y="-5.75" font-family="Helvetica,sans-Serif" font-size="10.00">/utils.cpp</text>
</a>
</g>
</g>
<!-- Node1&#45;&gt;Node4 -->
<g id="edge13_Node000001_Node000004" class="edge">
<title>Node1&#45;&gt;Node4</title>
<g id="a_edge13_Node000001_Node000004"><a xlink:title=" ">
<path fill="none" stroke="#63b8ff" d="M336.31,-282.63C363.48,-275.49 390.89,-262.99 409.12,-241.25 459.3,-181.43 470.75,-131.25 427.12,-66.5 410.45,-41.75 379.27,-29.18 352.35,-22.81"/>
<polygon fill="#63b8ff" stroke="#63b8ff" points="335.51,-279.22 326.59,-284.94 337.13,-286.03 335.51,-279.22"/>
</a>
</g>
</g>
<!-- Node5 -->
<g id="Node000005" class="node">
<title>Node5</title>
<g id="a_Node000005"><a xlink:href="composition_8h.html" target="_top" xlink:title=" ">
<polygon fill="white" stroke="#666666" points="350.25,-163.5 182,-163.5 182,-133 350.25,-133 350.25,-163.5"/>
<text xml:space="preserve" text-anchor="start" x="190" y="-150" font-family="Helvetica,sans-Serif" font-size="10.00">src/composition/include</text>
<text xml:space="preserve" text-anchor="middle" x="266.12" y="-138.75" font-family="Helvetica,sans-Serif" font-size="10.00">/fourdst/composition/composition.h</text>
</a>
</g>
</g>
<!-- Node1&#45;&gt;Node5 -->
<g id="edge4_Node000001_Node000005" class="edge">
<title>Node1&#45;&gt;Node5</title>
<g id="a_edge4_Node000001_Node000005"><a xlink:title=" ">
<path fill="none" stroke="#63b8ff" d="M225.38,-268.01C219.61,-260.06 214.11,-250.77 211.12,-241.25 205.57,-223.55 203.64,-216.48 211.12,-199.5 217.59,-184.83 230.7,-172.58 242.5,-163.85"/>
<polygon fill="#63b8ff" stroke="#63b8ff" points="222.55,-270.07 231.47,-275.79 228.06,-265.75 222.55,-270.07"/>
</a>
</g>
</g>
<!-- Node6 -->
<g id="Node000006" class="node">
<title>Node6</title>
<g id="a_Node000006"><a xlink:href="utils_8h.html" target="_top" xlink:title=" ">
<polygon fill="white" stroke="#666666" points="418,-97 284.25,-97 284.25,-66.5 418,-66.5 418,-97"/>
<text xml:space="preserve" text-anchor="start" x="292.25" y="-83.5" font-family="Helvetica,sans-Serif" font-size="10.00">src/composition/include</text>
<text xml:space="preserve" text-anchor="middle" x="351.12" y="-72.25" font-family="Helvetica,sans-Serif" font-size="10.00">/fourdst/composition/utils.h</text>
</a>
</g>
</g>
<!-- Node1&#45;&gt;Node6 -->
<g id="edge11_Node000001_Node000006" class="edge">
<title>Node1&#45;&gt;Node6</title>
<g id="a_edge11_Node000001_Node000006"><a xlink:title=" ">
<path fill="none" stroke="#63b8ff" d="M335.82,-278.32C356.61,-270.86 376.36,-259.26 389.12,-241.25 421.19,-196 381.88,-127.13 361.69,-97.33"/>
<polygon fill="#63b8ff" stroke="#63b8ff" points="334.77,-274.99 326.33,-281.39 336.92,-281.65 334.77,-274.99"/>
</a>
</g>
</g>
<!-- Node7 -->
<g id="Node000007" class="node">
<title>Node7</title>
<g id="a_Node000007"><a xlink:href="composition__abstract_8h.html" target="_top" xlink:title=" ">
<polygon fill="white" stroke="#666666" points="380.12,-241.25 220.12,-241.25 220.12,-199.5 380.12,-199.5 380.12,-241.25"/>
<text xml:space="preserve" text-anchor="start" x="228.12" y="-227.75" font-family="Helvetica,sans-Serif" font-size="10.00">src/composition/include</text>
<text xml:space="preserve" text-anchor="start" x="228.12" y="-216.5" font-family="Helvetica,sans-Serif" font-size="10.00">/fourdst/composition/composition</text>
<text xml:space="preserve" text-anchor="middle" x="300.12" y="-205.25" font-family="Helvetica,sans-Serif" font-size="10.00">_abstract.h</text>
</a>
</g>
</g>
<!-- Node1&#45;&gt;Node7 -->
<g id="edge9_Node000001_Node000007" class="edge">
<title>Node1&#45;&gt;Node7</title>
<g id="a_edge9_Node000001_Node000007"><a xlink:title=" ">
<path fill="none" stroke="#63b8ff" d="M264.27,-267.93C270.81,-259.44 278.13,-249.93 284.45,-241.74"/>
<polygon fill="#63b8ff" stroke="#63b8ff" points="261.57,-265.71 258.24,-275.77 267.11,-269.98 261.57,-265.71"/>
</a>
</g>
</g>
<!-- Node2&#45;&gt;Node3 -->
<g id="edge2_Node000002_Node000003" class="edge">
<title>Node2&#45;&gt;Node3</title>
<g id="a_edge2_Node000002_Node000003"><a xlink:title=" ">
<path fill="none" stroke="#63b8ff" d="M93.01,-126.07C106.29,-116.66 121.59,-105.81 133.56,-97.33"/>
<polygon fill="#63b8ff" stroke="#63b8ff" points="91.14,-123.1 85.01,-131.74 95.19,-128.81 91.14,-123.1"/>
</a>
</g>
</g>
<!-- Node2&#45;&gt;Node4 -->
<g id="edge3_Node000002_Node000004" class="edge">
<title>Node2&#45;&gt;Node4</title>
<g id="a_edge3_Node000002_Node000004"><a xlink:title=" ">
<path fill="none" stroke="#63b8ff" d="M67.3,-121.53C71.54,-103.59 79.91,-80.45 96.12,-66.5 140.14,-28.63 208.02,-18.31 253.94,-15.99"/>
<polygon fill="#63b8ff" stroke="#63b8ff" points="63.9,-120.7 65.32,-131.2 70.75,-122.1 63.9,-120.7"/>
</a>
</g>
</g>
<!-- Node5&#45;&gt;Node3 -->
<g id="edge7_Node000005_Node000003" class="edge">
<title>Node5&#45;&gt;Node3</title>
<g id="a_edge7_Node000005_Node000003"><a xlink:title=" ">
<path fill="none" stroke="#63b8ff" d="M230.76,-126.89C214.1,-117.29 194.6,-106.06 179.44,-97.33"/>
<polygon fill="#63b8ff" stroke="#63b8ff" points="228.99,-129.9 239.4,-131.86 232.48,-123.84 228.99,-129.9"/>
</a>
</g>
</g>
<!-- Node5&#45;&gt;Node4 -->
<g id="edge8_Node000005_Node000004" class="edge">
<title>Node5&#45;&gt;Node4</title>
<g id="a_edge8_Node000005_Node000004"><a xlink:title=" ">
<path fill="none" stroke="#63b8ff" d="M266.41,-121.35C267.23,-105.24 269.44,-84.27 275.12,-66.5 279.2,-53.75 286.68,-40.58 292.89,-30.93"/>
<polygon fill="#63b8ff" stroke="#63b8ff" points="262.93,-120.97 266.09,-131.08 269.92,-121.21 262.93,-120.97"/>
</a>
</g>
</g>
<!-- Node5&#45;&gt;Node6 -->
<g id="edge5_Node000005_Node000006" class="edge">
<title>Node5&#45;&gt;Node6</title>
<g id="a_edge5_Node000005_Node000006"><a xlink:title=" ">
<path fill="none" stroke="#63b8ff" d="M294.4,-125.79C306.72,-116.44 320.84,-105.73 331.91,-97.33"/>
<polygon fill="#63b8ff" stroke="#63b8ff" points="292.47,-122.87 286.62,-131.7 296.7,-128.44 292.47,-122.87"/>
</a>
</g>
</g>
<!-- Node6&#45;&gt;Node4 -->
<g id="edge6_Node000006_Node000004" class="edge">
<title>Node6&#45;&gt;Node4</title>
<g id="a_edge6_Node000006_Node000004"><a xlink:title=" ">
<path fill="none" stroke="#63b8ff" d="M333.5,-57.07C326.96,-48.28 319.74,-38.57 313.97,-30.83"/>
<polygon fill="#63b8ff" stroke="#63b8ff" points="330.55,-58.97 339.33,-64.9 336.17,-54.79 330.55,-58.97"/>
</a>
</g>
</g>
<!-- Node7&#45;&gt;Node5 -->
<g id="edge10_Node000007_Node000005" class="edge">
<title>Node7&#45;&gt;Node5</title>
<g id="a_edge10_Node000007_Node000005"><a xlink:title=" ">
<path fill="none" stroke="#63b8ff" d="M285.29,-188.79C281.07,-180.06 276.65,-170.97 273.13,-163.7"/>
<polygon fill="#63b8ff" stroke="#63b8ff" points="282.12,-190.26 289.63,-197.73 288.42,-187.2 282.12,-190.26"/>
</a>
</g>
</g>
</g>
</svg>
</svg>

<style type='text/css'>
<![CDATA[
[data-mouse-over-selected='false'] { opacity: 0.7; }
[data-mouse-over-selected='true']  { opacity: 1.0; }
]]>
</style>
<script type="application/ecmascript"><![CDATA[
document.addEventListener('DOMContentLoaded', (event) => {
  highlightEdges();
  highlightAdjacentNodes();
});
]]></script>
</svg>
