<?xml version="1.0" encoding="UTF-8" standalone="no"?>
<!DOCTYPE svg PUBLIC "-//W3C//DTD SVG 1.1//EN"
 "http://www.w3.org/Graphics/SVG/1.1/DTD/svg11.dtd">
<!-- Generated by graphviz version 14.1.2 (20260124.0452)
 -->
<!-- Title: src/composition/include/fourdst/atomic/atomicSpecies.h Pages: 1 -->
<!--zoomable 427 -->

<svg id="main" version="1.1" xmlns="http://www.w3.org/2000/svg" xmlns:xlink="http://www.w3.org/1999/xlink" xml:space="preserve" onload="init(evt)">

<style type="text/css"><![CDATA[
.node, .edge {opacity: 0.7;}
.node.selected, .edge.selected {opacity: 1;}
.edge:hover path { stroke: red; }
.edge:hover polygon { stroke: red; fill: red; }
]]></style>

<defs>
  <circle id="rim" cx="0" cy="0" r="7"/>
  <circle id="rim2" cx="0" cy="0" r="3.5"/>
  <g id="zoomPlus">
    <use xlink:href="#rim" fill="#404040"><set attributeName="fill" to="#808080" begin="zoomplus.mouseover" end="zoomplus.mouseout"/></use>
    <path d="M-4,0h8M0,-4v8" fill="none" stroke="white" stroke-width="1.5" pointer-events="none"/>
  </g>
  <g id="zoomMin">
    <use xlink:href="#rim" fill="#404040"><set attributeName="fill" to="#808080" begin="zoomminus.mouseover" end="zoomminus.mouseout"/></use>
    <path d="M-4,0h8" fill="none" stroke="white" stroke-width="1.5" pointer-events="none"/>
  </g>
  <g id="arrowUp" transform="translate(30 24)">
    <use xlink:href="#rim"/>
    <path pointer-events="none" fill="none" stroke="white" stroke-width="1.5" d="M0,-3.0v7 M-2.5,-0.5L0,-3.0L2.5,-0.5"/>
  </g>
  <g id="arrowRight" transform="rotate(90) translate(36 -43)">
    <use xlink:href="#rim"/>
    <path pointer-events="none" fill="none" stroke="white" stroke-width="1.5" d="M0,-3.0v7 M-2.5,-0.5L0,-3.0L2.5,-0.5"/>
  </g>
  <g id="arrowDown" transform="rotate(180) translate(-30 -48)">
    <use xlink:href="#rim"/>
    <path pointer-events="none" fill="none" stroke="white" stroke-width="1.5" d="M0,-3.0v7 M-2.5,-0.5L0,-3.0L2.5,-0.5"/>
  </g>
  <g id="arrowLeft" transform="rotate(270) translate(-36 17)">
    <use xlink:href="#rim"/>
    <path pointer-events="none" fill="none" stroke="white" stroke-width="1.5" d="M0,-3.0v7 M-2.5,-0.5L0,-3.0L2.5,-0.5"/>
  </g>
  <g id="resetDef">
    <use xlink:href="#rim2" fill="#404040"><set attributeName="fill" to="#808080" begin="reset.mouseover" end="reset.mouseout"/></use>
  </g>
</defs>
<script type="application/ecmascript">
var viewWidth = 793;
var viewHeight = 427;
var sectionId = 'dynsection-1';
</script>
<script type="application/ecmascript" xlink:href="svg.min.js"/>
<svg id="graph" class="graph">
<g id="viewport">
<title>src/composition/include/fourdst/atomic/atomicSpecies.h</title>
<!-- Node1 -->
<g id="Node000001" class="node">
<title>Node1</title>
<g id="a_Node000001"><a xlink:title=" ">
<polygon fill="#999999" stroke="#666666" points="458.61,-419.25 301.61,-419.25 301.61,-388.75 458.61,-388.75 458.61,-419.25"/>
<text xml:space="preserve" text-anchor="start" x="309.61" y="-405.75" font-family="Helvetica,sans-Serif" font-size="10.00">src/composition/include</text>
<text xml:space="preserve" text-anchor="middle" x="380.11" y="-394.5" font-family="Helvetica,sans-Serif" font-size="10.00">/fourdst/atomic/atomicSpecies.h</text>
</a>
</g>
</g>
<!-- Node2 -->
<g id="Node000002" class="node">
<title>Node2</title>
<g id="a_Node000002"><a xlink:href="species_8h.html" target="_top" xlink:title=" ">
<polygon fill="white" stroke="#666666" points="346.24,-113.88 219.99,-113.88 219.99,-83.38 346.24,-83.38 346.24,-113.88"/>
<text xml:space="preserve" text-anchor="start" x="227.99" y="-100.38" font-family="Helvetica,sans-Serif" font-size="10.00">src/composition/include</text>
<text xml:space="preserve" text-anchor="middle" x="283.11" y="-89.12" font-family="Helvetica,sans-Serif" font-size="10.00">/fourdst/atomic/species.h</text>
</a>
</g>
</g>
<!-- Node1&#45;&gt;Node2 -->
<g id="edge1_Node000001_Node000002" class="edge">
<title>Node1&#45;&gt;Node2</title>
<g id="a_edge1_Node000001_Node000002"><a xlink:title=" ">
<path fill="none" stroke="#63b8ff" d="M352.23,-381.23C311.17,-347.19 236.16,-276.94 207.11,-197.25 200.76,-179.82 198.73,-172.06 207.11,-155.5 216.35,-137.23 234.69,-123.48 251.04,-114.2"/>
<polygon fill="#63b8ff" stroke="#63b8ff" points="349.79,-383.76 359.75,-387.36 354.21,-378.33 349.79,-383.76"/>
</a>
</g>
</g>
<!-- Node3 -->
<g id="Node000003" class="node">
<title>Node3</title>
<g id="a_Node000003"><a xlink:href="composition_8cpp.html" target="_top" xlink:title=" ">
<polygon fill="white" stroke="#666666" points="422.99,-36.12 325.24,-36.12 325.24,-5.62 422.99,-5.62 422.99,-36.12"/>
<text xml:space="preserve" text-anchor="start" x="333.24" y="-22.62" font-family="Helvetica,sans-Serif" font-size="10.00">src/composition/lib</text>
<text xml:space="preserve" text-anchor="middle" x="374.11" y="-11.38" font-family="Helvetica,sans-Serif" font-size="10.00">/composition.cpp</text>
</a>
</g>
</g>
<!-- Node1&#45;&gt;Node3 -->
<g id="edge28_Node000001_Node000003" class="edge">
<title>Node1&#45;&gt;Node3</title>
<g id="a_edge28_Node000001_Node000003"><a xlink:title=" ">
<path fill="none" stroke="#63b8ff" d="M383.56,-377.18C389.1,-332.15 398.83,-236.32 393.11,-155.5 390.02,-111.79 381.31,-60.64 376.83,-36.24"/>
<polygon fill="#63b8ff" stroke="#63b8ff" points="380.1,-376.62 382.31,-386.98 387.04,-377.5 380.1,-376.62"/>
</a>
</g>
</g>
<!-- Node5 -->
<g id="Node000005" class="node">
<title>Node5</title>
<g id="a_Node000005"><a xlink:href="utils_8cpp.html" target="_top" xlink:title=" ">
<polygon fill="white" stroke="#666666" points="193.99,-36.12 96.24,-36.12 96.24,-5.62 193.99,-5.62 193.99,-36.12"/>
<text xml:space="preserve" text-anchor="start" x="104.24" y="-22.62" font-family="Helvetica,sans-Serif" font-size="10.00">src/composition/lib</text>
<text xml:space="preserve" text-anchor="middle" x="145.11" y="-11.38" font-family="Helvetica,sans-Serif" font-size="10.00">/utils.cpp</text>
</a>
</g>
</g>
<!-- Node1&#45;&gt;Node5 -->
<g id="edge29_Node000001_Node000005" class="edge">
<title>Node1&#45;&gt;Node5</title>
<g id="a_edge29_Node000001_Node000005"><a xlink:title=" ">
<path fill="none" stroke="#63b8ff" d="M290.39,-386.44C178.6,-363.21 2.11,-316.76 2.11,-255.12 2.11,-255.12 2.11,-255.12 2.11,-175.38 2.11,-131.17 -6.33,-112.4 21.11,-77.75 39.58,-54.43 69.91,-40.53 95.95,-32.42"/>
<polygon fill="#63b8ff" stroke="#63b8ff" points="289.35,-389.8 299.85,-388.38 290.75,-382.95 289.35,-389.8"/>
</a>
</g>
</g>
<!-- Node6 -->
<g id="Node000006" class="node">
<title>Node6</title>
<g id="a_Node000006"><a xlink:href="composition_8h.html" target="_top" xlink:title=" ">
<polygon fill="white" stroke="#666666" points="384.24,-191.62 215.99,-191.62 215.99,-161.12 384.24,-161.12 384.24,-191.62"/>
<text xml:space="preserve" text-anchor="start" x="223.99" y="-178.12" font-family="Helvetica,sans-Serif" font-size="10.00">src/composition/include</text>
<text xml:space="preserve" text-anchor="middle" x="300.11" y="-166.88" font-family="Helvetica,sans-Serif" font-size="10.00">/fourdst/composition/composition.h</text>
</a>
</g>
</g>
<!-- Node1&#45;&gt;Node6 -->
<g id="edge5_Node000001_Node000006" class="edge">
<title>Node1&#45;&gt;Node6</title>
<g id="a_edge5_Node000001_Node000006"><a xlink:title=" ">
<path fill="none" stroke="#63b8ff" d="M371.15,-377.72C354.36,-330.37 318.65,-229.67 305.3,-192"/>
<polygon fill="#63b8ff" stroke="#63b8ff" points="367.84,-378.86 374.48,-387.12 374.44,-376.52 367.84,-378.86"/>
</a>
</g>
</g>
<!-- Node7 -->
<g id="Node000007" class="node">
<title>Node7</title>
<g id="a_Node000007"><a xlink:href="utils_8h.html" target="_top" xlink:title=" ">
<polygon fill="white" stroke="#666666" points="163.99,-113.88 30.24,-113.88 30.24,-83.38 163.99,-83.38 163.99,-113.88"/>
<text xml:space="preserve" text-anchor="start" x="38.24" y="-100.38" font-family="Helvetica,sans-Serif" font-size="10.00">src/composition/include</text>
<text xml:space="preserve" text-anchor="middle" x="97.11" y="-89.12" font-family="Helvetica,sans-Serif" font-size="10.00">/fourdst/composition/utils.h</text>
</a>
</g>
</g>
<!-- Node1&#45;&gt;Node7 -->
<g id="edge27_Node000001_Node000007" class="edge">
<title>Node1&#45;&gt;Node7</title>
<g id="a_edge27_Node000001_Node000007"><a xlink:title=" ">
<path fill="none" stroke="#63b8ff" d="M327.93,-383.9C310.34,-375.93 291.32,-365.52 276.11,-352.75 189.54,-280.08 124.55,-156.3 103.99,-114.17"/>
<polygon fill="#63b8ff" stroke="#63b8ff" points="326.13,-386.93 336.7,-387.7 328.92,-380.51 326.13,-386.93"/>
</a>
</g>
</g>
<!-- Node9 -->
<g id="Node000009" class="node">
<title>Node9</title>
<g id="a_Node000009"><a xlink:href="composition__abstract_8h.html" target="_top" xlink:title=" ">
<polygon fill="white" stroke="#666666" points="568.11,-275 408.11,-275 408.11,-233.25 568.11,-233.25 568.11,-275"/>
<text xml:space="preserve" text-anchor="start" x="416.11" y="-261.5" font-family="Helvetica,sans-Serif" font-size="10.00">src/composition/include</text>
<text xml:space="preserve" text-anchor="start" x="416.11" y="-250.25" font-family="Helvetica,sans-Serif" font-size="10.00">/fourdst/composition/composition</text>
<text xml:space="preserve" text-anchor="middle" x="488.11" y="-239" font-family="Helvetica,sans-Serif" font-size="10.00">_abstract.h</text>
</a>
</g>
</g>
<!-- Node1&#45;&gt;Node9 -->
<g id="edge14_Node000001_Node000009" class="edge">
<title>Node1&#45;&gt;Node9</title>
<g id="a_edge14_Node000001_Node000009"><a xlink:title=" ">
<path fill="none" stroke="#63b8ff" d="M397.4,-379.32C418.41,-350.56 453.48,-302.54 473.3,-275.41"/>
<polygon fill="#63b8ff" stroke="#63b8ff" points="394.83,-376.92 391.75,-387.06 400.48,-381.05 394.83,-376.92"/>
</a>
</g>
</g>
<!-- Node10 -->
<g id="Node000010" class="node">
<title>Node10</title>
<g id="a_Node000010"><a xlink:href="composition__decorator__abstract_8h.html" target="_top" xlink:title=" ">
<polygon fill="white" stroke="#666666" points="758.11,-197.25 592.11,-197.25 592.11,-155.5 758.11,-155.5 758.11,-197.25"/>
<text xml:space="preserve" text-anchor="start" x="600.11" y="-183.75" font-family="Helvetica,sans-Serif" font-size="10.00">src/composition/include</text>
<text xml:space="preserve" text-anchor="start" x="600.11" y="-172.5" font-family="Helvetica,sans-Serif" font-size="10.00">/fourdst/composition/decorators</text>
<text xml:space="preserve" text-anchor="middle" x="675.11" y="-161.25" font-family="Helvetica,sans-Serif" font-size="10.00">/composition_decorator_abstract.h</text>
</a>
</g>
</g>
<!-- Node1&#45;&gt;Node10 -->
<g id="edge21_Node000001_Node000010" class="edge">
<title>Node1&#45;&gt;Node10</title>
<g id="a_edge21_Node000001_Node000010"><a xlink:title=" ">
<path fill="none" stroke="#63b8ff" d="M470.43,-396.53C536.71,-389.85 619.17,-376.89 643.11,-352.75 684.63,-310.89 682.08,-234.21 678.05,-197.72"/>
<polygon fill="#63b8ff" stroke="#63b8ff" points="470.23,-393.03 460.61,-397.48 470.9,-400 470.23,-393.03"/>
</a>
</g>
</g>
<!-- Node11 -->
<g id="Node000011" class="node">
<title>Node11</title>
<g id="a_Node000011"><a xlink:href="composition__masked_8h.html" target="_top" xlink:title=" ">
<polygon fill="white" stroke="#666666" points="736.74,-119.5 583.49,-119.5 583.49,-77.75 736.74,-77.75 736.74,-119.5"/>
<text xml:space="preserve" text-anchor="start" x="591.49" y="-106" font-family="Helvetica,sans-Serif" font-size="10.00">src/composition/include</text>
<text xml:space="preserve" text-anchor="start" x="591.49" y="-94.75" font-family="Helvetica,sans-Serif" font-size="10.00">/fourdst/composition/decorators</text>
<text xml:space="preserve" text-anchor="middle" x="660.11" y="-83.5" font-family="Helvetica,sans-Serif" font-size="10.00">/composition_masked.h</text>
</a>
</g>
</g>
<!-- Node1&#45;&gt;Node11 -->
<g id="edge22_Node000001_Node000011" class="edge">
<title>Node1&#45;&gt;Node11</title>
<g id="a_edge22_Node000001_Node000011"><a xlink:title=" ">
<path fill="none" stroke="#63b8ff" d="M470.41,-395.33C542.75,-387.73 637.23,-374.11 669.11,-352.75 750.44,-298.26 817.84,-239.22 767.11,-155.5 757.61,-139.82 742.1,-128.33 725.8,-120"/>
<polygon fill="#63b8ff" stroke="#63b8ff" points="470.1,-391.84 460.51,-396.34 470.81,-398.8 470.1,-391.84"/>
</a>
</g>
</g>
<!-- Node12 -->
<g id="Node000012" class="node">
<title>Node12</title>
<g id="a_Node000012"><a xlink:href="composition__abstract__iterator_8h.html" target="_top" xlink:title=" ">
<polygon fill="white" stroke="#666666" points="634.49,-352.75 479.74,-352.75 479.74,-311 634.49,-311 634.49,-352.75"/>
<text xml:space="preserve" text-anchor="start" x="487.74" y="-339.25" font-family="Helvetica,sans-Serif" font-size="10.00">src/composition/include</text>
<text xml:space="preserve" text-anchor="start" x="487.74" y="-328" font-family="Helvetica,sans-Serif" font-size="10.00">/fourdst/composition/iterators</text>
<text xml:space="preserve" text-anchor="middle" x="557.11" y="-316.75" font-family="Helvetica,sans-Serif" font-size="10.00">/composition_abstract_iterator.h</text>
</a>
</g>
</g>
<!-- Node1&#45;&gt;Node12 -->
<g id="edge23_Node000001_Node000012" class="edge">
<title>Node1&#45;&gt;Node12</title>
<g id="a_edge23_Node000001_Node000012"><a xlink:title=" ">
<path fill="none" stroke="#63b8ff" d="M427.91,-384.06C452.05,-374.5 481.36,-362.89 505.96,-353.14"/>
<polygon fill="#63b8ff" stroke="#63b8ff" points="426.63,-380.8 418.62,-387.74 429.21,-387.31 426.63,-380.8"/>
</a>
</g>
</g>
<!-- Node2&#45;&gt;Node3 -->
<g id="edge2_Node000002_Node000003" class="edge">
<title>Node2&#45;&gt;Node3</title>
<g id="a_edge2_Node000002_Node000003"><a xlink:title=" ">
<path fill="none" stroke="#63b8ff" d="M309.14,-75.96C324.36,-63.29 343.16,-47.64 356.62,-36.44"/>
<polygon fill="#63b8ff" stroke="#63b8ff" points="307.27,-72.96 301.82,-82.05 311.74,-78.34 307.27,-72.96"/>
</a>
</g>
</g>
<!-- Node4 -->
<g id="Node000004" class="node">
<title>Node4</title>
<g id="a_Node000004"><a xlink:href="composition__masked_8cpp.html" target="_top" xlink:title=" ">
<polygon fill="white" stroke="#666666" points="563.24,-41.75 442.99,-41.75 442.99,0 563.24,0 563.24,-41.75"/>
<text xml:space="preserve" text-anchor="start" x="450.99" y="-28.25" font-family="Helvetica,sans-Serif" font-size="10.00">src/composition/lib</text>
<text xml:space="preserve" text-anchor="start" x="450.99" y="-17" font-family="Helvetica,sans-Serif" font-size="10.00">/decorators/composition</text>
<text xml:space="preserve" text-anchor="middle" x="503.11" y="-5.75" font-family="Helvetica,sans-Serif" font-size="10.00">_masked.cpp</text>
</a>
</g>
</g>
<!-- Node2&#45;&gt;Node4 -->
<g id="edge3_Node000002_Node000004" class="edge">
<title>Node2&#45;&gt;Node4</title>
<g id="a_edge3_Node000002_Node000004"><a xlink:title=" ">
<path fill="none" stroke="#63b8ff" d="M336.47,-79.25C369.07,-68.03 410.79,-53.66 444.33,-42.12"/>
<polygon fill="#63b8ff" stroke="#63b8ff" points="335.54,-75.87 327.22,-82.44 337.82,-82.49 335.54,-75.87"/>
</a>
</g>
</g>
<!-- Node2&#45;&gt;Node5 -->
<g id="edge4_Node000002_Node000005" class="edge">
<title>Node2&#45;&gt;Node5</title>
<g id="a_edge4_Node000002_Node000005"><a xlink:title=" ">
<path fill="none" stroke="#63b8ff" d="M246.53,-77.54C222.97,-64.61 192.9,-48.11 171.64,-36.44"/>
<polygon fill="#63b8ff" stroke="#63b8ff" points="244.73,-80.55 255.18,-82.29 248.09,-74.41 244.73,-80.55"/>
</a>
</g>
</g>
<!-- Node6&#45;&gt;Node3 -->
<g id="edge12_Node000006_Node000003" class="edge">
<title>Node6&#45;&gt;Node3</title>
<g id="a_edge12_Node000006_Node000003"><a xlink:title=" ">
<path fill="none" stroke="#63b8ff" d="M327.94,-153.24C337.96,-143.86 348.44,-132.17 355.11,-119.5 369.36,-92.46 372.99,-56.14 373.87,-36.3"/>
<polygon fill="#63b8ff" stroke="#63b8ff" points="325.64,-150.59 320.48,-159.85 330.29,-155.83 325.64,-150.59"/>
</a>
</g>
</g>
<!-- Node6&#45;&gt;Node5 -->
<g id="edge13_Node000006_Node000005" class="edge">
<title>Node6&#45;&gt;Node5</title>
<g id="a_edge13_Node000006_Node000005"><a xlink:title=" ">
<path fill="none" stroke="#63b8ff" d="M260.43,-155.23C244.05,-145.76 225.56,-133.47 211.11,-119.5 184.93,-94.19 163.25,-56.88 152.47,-36.49"/>
<polygon fill="#63b8ff" stroke="#63b8ff" points="258.54,-158.19 268.98,-160.01 261.96,-152.08 258.54,-158.19"/>
</a>
</g>
</g>
<!-- Node6&#45;&gt;Node7 -->
<g id="edge6_Node000006_Node000007" class="edge">
<title>Node6&#45;&gt;Node7</title>
<g id="a_edge6_Node000006_Node000007"><a xlink:title=" ">
<path fill="none" stroke="#63b8ff" d="M250.47,-156.85C215.39,-143.76 169.01,-126.46 136.48,-114.31"/>
<polygon fill="#63b8ff" stroke="#63b8ff" points="248.96,-160.02 259.55,-160.24 251.41,-153.47 248.96,-160.02"/>
</a>
</g>
</g>
<!-- Node8 -->
<g id="Node000008" class="node">
<title>Node8</title>
<g id="a_Node000008"><a xlink:href="composition__hash_8h.html" target="_top" xlink:title=" ">
<polygon fill="white" stroke="#666666" points="565.86,-119.5 440.36,-119.5 440.36,-77.75 565.86,-77.75 565.86,-119.5"/>
<text xml:space="preserve" text-anchor="start" x="448.36" y="-106" font-family="Helvetica,sans-Serif" font-size="10.00">src/composition/include</text>
<text xml:space="preserve" text-anchor="start" x="448.36" y="-94.75" font-family="Helvetica,sans-Serif" font-size="10.00">/fourdst/composition/utils</text>
<text xml:space="preserve" text-anchor="middle" x="503.11" y="-83.5" font-family="Helvetica,sans-Serif" font-size="10.00">/composition_hash.h</text>
</a>
</g>
</g>
<!-- Node6&#45;&gt;Node8 -->
<g id="edge9_Node000006_Node000008" class="edge">
<title>Node6&#45;&gt;Node8</title>
<g id="a_edge9_Node000006_Node000008"><a xlink:title=" ">
<path fill="none" stroke="#63b8ff" d="M349.89,-156.8C379.84,-145.62 418,-131.38 448.74,-119.91"/>
<polygon fill="#63b8ff" stroke="#63b8ff" points="348.81,-153.47 340.67,-160.24 351.26,-160.02 348.81,-153.47"/>
</a>
</g>
</g>
<!-- Node7&#45;&gt;Node3 -->
<g id="edge7_Node000007_Node000003" class="edge">
<title>Node7&#45;&gt;Node3</title>
<g id="a_edge7_Node000007_Node000003"><a xlink:title=" ">
<path fill="none" stroke="#63b8ff" d="M161.85,-79.92C211.76,-66.27 279.72,-47.69 325.17,-35.26"/>
<polygon fill="#63b8ff" stroke="#63b8ff" points="161.03,-76.52 152.31,-82.53 162.88,-83.27 161.03,-76.52"/>
</a>
</g>
</g>
<!-- Node7&#45;&gt;Node5 -->
<g id="edge8_Node000007_Node000005" class="edge">
<title>Node7&#45;&gt;Node5</title>
<g id="a_edge8_Node000007_Node000005"><a xlink:title=" ">
<path fill="none" stroke="#63b8ff" d="M112.44,-73.44C120.15,-61.26 129.25,-46.9 135.88,-36.44"/>
<polygon fill="#63b8ff" stroke="#63b8ff" points="109.57,-71.42 107.18,-81.74 115.48,-75.17 109.57,-71.42"/>
</a>
</g>
</g>
<!-- Node8&#45;&gt;Node3 -->
<g id="edge10_Node000008_Node000003" class="edge">
<title>Node8&#45;&gt;Node3</title>
<g id="a_edge10_Node000008_Node000003"><a xlink:title=" ">
<path fill="none" stroke="#63b8ff" d="M458.7,-71.55C438.71,-59.81 415.86,-46.39 398.96,-36.46"/>
<polygon fill="#63b8ff" stroke="#63b8ff" points="456.84,-74.51 467.24,-76.56 460.39,-68.48 456.84,-74.51"/>
</a>
</g>
</g>
<!-- Node8&#45;&gt;Node4 -->
<g id="edge11_Node000008_Node000004" class="edge">
<title>Node8&#45;&gt;Node4</title>
<g id="a_edge11_Node000008_Node000004"><a xlink:title=" ">
<path fill="none" stroke="#63b8ff" d="M503.11,-66C503.11,-57.96 503.11,-49.54 503.11,-42.23"/>
<polygon fill="#63b8ff" stroke="#63b8ff" points="499.61,-65.81 503.11,-75.81 506.61,-65.81 499.61,-65.81"/>
</a>
</g>
</g>
<!-- Node9&#45;&gt;Node6 -->
<g id="edge15_Node000009_Node000006" class="edge">
<title>Node9&#45;&gt;Node6</title>
<g id="a_edge15_Node000009_Node000006"><a xlink:title=" ">
<path fill="none" stroke="#63b8ff" d="M427.38,-228.66C397.46,-216.6 362.36,-202.46 336.62,-192.08"/>
<polygon fill="#63b8ff" stroke="#63b8ff" points="425.74,-231.77 436.33,-232.26 428.36,-225.28 425.74,-231.77"/>
</a>
</g>
</g>
<!-- Node9&#45;&gt;Node8 -->
<g id="edge20_Node000009_Node000008" class="edge">
<title>Node9&#45;&gt;Node8</title>
<g id="a_edge20_Node000009_Node000008"><a xlink:title=" ">
<path fill="none" stroke="#63b8ff" d="M491.18,-221.76C494.16,-191.21 498.61,-145.67 501.15,-119.7"/>
<polygon fill="#63b8ff" stroke="#63b8ff" points="487.71,-221.26 490.22,-231.55 494.68,-221.94 487.71,-221.26"/>
</a>
</g>
</g>
<!-- Node9&#45;&gt;Node10 -->
<g id="edge16_Node000009_Node000010" class="edge">
<title>Node9&#45;&gt;Node10</title>
<g id="a_edge16_Node000009_Node000010"><a xlink:title=" ">
<path fill="none" stroke="#63b8ff" d="M548.88,-228.51C573.45,-218.56 601.47,-207.21 624.86,-197.73"/>
<polygon fill="#63b8ff" stroke="#63b8ff" points="547.58,-225.26 539.63,-232.26 550.21,-231.75 547.58,-225.26"/>
</a>
</g>
</g>
<!-- Node9&#45;&gt;Node11 -->
<g id="edge19_Node000009_Node000011" class="edge">
<title>Node9&#45;&gt;Node11</title>
<g id="a_edge19_Node000009_Node000011"><a xlink:title=" ">
<path fill="none" stroke="#63b8ff" d="M502.03,-222.64C512.8,-201.69 529.36,-174.35 550.11,-155.5 566.36,-140.74 587.23,-128.84 606.42,-119.88"/>
<polygon fill="#63b8ff" stroke="#63b8ff" points="498.9,-221.07 497.61,-231.58 505.18,-224.17 498.9,-221.07"/>
</a>
</g>
</g>
<!-- Node10&#45;&gt;Node11 -->
<g id="edge17_Node000010_Node000011" class="edge">
<title>Node10&#45;&gt;Node11</title>
<g id="a_edge17_Node000010_Node000011"><a xlink:title=" ">
<path fill="none" stroke="#63b8ff" d="M668.9,-144.03C667.3,-135.91 665.61,-127.37 664.14,-119.98"/>
<polygon fill="#63b8ff" stroke="#63b8ff" points="665.42,-144.46 670.8,-153.59 672.29,-143.1 665.42,-144.46"/>
</a>
</g>
</g>
<!-- Node11&#45;&gt;Node4 -->
<g id="edge18_Node000011_Node000004" class="edge">
<title>Node11&#45;&gt;Node4</title>
<g id="a_edge18_Node000011_Node000004"><a xlink:title=" ">
<path fill="none" stroke="#63b8ff" d="M607.7,-72.34C587.41,-62.55 564.5,-51.49 545.3,-42.23"/>
<polygon fill="#63b8ff" stroke="#63b8ff" points="606.15,-75.47 616.67,-76.67 609.19,-69.17 606.15,-75.47"/>
</a>
</g>
</g>
<!-- Node12&#45;&gt;Node9 -->
<g id="edge24_Node000012_Node000009" class="edge">
<title>Node12&#45;&gt;Node9</title>
<g id="a_edge24_Node000012_Node000009"><a xlink:title=" ">
<path fill="none" stroke="#63b8ff" d="M531.09,-302.31C522.96,-293.39 514.16,-283.72 506.65,-275.48"/>
<polygon fill="#63b8ff" stroke="#63b8ff" points="528.28,-304.42 537.6,-309.46 533.45,-299.71 528.28,-304.42"/>
</a>
</g>
</g>
<!-- Node12&#45;&gt;Node10 -->
<g id="edge25_Node000012_Node000010" class="edge">
<title>Node12&#45;&gt;Node10</title>
<g id="a_edge25_Node000012_Node000010"><a xlink:title=" ">
<path fill="none" stroke="#63b8ff" d="M585.81,-302.51C593.98,-293.95 602.67,-284.33 610.11,-275 630.42,-249.53 650.74,-217.76 663.11,-197.52"/>
<polygon fill="#63b8ff" stroke="#63b8ff" points="583.38,-299.98 578.93,-309.6 588.41,-304.86 583.38,-299.98"/>
</a>
</g>
</g>
<!-- Node12&#45;&gt;Node11 -->
<g id="edge26_Node000012_Node000011" class="edge">
<title>Node12&#45;&gt;Node11</title>
<g id="a_edge26_Node000012_Node000011"><a xlink:title=" ">
<path fill="none" stroke="#63b8ff" d="M570.02,-299.88C572.84,-291.9 575.47,-283.24 577.11,-275 587.52,-222.85 557.77,-202.25 583.11,-155.5 591.14,-140.69 604.99,-128.81 618.76,-119.88"/>
<polygon fill="#63b8ff" stroke="#63b8ff" points="566.77,-298.58 566.53,-309.17 573.33,-301.04 566.77,-298.58"/>
</a>
</g>
</g>
</g>
</svg>

<g id="navigator" transform="translate(0 0)" fill="#404254">
  <rect fill="#f2f5e9" fill-opacity="0.5" stroke="#606060" stroke-width=".5" x="0" y="0" width="60" height="60"/>
  <use id="zoomplus" xlink:href="#zoomPlus" x="17" y="9" onmousedown="handleZoom(evt,'in')"/>
  <use id="zoomminus" xlink:href="#zoomMin" x="42" y="9" onmousedown="handleZoom(evt,'out')"/>
  <use id="reset" xlink:href="#resetDef" x="30" y="36" onmousedown="handleReset()"/>
   <use id="arrowup" xlink:href="#arrowUp" x="0" y="0" onmousedown="handlePan(0,-1)"/>
  <use id="arrowright" xlink:href="#arrowRight" x="0" y="0" onmousedown="handlePan(1,0)"/>
  <use id="arrowdown" xlink:href="#arrowDown" x="0" y="0" onmousedown="handlePan(0,1)"/>
  <use id="arrowleft" xlink:href="#arrowLeft" x="0" y="0" onmousedown="handlePan(-1,0)"/>
</g>
<svg viewBox="0 0 15 15" width="100%" height="30px" preserveAspectRatio="xMaxYMin meet">
 <g id="arrow_out" transform="scale(0.3 0.3)">
  <a xlink:href="atomic_species_8h__dep__incl_org.svg" target="_base">
   <rect id="button" ry="5" rx="5" y="6" x="6" height="38" width="38"
        fill="#f2f5e9" fill-opacity="0.5" stroke="#606060" stroke-width="1.0"/>
   <path id="arrow"
     d="M 11.500037,31.436501 C 11.940474,20.09759 22.043105,11.32322 32.158766,21.979434 L 37.068811,17.246167 C 37.068811,17.246167 37.088388,32 37.088388,32 L 22.160133,31.978069 C 22.160133,31.978069 26.997745,27.140456 26.997745,27.140456 C 18.528582,18.264221 13.291696,25.230495 11.500037,31.436501 z"
     style="fill:#404040;"/>
  </a>
 </g>
</svg>

<style type='text/css'>
<![CDATA[
[data-mouse-over-selected='false'] { opacity: 0.7; }
[data-mouse-over-selected='true']  { opacity: 1.0; }
]]>
</style>
<script type="application/ecmascript"><![CDATA[
document.addEventListener('DOMContentLoaded', (event) => {
  highlightEdges();
  highlightAdjacentNodes();
});
]]></script>
</svg>
