<?xml version="1.0" encoding="UTF-8" standalone="no"?>
<!DOCTYPE svg PUBLIC "-//W3C//DTD SVG 1.1//EN"
 "http://www.w3.org/Graphics/SVG/1.1/DTD/svg11.dtd">
<!-- Generated by graphviz version 14.1.2 (20260124.0452)
 -->
<!-- Title: fourdst::composition::MaskedComposition Pages: 1 -->
<svg width="1031pt" height="161pt"
 viewBox="0.00 0.00 1031.00 161.00" xmlns="http://www.w3.org/2000/svg" xmlns:xlink="http://www.w3.org/1999/xlink">
<g id="graph0" class="graph" transform="scale(1 1) rotate(0) translate(4 156.88)">
<title>fourdst::composition::MaskedComposition</title>
<!-- Node1 -->
<g id="Node000001" class="node">
<title>Node1</title>
<g id="a_Node000001"><a xlink:title=" ">
<polygon fill="#999999" stroke="#666666" points="1023,-67.88 911.75,-67.88 911.75,-37.38 1023,-37.38 1023,-67.88"/>
<text xml:space="preserve" text-anchor="start" x="919.75" y="-54.38" font-family="Helvetica,sans-Serif" font-size="10.00">fourdst::composition</text>
<text xml:space="preserve" text-anchor="middle" x="967.38" y="-43.12" font-family="Helvetica,sans-Serif" font-size="10.00">::MaskedComposition</text>
</a>
</g>
</g>
<!-- Node2 -->
<g id="Node000002" class="node">
<title>Node2</title>
<g id="a_Node000002"><a xlink:href="classfourdst_1_1composition_1_1_composition_decorator.html" target="_top" xlink:title=" ">
<polygon fill="white" stroke="#666666" points="781.25,-122.88 661.75,-122.88 661.75,-92.38 781.25,-92.38 781.25,-122.88"/>
<text xml:space="preserve" text-anchor="start" x="669.75" y="-109.38" font-family="Helvetica,sans-Serif" font-size="10.00">fourdst::composition</text>
<text xml:space="preserve" text-anchor="middle" x="721.5" y="-98.12" font-family="Helvetica,sans-Serif" font-size="10.00">::CompositionDecorator</text>
</a>
</g>
</g>
<!-- Node2&#45;&gt;Node1 -->
<g id="edge1_Node000001_Node000002" class="edge">
<title>Node2&#45;&gt;Node1</title>
<g id="a_edge1_Node000001_Node000002"><a xlink:title=" ">
<path fill="none" stroke="#63b8ff" d="M792.49,-91.84C830.35,-83.3 876.43,-72.91 911.64,-64.97"/>
<polygon fill="#63b8ff" stroke="#63b8ff" points="792,-88.36 783.01,-93.98 793.54,-95.19 792,-88.36"/>
</a>
</g>
</g>
<!-- Node3 -->
<g id="Node000003" class="node">
<title>Node3</title>
<g id="a_Node000003"><a xlink:href="classfourdst_1_1composition_1_1_composition_abstract.html" target="_top" xlink:title="Abstract base class for chemical composition representations.">
<polygon fill="white" stroke="#666666" points="244.5,-152.88 131,-152.88 131,-122.38 244.5,-122.38 244.5,-152.88"/>
<text xml:space="preserve" text-anchor="start" x="139" y="-139.38" font-family="Helvetica,sans-Serif" font-size="10.00">fourdst::composition</text>
<text xml:space="preserve" text-anchor="middle" x="187.75" y="-128.12" font-family="Helvetica,sans-Serif" font-size="10.00">::CompositionAbstract</text>
</a>
</g>
</g>
<!-- Node3&#45;&gt;Node2 -->
<g id="edge2_Node000002_Node000003" class="edge">
<title>Node3&#45;&gt;Node2</title>
<g id="a_edge2_Node000002_Node000003"><a xlink:title=" ">
<path fill="none" stroke="#63b8ff" d="M256.1,-137.4C279.92,-137.26 306.9,-137.02 331.5,-136.62 470.4,-134.39 506.12,-141.48 643.75,-122.62 649.53,-121.83 655.54,-120.88 661.53,-119.85"/>
<polygon fill="#63b8ff" stroke="#63b8ff" points="256.18,-133.9 246.2,-137.46 256.22,-140.9 256.18,-133.9"/>
</a>
</g>
</g>
<!-- Node4 -->
<g id="Node000004" class="node">
<title>Node4</title>
<g id="a_Node000004"><a xlink:title=" ">
<polygon fill="white" stroke="#666666" points="530.5,-122.88 349.5,-122.88 349.5,-92.38 530.5,-92.38 530.5,-122.88"/>
<text xml:space="preserve" text-anchor="start" x="357.5" y="-109.38" font-family="Helvetica,sans-Serif" font-size="10.00">std::unique_ptr&lt; fourdst</text>
<text xml:space="preserve" text-anchor="middle" x="440" y="-98.12" font-family="Helvetica,sans-Serif" font-size="10.00">::composition::CompositionAbstract &gt;</text>
</a>
</g>
</g>
<!-- Node3&#45;&gt;Node4 -->
<g id="edge4_Node000004_Node000003" class="edge">
<title>Node3&#45;&gt;Node4</title>
<g id="a_edge4_Node000004_Node000003"><a xlink:title=" ">
<path fill="none" stroke="#9a32cd" stroke-dasharray="5,2" d="M255.9,-126.28C258.12,-125.97 260.33,-125.66 262.5,-125.38 290.59,-121.63 321.28,-118.29 349.08,-115.54"/>
<polygon fill="#9a32cd" stroke="#9a32cd" points="255.54,-122.8 246.16,-127.73 256.57,-129.72 255.54,-122.8"/>
</a>
</g>
<text xml:space="preserve" text-anchor="middle" x="297" y="-127.12" font-family="Helvetica,sans-Serif" font-size="10.00" fill="grey"> ptr</text>
</g>
<!-- Node4&#45;&gt;Node2 -->
<g id="edge3_Node000002_Node000004" class="edge">
<title>Node4&#45;&gt;Node2</title>
<g id="a_edge3_Node000002_Node000004"><a xlink:title=" ">
<path fill="none" stroke="#9a32cd" stroke-dasharray="5,2" d="M542.4,-107.62C582.42,-107.62 626.99,-107.62 661.53,-107.62"/>
<polygon fill="#9a32cd" stroke="#9a32cd" points="542.49,-104.13 532.49,-107.63 542.49,-111.13 542.49,-104.13"/>
</a>
</g>
<text xml:space="preserve" text-anchor="middle" x="596.12" y="-109.38" font-family="Helvetica,sans-Serif" font-size="10.00" fill="grey"> m_base_composition</text>
</g>
<!-- Node5 -->
<g id="Node000005" class="node">
<title>Node5</title>
<g id="a_Node000005"><a xlink:title=" ">
<polygon fill="white" stroke="#666666" points="772.25,-67.88 670.75,-67.88 670.75,-37.38 772.25,-37.38 772.25,-67.88"/>
<text xml:space="preserve" text-anchor="start" x="678.75" y="-54.38" font-family="Helvetica,sans-Serif" font-size="10.00">std::vector&lt; fourdst</text>
<text xml:space="preserve" text-anchor="middle" x="721.5" y="-43.12" font-family="Helvetica,sans-Serif" font-size="10.00">::atomic::Species &gt;</text>
</a>
</g>
</g>
<!-- Node5&#45;&gt;Node1 -->
<g id="edge5_Node000001_Node000005" class="edge">
<title>Node5&#45;&gt;Node1</title>
<g id="a_edge5_Node000001_Node000005"><a xlink:title=" ">
<path fill="none" stroke="#9a32cd" stroke-dasharray="5,2" d="M784.01,-52.62C823.25,-52.62 873.66,-52.62 911.54,-52.62"/>
<polygon fill="#9a32cd" stroke="#9a32cd" points="784.25,-49.13 774.25,-52.63 784.25,-56.13 784.25,-49.13"/>
</a>
</g>
<text xml:space="preserve" text-anchor="middle" x="846.5" y="-54.38" font-family="Helvetica,sans-Serif" font-size="10.00" fill="grey"> m_activeSpecies</text>
</g>
<!-- Node6 -->
<g id="Node000006" class="node">
<title>Node6</title>
<g id="a_Node000006"><a xlink:href="structfourdst_1_1atomic_1_1_species.html" target="_top" xlink:title="Represents an atomic species (isotope) with its fundamental physical properties.">
<polygon fill="white" stroke="#666666" points="501.25,-57.25 378.75,-57.25 378.75,-38 501.25,-38 501.25,-57.25"/>
<text xml:space="preserve" text-anchor="middle" x="440" y="-43.75" font-family="Helvetica,sans-Serif" font-size="10.00">fourdst::atomic::Species</text>
</a>
</g>
</g>
<!-- Node6&#45;&gt;Node5 -->
<g id="edge6_Node000005_Node000006" class="edge">
<title>Node6&#45;&gt;Node5</title>
<g id="a_edge6_Node000005_Node000006"><a xlink:title=" ">
<path fill="none" stroke="#9a32cd" stroke-dasharray="5,2" d="M512.92,-48.91C562.38,-49.8 626.82,-50.95 670.69,-51.73"/>
<polygon fill="#9a32cd" stroke="#9a32cd" points="513.22,-45.42 503.16,-48.74 513.1,-52.42 513.22,-45.42"/>
</a>
</g>
<text xml:space="preserve" text-anchor="middle" x="596.12" y="-52.9" font-family="Helvetica,sans-Serif" font-size="10.00" fill="grey"> elements</text>
</g>
<!-- Node7 -->
<g id="Node000007" class="node">
<title>Node7</title>
<g id="a_Node000007"><a xlink:title=" ">
<polygon fill="white" stroke="#666666" points="217.5,-55.25 158,-55.25 158,-36 217.5,-36 217.5,-55.25"/>
<text xml:space="preserve" text-anchor="middle" x="187.75" y="-41.75" font-family="Helvetica,sans-Serif" font-size="10.00">std::string</text>
</a>
</g>
</g>
<!-- Node7&#45;&gt;Node6 -->
<g id="edge7_Node000006_Node000007" class="edge">
<title>Node7&#45;&gt;Node6</title>
<g id="a_edge7_Node000006_Node000007"><a xlink:title=" ">
<path fill="none" stroke="#9a32cd" stroke-dasharray="5,2" d="M228.9,-45.77C257.51,-45.89 296.87,-46.08 331.5,-46.38 346.71,-46.5 363.13,-46.68 378.45,-46.85"/>
<polygon fill="#9a32cd" stroke="#9a32cd" points="229.26,-42.27 219.24,-45.73 229.23,-49.27 229.26,-42.27"/>
</a>
</g>
<text xml:space="preserve" text-anchor="middle" x="297" y="-93.12" font-family="Helvetica,sans-Serif" font-size="10.00" fill="grey"> m_betaCode</text>
<text xml:space="preserve" text-anchor="middle" x="297" y="-81.88" font-family="Helvetica,sans-Serif" font-size="10.00" fill="grey">m_decayModes</text>
<text xml:space="preserve" text-anchor="middle" x="297" y="-70.62" font-family="Helvetica,sans-Serif" font-size="10.00" fill="grey">m_el</text>
<text xml:space="preserve" text-anchor="middle" x="297" y="-59.38" font-family="Helvetica,sans-Serif" font-size="10.00" fill="grey">m_name</text>
<text xml:space="preserve" text-anchor="middle" x="297" y="-48.12" font-family="Helvetica,sans-Serif" font-size="10.00" fill="grey">m_spinParity</text>
</g>
<!-- Node8 -->
<g id="Node000008" class="node">
<title>Node8</title>
<g id="a_Node000008"><a xlink:title=" ">
<polygon fill="white" stroke="#666666" points="94,-60.88 0,-60.88 0,-30.38 94,-30.38 94,-60.88"/>
<text xml:space="preserve" text-anchor="start" x="8" y="-47.38" font-family="Helvetica,sans-Serif" font-size="10.00">std::basic_string&lt;</text>
<text xml:space="preserve" text-anchor="middle" x="47" y="-36.12" font-family="Helvetica,sans-Serif" font-size="10.00"> Char &gt;</text>
</a>
</g>
</g>
<!-- Node8&#45;&gt;Node7 -->
<g id="edge8_Node000007_Node000008" class="edge">
<title>Node8&#45;&gt;Node7</title>
<g id="a_edge8_Node000007_Node000008"><a xlink:title=" ">
<path fill="none" stroke="#63b8ff" d="M105.51,-45.62C123.49,-45.62 142.56,-45.62 157.71,-45.62"/>
<polygon fill="#63b8ff" stroke="#63b8ff" points="105.72,-42.13 95.72,-45.63 105.72,-49.13 105.72,-42.13"/>
</a>
</g>
</g>
<!-- Node9 -->
<g id="Node000009" class="node">
<title>Node9</title>
<g id="a_Node000009"><a xlink:title=" ">
<polygon fill="white" stroke="#666666" points="776,-19.25 667,-19.25 667,0 776,0 776,-19.25"/>
<text xml:space="preserve" text-anchor="middle" x="721.5" y="-5.75" font-family="Helvetica,sans-Serif" font-size="10.00">std::vector&lt; double &gt;</text>
</a>
</g>
</g>
<!-- Node9&#45;&gt;Node1 -->
<g id="edge9_Node000001_Node000009" class="edge">
<title>Node9&#45;&gt;Node1</title>
<g id="a_edge9_Node000001_Node000009"><a xlink:title=" ">
<path fill="none" stroke="#9a32cd" stroke-dasharray="5,2" d="M787.25,-19.39C819.35,-24.42 858.65,-30.85 893.75,-37.38 899.45,-38.43 905.39,-39.59 911.31,-40.78"/>
<polygon fill="#9a32cd" stroke="#9a32cd" points="788.13,-15.99 777.71,-17.91 787.06,-22.9 788.13,-15.99"/>
</a>
</g>
<text xml:space="preserve" text-anchor="middle" x="846.5" y="-39.12" font-family="Helvetica,sans-Serif" font-size="10.00" fill="grey"> m_molarAbundances</text>
</g>
</g>
</svg>
