<?xml version="1.0" encoding="UTF-8" standalone="no"?>
<!DOCTYPE svg PUBLIC "-//W3C//DTD SVG 1.1//EN"
 "http://www.w3.org/Graphics/SVG/1.1/DTD/svg11.dtd">
<!-- Generated by graphviz version 13.0.1 (20250615.1724)
 -->
<!-- Title: fourdst::composition::Composition Pages: 1 -->
<svg width="887pt" height="174pt"
 viewBox="0.00 0.00 887.00 174.00" xmlns="http://www.w3.org/2000/svg" xmlns:xlink="http://www.w3.org/1999/xlink">
<g id="graph0" class="graph" transform="scale(1 1) rotate(0) translate(4 169.88)">
<title>fourdst::composition::Composition</title>
<!-- Node1 -->
<g id="Node000001" class="node">
<title>Node1</title>
<g id="a_Node000001"><a xlink:title="Manages a collection of chemical species and their abundances.">
<polygon fill="#999999" stroke="#666666" points="879,-107.5 774.5,-107.5 774.5,-77 879,-77 879,-107.5"/>
<text xml:space="preserve" text-anchor="start" x="782.5" y="-94" font-family="Helvetica,sans-Serif" font-size="10.00">fourdst::composition</text>
<text xml:space="preserve" text-anchor="middle" x="826.75" y="-82.75" font-family="Helvetica,sans-Serif" font-size="10.00">::Composition</text>
</a>
</g>
</g>
<!-- Node2 -->
<g id="Node000002" class="node">
<title>Node2</title>
<g id="a_Node000002"><a xlink:href="class_composition_abstract.html" target="_top" xlink:title="Abstract base class for chemical composition representations.">
<polygon fill="white" stroke="#666666" points="614.75,-165.88 507.25,-165.88 507.25,-146.62 614.75,-146.62 614.75,-165.88"/>
<text xml:space="preserve" text-anchor="middle" x="561" y="-152.38" font-family="Helvetica,sans-Serif" font-size="10.00">CompositionAbstract</text>
</a>
</g>
</g>
<!-- Node2&#45;&gt;Node1 -->
<g id="edge1_Node000001_Node000002" class="edge">
<title>Node2&#45;&gt;Node1</title>
<g id="a_edge1_Node000001_Node000002"><a xlink:title=" ">
<path fill="none" stroke="#63b8ff" d="M626.09,-147.71C664.38,-141.79 713.74,-132.71 756.5,-120.25 767.95,-116.91 780.12,-112.36 791,-107.89"/>
<polygon fill="#63b8ff" stroke="#63b8ff" points="625.95,-144.19 616.59,-149.14 627,-151.11 625.95,-144.19"/>
</a>
</g>
</g>
<!-- Node3 -->
<g id="Node000003" class="node">
<title>Node3</title>
<g id="a_Node000003"><a xlink:title=" ">
<polygon fill="white" stroke="#666666" points="608.75,-128.5 513.25,-128.5 513.25,-98 608.75,-98 608.75,-128.5"/>
<text xml:space="preserve" text-anchor="start" x="521.25" y="-115" font-family="Helvetica,sans-Serif" font-size="10.00">std::set&lt; fourdst::</text>
<text xml:space="preserve" text-anchor="middle" x="561" y="-103.75" font-family="Helvetica,sans-Serif" font-size="10.00">atomic::Species &gt;</text>
</a>
</g>
</g>
<!-- Node3&#45;&gt;Node1 -->
<g id="edge2_Node000001_Node000003" class="edge">
<title>Node3&#45;&gt;Node1</title>
<g id="a_edge2_Node000001_Node000003"><a xlink:title=" ">
<path fill="none" stroke="#9a32cd" stroke-dasharray="5,2" d="M620.44,-108.6C666.43,-104.94 729.89,-99.88 774.04,-96.37"/>
<polygon fill="#9a32cd" stroke="#9a32cd" points="620.35,-105.09 610.66,-109.38 620.91,-112.07 620.35,-105.09"/>
</a>
</g>
<text xml:space="preserve" text-anchor="middle" x="709.25" y="-107" font-family="Helvetica,sans-Serif" font-size="10.00" fill="grey"> m_registeredSpecies</text>
</g>
<!-- Node4 -->
<g id="Node000004" class="node">
<title>Node4</title>
<g id="a_Node000004"><a xlink:href="structfourdst_1_1atomic_1_1_species.html" target="_top" xlink:title="Represents an atomic species (isotope) with its fundamental physical properties.">
<polygon fill="white" stroke="#666666" points="418,-97.88 295.5,-97.88 295.5,-78.62 418,-78.62 418,-97.88"/>
<text xml:space="preserve" text-anchor="middle" x="356.75" y="-84.38" font-family="Helvetica,sans-Serif" font-size="10.00">fourdst::atomic::Species</text>
</a>
</g>
</g>
<!-- Node4&#45;&gt;Node3 -->
<g id="edge3_Node000003_Node000004" class="edge">
<title>Node4&#45;&gt;Node3</title>
<g id="a_edge3_Node000003_Node000004"><a xlink:title=" ">
<path fill="none" stroke="#9a32cd" stroke-dasharray="5,2" d="M429.65,-97.14C457.3,-100.55 488.13,-104.37 512.86,-107.42"/>
<polygon fill="#9a32cd" stroke="#9a32cd" points="430.29,-93.69 419.93,-95.94 429.43,-100.64 430.29,-93.69"/>
</a>
</g>
<text xml:space="preserve" text-anchor="middle" x="448" y="-102.5" font-family="Helvetica,sans-Serif" font-size="10.00" fill="grey"> keys</text>
</g>
<!-- Node7 -->
<g id="Node000007" class="node">
<title>Node7</title>
<g id="a_Node000007"><a xlink:title=" ">
<polygon fill="white" stroke="#666666" points="626,-79.5 496,-79.5 496,-49 626,-49 626,-79.5"/>
<text xml:space="preserve" text-anchor="start" x="504" y="-66" font-family="Helvetica,sans-Serif" font-size="10.00">std::map&lt; fourdst::</text>
<text xml:space="preserve" text-anchor="middle" x="561" y="-54.75" font-family="Helvetica,sans-Serif" font-size="10.00">atomic::Species, double &gt;</text>
</a>
</g>
</g>
<!-- Node4&#45;&gt;Node7 -->
<g id="edge7_Node000007_Node000004" class="edge">
<title>Node4&#45;&gt;Node7</title>
<g id="a_edge7_Node000007_Node000004"><a xlink:title=" ">
<path fill="none" stroke="#9a32cd" stroke-dasharray="5,2" d="M429.75,-76.81C431.85,-76.53 433.94,-76.26 436,-76 455.31,-73.58 476.37,-71.4 495.56,-69.61"/>
<polygon fill="#9a32cd" stroke="#9a32cd" points="429.28,-73.34 419.86,-78.18 430.25,-80.27 429.28,-73.34"/>
</a>
</g>
<text xml:space="preserve" text-anchor="middle" x="448" y="-77.75" font-family="Helvetica,sans-Serif" font-size="10.00" fill="grey"> keys</text>
</g>
<!-- Node5 -->
<g id="Node000005" class="node">
<title>Node5</title>
<g id="a_Node000005"><a xlink:title=" ">
<polygon fill="white" stroke="#666666" points="190.5,-97.88 131,-97.88 131,-78.62 190.5,-78.62 190.5,-97.88"/>
<text xml:space="preserve" text-anchor="middle" x="160.75" y="-84.38" font-family="Helvetica,sans-Serif" font-size="10.00">std::string</text>
</a>
</g>
</g>
<!-- Node5&#45;&gt;Node4 -->
<g id="edge4_Node000004_Node000005" class="edge">
<title>Node5&#45;&gt;Node4</title>
<g id="a_edge4_Node000004_Node000005"><a xlink:title=" ">
<path fill="none" stroke="#9a32cd" stroke-dasharray="5,2" d="M202.1,-88.25C229.01,-88.25 264.87,-88.25 295.18,-88.25"/>
<polygon fill="#9a32cd" stroke="#9a32cd" points="202.31,-84.75 192.31,-88.25 202.31,-91.75 202.31,-84.75"/>
</a>
</g>
<text xml:space="preserve" text-anchor="middle" x="243" y="-135" font-family="Helvetica,sans-Serif" font-size="10.00" fill="grey"> m_betaCode</text>
<text xml:space="preserve" text-anchor="middle" x="243" y="-123.75" font-family="Helvetica,sans-Serif" font-size="10.00" fill="grey">m_decayModes</text>
<text xml:space="preserve" text-anchor="middle" x="243" y="-112.5" font-family="Helvetica,sans-Serif" font-size="10.00" fill="grey">m_el</text>
<text xml:space="preserve" text-anchor="middle" x="243" y="-101.25" font-family="Helvetica,sans-Serif" font-size="10.00" fill="grey">m_name</text>
<text xml:space="preserve" text-anchor="middle" x="243" y="-90" font-family="Helvetica,sans-Serif" font-size="10.00" fill="grey">m_spinParity</text>
</g>
<!-- Node6 -->
<g id="Node000006" class="node">
<title>Node6</title>
<g id="a_Node000006"><a xlink:title=" ">
<polygon fill="white" stroke="#666666" points="94,-103.5 0,-103.5 0,-73 94,-73 94,-103.5"/>
<text xml:space="preserve" text-anchor="start" x="8" y="-90" font-family="Helvetica,sans-Serif" font-size="10.00">std::basic_string&lt;</text>
<text xml:space="preserve" text-anchor="middle" x="47" y="-78.75" font-family="Helvetica,sans-Serif" font-size="10.00"> Char &gt;</text>
</a>
</g>
</g>
<!-- Node6&#45;&gt;Node5 -->
<g id="edge5_Node000005_Node000006" class="edge">
<title>Node6&#45;&gt;Node5</title>
<g id="a_edge5_Node000005_Node000006"><a xlink:title=" ">
<path fill="none" stroke="#63b8ff" d="M105.71,-88.25C114.32,-88.25 122.87,-88.25 130.55,-88.25"/>
<polygon fill="#63b8ff" stroke="#63b8ff" points="105.93,-84.75 95.93,-88.25 105.93,-91.75 105.93,-84.75"/>
</a>
</g>
</g>
<!-- Node7&#45;&gt;Node1 -->
<g id="edge6_Node000001_Node000007" class="edge">
<title>Node7&#45;&gt;Node1</title>
<g id="a_edge6_Node000001_Node000007"><a xlink:title=" ">
<path fill="none" stroke="#9a32cd" stroke-dasharray="5,2" d="M637.86,-70.91C673.84,-74.24 717.42,-78.51 756.5,-83 762.28,-83.66 768.33,-84.41 774.35,-85.17"/>
<polygon fill="#9a32cd" stroke="#9a32cd" points="638.24,-67.43 627.96,-70 637.6,-74.4 638.24,-67.43"/>
</a>
</g>
<text xml:space="preserve" text-anchor="middle" x="709.25" y="-84.75" font-family="Helvetica,sans-Serif" font-size="10.00" fill="grey"> m_molarAbundances</text>
</g>
<!-- Node8 -->
<g id="Node000008" class="node">
<title>Node8</title>
<g id="a_Node000008"><a xlink:href="structfourdst_1_1composition_1_1_composition_1_1_composition_cache.html" target="_top" xlink:title="Caches computed properties of the composition to avoid redundant calculations.">
<polygon fill="white" stroke="#666666" points="644,-30.5 478,-30.5 478,0 644,0 644,-30.5"/>
<text xml:space="preserve" text-anchor="start" x="486" y="-17" font-family="Helvetica,sans-Serif" font-size="10.00">fourdst::composition</text>
<text xml:space="preserve" text-anchor="middle" x="561" y="-5.75" font-family="Helvetica,sans-Serif" font-size="10.00">::Composition::CompositionCache</text>
</a>
</g>
</g>
<!-- Node8&#45;&gt;Node1 -->
<g id="edge8_Node000001_Node000008" class="edge">
<title>Node8&#45;&gt;Node1</title>
<g id="a_edge8_Node000001_Node000008"><a xlink:title=" ">
<path fill="none" stroke="#9a32cd" stroke-dasharray="5,2" d="M655.02,-30.91C687.6,-37.64 724.12,-46.62 756.5,-58 770.67,-62.98 785.7,-70.16 798.12,-76.66"/>
<polygon fill="#9a32cd" stroke="#9a32cd" points="656.12,-27.56 645.62,-29.01 654.73,-34.42 656.12,-27.56"/>
</a>
</g>
<text xml:space="preserve" text-anchor="middle" x="709.25" y="-59.75" font-family="Helvetica,sans-Serif" font-size="10.00" fill="grey"> m_cache</text>
</g>
</g>
</svg>
