<?xml version="1.0" encoding="UTF-8" standalone="no"?>
<!DOCTYPE svg PUBLIC "-//W3C//DTD SVG 1.1//EN"
 "http://www.w3.org/Graphics/SVG/1.1/DTD/svg11.dtd">
<!-- Generated by graphviz version 14.1.2 (20260124.0452)
 -->
<!-- Title: fourdst::composition::Composition Pages: 1 -->
<svg width="906pt" height="174pt"
 viewBox="0.00 0.00 906.00 174.00" xmlns="http://www.w3.org/2000/svg" xmlns:xlink="http://www.w3.org/1999/xlink">
<g id="graph0" class="graph" transform="scale(1 1) rotate(0) translate(4 169.5)">
<title>fourdst::composition::Composition</title>
<!-- Node1 -->
<g id="Node000001" class="node">
<title>Node1</title>
<g id="a_Node000001"><a xlink:title="Manages a collection of chemical species and their abundances.">
<polygon fill="#999999" stroke="#666666" points="897.75,-94.5 793.25,-94.5 793.25,-64 897.75,-64 897.75,-94.5"/>
<text xml:space="preserve" text-anchor="start" x="801.25" y="-81" font-family="Helvetica,sans-Serif" font-size="10.00">fourdst::composition</text>
<text xml:space="preserve" text-anchor="middle" x="845.5" y="-69.75" font-family="Helvetica,sans-Serif" font-size="10.00">::Composition</text>
</a>
</g>
</g>
<!-- Node2 -->
<g id="Node000002" class="node">
<title>Node2</title>
<g id="a_Node000002"><a xlink:href="classfourdst_1_1composition_1_1_composition_abstract.html" target="_top" xlink:title="Abstract base class for chemical composition representations.">
<polygon fill="white" stroke="#666666" points="636.5,-165.5 523,-165.5 523,-135 636.5,-135 636.5,-165.5"/>
<text xml:space="preserve" text-anchor="start" x="531" y="-152" font-family="Helvetica,sans-Serif" font-size="10.00">fourdst::composition</text>
<text xml:space="preserve" text-anchor="middle" x="579.75" y="-140.75" font-family="Helvetica,sans-Serif" font-size="10.00">::CompositionAbstract</text>
</a>
</g>
</g>
<!-- Node2&#45;&gt;Node1 -->
<g id="edge1_Node000001_Node000002" class="edge">
<title>Node2&#45;&gt;Node1</title>
<g id="a_edge1_Node000001_Node000002"><a xlink:title=" ">
<path fill="none" stroke="#63b8ff" d="M647.7,-138.95C685.57,-131.77 733.56,-121.36 775.25,-108.25 786.94,-104.58 799.38,-99.69 810.45,-94.98"/>
<polygon fill="#63b8ff" stroke="#63b8ff" points="647.47,-135.43 638.28,-140.7 648.75,-142.31 647.47,-135.43"/>
</a>
</g>
</g>
<!-- Node3 -->
<g id="Node000003" class="node">
<title>Node3</title>
<g id="a_Node000003"><a xlink:title=" ">
<polygon fill="white" stroke="#666666" points="630.5,-116.5 529,-116.5 529,-86 630.5,-86 630.5,-116.5"/>
<text xml:space="preserve" text-anchor="start" x="537" y="-103" font-family="Helvetica,sans-Serif" font-size="10.00">std::vector&lt; fourdst</text>
<text xml:space="preserve" text-anchor="middle" x="579.75" y="-91.75" font-family="Helvetica,sans-Serif" font-size="10.00">::atomic::Species &gt;</text>
</a>
</g>
</g>
<!-- Node3&#45;&gt;Node1 -->
<g id="edge2_Node000001_Node000003" class="edge">
<title>Node3&#45;&gt;Node1</title>
<g id="a_edge2_Node000001_Node000003"><a xlink:title=" ">
<path fill="none" stroke="#9a32cd" stroke-dasharray="5,2" d="M642.26,-96.12C688.08,-92.3 749.92,-87.14 793.11,-83.54"/>
<polygon fill="#9a32cd" stroke="#9a32cd" points="642.16,-92.62 632.49,-96.93 642.74,-99.59 642.16,-92.62"/>
</a>
</g>
<text xml:space="preserve" text-anchor="middle" x="728" y="-94.62" font-family="Helvetica,sans-Serif" font-size="10.00" fill="grey"> m_species</text>
</g>
<!-- Node4 -->
<g id="Node000004" class="node">
<title>Node4</title>
<g id="a_Node000004"><a xlink:href="structfourdst_1_1atomic_1_1_species.html" target="_top" xlink:title="Represents an atomic species (isotope) with its fundamental physical properties.">
<polygon fill="white" stroke="#666666" points="418,-110.88 295.5,-110.88 295.5,-91.62 418,-91.62 418,-110.88"/>
<text xml:space="preserve" text-anchor="middle" x="356.75" y="-97.38" font-family="Helvetica,sans-Serif" font-size="10.00">fourdst::atomic::Species</text>
</a>
</g>
</g>
<!-- Node4&#45;&gt;Node3 -->
<g id="edge3_Node000003_Node000004" class="edge">
<title>Node4&#45;&gt;Node3</title>
<g id="a_edge3_Node000003_Node000004"><a xlink:title=" ">
<path fill="none" stroke="#9a32cd" stroke-dasharray="5,2" d="M429.64,-101.25C461.99,-101.25 499.39,-101.25 528.65,-101.25"/>
<polygon fill="#9a32cd" stroke="#9a32cd" points="429.95,-97.75 419.95,-101.25 429.95,-104.75 429.95,-97.75"/>
</a>
</g>
<text xml:space="preserve" text-anchor="middle" x="457.38" y="-103" font-family="Helvetica,sans-Serif" font-size="10.00" fill="grey"> elements</text>
</g>
<!-- Node5 -->
<g id="Node000005" class="node">
<title>Node5</title>
<g id="a_Node000005"><a xlink:title=" ">
<polygon fill="white" stroke="#666666" points="190.5,-110.88 131,-110.88 131,-91.62 190.5,-91.62 190.5,-110.88"/>
<text xml:space="preserve" text-anchor="middle" x="160.75" y="-97.38" font-family="Helvetica,sans-Serif" font-size="10.00">std::string</text>
</a>
</g>
</g>
<!-- Node5&#45;&gt;Node4 -->
<g id="edge4_Node000004_Node000005" class="edge">
<title>Node5&#45;&gt;Node4</title>
<g id="a_edge4_Node000004_Node000005"><a xlink:title=" ">
<path fill="none" stroke="#9a32cd" stroke-dasharray="5,2" d="M202.1,-101.25C229.01,-101.25 264.87,-101.25 295.18,-101.25"/>
<polygon fill="#9a32cd" stroke="#9a32cd" points="202.31,-97.75 192.31,-101.25 202.31,-104.75 202.31,-97.75"/>
</a>
</g>
<text xml:space="preserve" text-anchor="middle" x="243" y="-148" font-family="Helvetica,sans-Serif" font-size="10.00" fill="grey"> m_betaCode</text>
<text xml:space="preserve" text-anchor="middle" x="243" y="-136.75" font-family="Helvetica,sans-Serif" font-size="10.00" fill="grey">m_decayModes</text>
<text xml:space="preserve" text-anchor="middle" x="243" y="-125.5" font-family="Helvetica,sans-Serif" font-size="10.00" fill="grey">m_el</text>
<text xml:space="preserve" text-anchor="middle" x="243" y="-114.25" font-family="Helvetica,sans-Serif" font-size="10.00" fill="grey">m_name</text>
<text xml:space="preserve" text-anchor="middle" x="243" y="-103" font-family="Helvetica,sans-Serif" font-size="10.00" fill="grey">m_spinParity</text>
</g>
<!-- Node6 -->
<g id="Node000006" class="node">
<title>Node6</title>
<g id="a_Node000006"><a xlink:title=" ">
<polygon fill="white" stroke="#666666" points="94,-116.5 0,-116.5 0,-86 94,-86 94,-116.5"/>
<text xml:space="preserve" text-anchor="start" x="8" y="-103" font-family="Helvetica,sans-Serif" font-size="10.00">std::basic_string&lt;</text>
<text xml:space="preserve" text-anchor="middle" x="47" y="-91.75" font-family="Helvetica,sans-Serif" font-size="10.00"> Char &gt;</text>
</a>
</g>
</g>
<!-- Node6&#45;&gt;Node5 -->
<g id="edge5_Node000005_Node000006" class="edge">
<title>Node6&#45;&gt;Node5</title>
<g id="a_edge5_Node000005_Node000006"><a xlink:title=" ">
<path fill="none" stroke="#63b8ff" d="M105.71,-101.25C114.32,-101.25 122.87,-101.25 130.55,-101.25"/>
<polygon fill="#63b8ff" stroke="#63b8ff" points="105.93,-97.75 95.93,-101.25 105.93,-104.75 105.93,-97.75"/>
</a>
</g>
</g>
<!-- Node7 -->
<g id="Node000007" class="node">
<title>Node7</title>
<g id="a_Node000007"><a xlink:title=" ">
<polygon fill="white" stroke="#666666" points="634.25,-67.88 525.25,-67.88 525.25,-48.62 634.25,-48.62 634.25,-67.88"/>
<text xml:space="preserve" text-anchor="middle" x="579.75" y="-54.38" font-family="Helvetica,sans-Serif" font-size="10.00">std::vector&lt; double &gt;</text>
</a>
</g>
</g>
<!-- Node7&#45;&gt;Node1 -->
<g id="edge6_Node000001_Node000007" class="edge">
<title>Node7&#45;&gt;Node1</title>
<g id="a_edge6_Node000001_Node000007"><a xlink:title=" ">
<path fill="none" stroke="#9a32cd" stroke-dasharray="5,2" d="M646.01,-57.14C683.88,-57.26 732.41,-58.7 775.25,-64 780.99,-64.71 786.96,-65.67 792.88,-66.77"/>
<polygon fill="#9a32cd" stroke="#9a32cd" points="646.13,-53.64 636.13,-57.15 646.13,-60.64 646.13,-53.64"/>
</a>
</g>
<text xml:space="preserve" text-anchor="middle" x="728" y="-65.75" font-family="Helvetica,sans-Serif" font-size="10.00" fill="grey"> m_molarAbundances</text>
</g>
<!-- Node8 -->
<g id="Node000008" class="node">
<title>Node8</title>
<g id="a_Node000008"><a xlink:href="structfourdst_1_1composition_1_1_composition_1_1_composition_cache.html" target="_top" xlink:title="Caches computed properties of the composition to avoid redundant calculations.">
<polygon fill="white" stroke="#666666" points="662.75,-30.5 496.75,-30.5 496.75,0 662.75,0 662.75,-30.5"/>
<text xml:space="preserve" text-anchor="start" x="504.75" y="-17" font-family="Helvetica,sans-Serif" font-size="10.00">fourdst::composition</text>
<text xml:space="preserve" text-anchor="middle" x="579.75" y="-5.75" font-family="Helvetica,sans-Serif" font-size="10.00">::Composition::CompositionCache</text>
</a>
</g>
</g>
<!-- Node8&#45;&gt;Node1 -->
<g id="edge7_Node000001_Node000008" class="edge">
<title>Node8&#45;&gt;Node1</title>
<g id="a_edge7_Node000001_Node000008"><a xlink:title=" ">
<path fill="none" stroke="#9a32cd" stroke-dasharray="5,2" d="M674.44,-21.31C706.92,-25.19 743.22,-31.56 775.25,-42 791.08,-47.16 807.55,-55.86 820.46,-63.56"/>
<polygon fill="#9a32cd" stroke="#9a32cd" points="674.95,-17.85 664.62,-20.21 674.17,-24.8 674.95,-17.85"/>
</a>
</g>
<text xml:space="preserve" text-anchor="middle" x="728" y="-43.75" font-family="Helvetica,sans-Serif" font-size="10.00" fill="grey"> m_cache</text>
</g>
</g>
</svg>
