<?xml version="1.0" encoding="UTF-8" standalone="no"?>
<!DOCTYPE svg PUBLIC "-//W3C//DTD SVG 1.1//EN"
 "http://www.w3.org/Graphics/SVG/1.1/DTD/svg11.dtd">
<!-- Generated by graphviz version 14.1.2 (20260124.0452)
 -->
<!-- Title: fourdst::composition::Composition Pages: 1 -->
<!--zoomable 174 -->

<svg id="main" version="1.1" xmlns="http://www.w3.org/2000/svg" xmlns:xlink="http://www.w3.org/1999/xlink" xml:space="preserve" onload="init(evt)">

<style type="text/css"><![CDATA[
.node, .edge {opacity: 0.7;}
.node.selected, .edge.selected {opacity: 1;}
.edge:hover path { stroke: red; }
.edge:hover polygon { stroke: red; fill: red; }
]]></style>

<defs>
  <circle id="rim" cx="0" cy="0" r="7"/>
  <circle id="rim2" cx="0" cy="0" r="3.5"/>
  <g id="zoomPlus">
    <use xlink:href="#rim" fill="#404040"><set attributeName="fill" to="#808080" begin="zoomplus.mouseover" end="zoomplus.mouseout"/></use>
    <path d="M-4,0h8M0,-4v8" fill="none" stroke="white" stroke-width="1.5" pointer-events="none"/>
  </g>
  <g id="zoomMin">
    <use xlink:href="#rim" fill="#404040"><set attributeName="fill" to="#808080" begin="zoomminus.mouseover" end="zoomminus.mouseout"/></use>
    <path d="M-4,0h8" fill="none" stroke="white" stroke-width="1.5" pointer-events="none"/>
  </g>
  <g id="arrowUp" transform="translate(30 24)">
    <use xlink:href="#rim"/>
    <path pointer-events="none" fill="none" stroke="white" stroke-width="1.5" d="M0,-3.0v7 M-2.5,-0.5L0,-3.0L2.5,-0.5"/>
  </g>
  <g id="arrowRight" transform="rotate(90) translate(36 -43)">
    <use xlink:href="#rim"/>
    <path pointer-events="none" fill="none" stroke="white" stroke-width="1.5" d="M0,-3.0v7 M-2.5,-0.5L0,-3.0L2.5,-0.5"/>
  </g>
  <g id="arrowDown" transform="rotate(180) translate(-30 -48)">
    <use xlink:href="#rim"/>
    <path pointer-events="none" fill="none" stroke="white" stroke-width="1.5" d="M0,-3.0v7 M-2.5,-0.5L0,-3.0L2.5,-0.5"/>
  </g>
  <g id="arrowLeft" transform="rotate(270) translate(-36 17)">
    <use xlink:href="#rim"/>
    <path pointer-events="none" fill="none" stroke="white" stroke-width="1.5" d="M0,-3.0v7 M-2.5,-0.5L0,-3.0L2.5,-0.5"/>
  </g>
  <g id="resetDef">
    <use xlink:href="#rim2" fill="#404040"><set attributeName="fill" to="#808080" begin="reset.mouseover" end="reset.mouseout"/></use>
  </g>
</defs>
<script type="application/ecmascript">
var viewWidth = 906;
var viewHeight = 174;
var sectionId = 'dynsection-1';
</script>
<script type="application/ecmascript" xlink:href="svg.min.js"/>
<svg id="graph" class="graph">
<g id="viewport">
<title>fourdst::composition::Composition</title>
<!-- Node1 -->
<g id="Node000001" class="node">
<title>Node1</title>
<g id="a_Node000001"><a xlink:title="Manages a collection of chemical species and their abundances.">
<polygon fill="#999999" stroke="#666666" points="897.75,-94.5 793.25,-94.5 793.25,-64 897.75,-64 897.75,-94.5"/>
<text xml:space="preserve" text-anchor="start" x="801.25" y="-81" font-family="Helvetica,sans-Serif" font-size="10.00">fourdst::composition</text>
<text xml:space="preserve" text-anchor="middle" x="845.5" y="-69.75" font-family="Helvetica,sans-Serif" font-size="10.00">::Composition</text>
</a>
</g>
</g>
<!-- Node2 -->
<g id="Node000002" class="node">
<title>Node2</title>
<g id="a_Node000002"><a xlink:href="classfourdst_1_1composition_1_1_composition_abstract.html" target="_top" xlink:title="Abstract base class for chemical composition representations.">
<polygon fill="white" stroke="#666666" points="636.5,-165.5 523,-165.5 523,-135 636.5,-135 636.5,-165.5"/>
<text xml:space="preserve" text-anchor="start" x="531" y="-152" font-family="Helvetica,sans-Serif" font-size="10.00">fourdst::composition</text>
<text xml:space="preserve" text-anchor="middle" x="579.75" y="-140.75" font-family="Helvetica,sans-Serif" font-size="10.00">::CompositionAbstract</text>
</a>
</g>
</g>
<!-- Node2&#45;&gt;Node1 -->
<g id="edge1_Node000001_Node000002" class="edge">
<title>Node2&#45;&gt;Node1</title>
<g id="a_edge1_Node000001_Node000002"><a xlink:title=" ">
<path fill="none" stroke="#63b8ff" d="M647.7,-138.95C685.57,-131.77 733.56,-121.36 775.25,-108.25 786.94,-104.58 799.38,-99.69 810.45,-94.98"/>
<polygon fill="#63b8ff" stroke="#63b8ff" points="647.47,-135.43 638.28,-140.7 648.75,-142.31 647.47,-135.43"/>
</a>
</g>
</g>
<!-- Node3 -->
<g id="Node000003" class="node">
<title>Node3</title>
<g id="a_Node000003"><a xlink:title=" ">
<polygon fill="white" stroke="#666666" points="630.5,-116.5 529,-116.5 529,-86 630.5,-86 630.5,-116.5"/>
<text xml:space="preserve" text-anchor="start" x="537" y="-103" font-family="Helvetica,sans-Serif" font-size="10.00">std::vector&lt; fourdst</text>
<text xml:space="preserve" text-anchor="middle" x="579.75" y="-91.75" font-family="Helvetica,sans-Serif" font-size="10.00">::atomic::Species &gt;</text>
</a>
</g>
</g>
<!-- Node3&#45;&gt;Node1 -->
<g id="edge2_Node000001_Node000003" class="edge">
<title>Node3&#45;&gt;Node1</title>
<g id="a_edge2_Node000001_Node000003"><a xlink:title=" ">
<path fill="none" stroke="#9a32cd" stroke-dasharray="5,2" d="M642.26,-96.12C688.08,-92.3 749.92,-87.14 793.11,-83.54"/>
<polygon fill="#9a32cd" stroke="#9a32cd" points="642.16,-92.62 632.49,-96.93 642.74,-99.59 642.16,-92.62"/>
</a>
</g>
<text xml:space="preserve" text-anchor="middle" x="728" y="-94.62" font-family="Helvetica,sans-Serif" font-size="10.00" fill="grey"> m_species</text>
</g>
<!-- Node4 -->
<g id="Node000004" class="node">
<title>Node4</title>
<g id="a_Node000004"><a xlink:href="structfourdst_1_1atomic_1_1_species.html" target="_top" xlink:title="Represents an atomic species (isotope) with its fundamental physical properties.">
<polygon fill="white" stroke="#666666" points="418,-110.88 295.5,-110.88 295.5,-91.62 418,-91.62 418,-110.88"/>
<text xml:space="preserve" text-anchor="middle" x="356.75" y="-97.38" font-family="Helvetica,sans-Serif" font-size="10.00">fourdst::atomic::Species</text>
</a>
</g>
</g>
<!-- Node4&#45;&gt;Node3 -->
<g id="edge3_Node000003_Node000004" class="edge">
<title>Node4&#45;&gt;Node3</title>
<g id="a_edge3_Node000003_Node000004"><a xlink:title=" ">
<path fill="none" stroke="#9a32cd" stroke-dasharray="5,2" d="M429.64,-101.25C461.99,-101.25 499.39,-101.25 528.65,-101.25"/>
<polygon fill="#9a32cd" stroke="#9a32cd" points="429.95,-97.75 419.95,-101.25 429.95,-104.75 429.95,-97.75"/>
</a>
</g>
<text xml:space="preserve" text-anchor="middle" x="457.38" y="-103" font-family="Helvetica,sans-Serif" font-size="10.00" fill="grey"> elements</text>
</g>
<!-- Node5 -->
<g id="Node000005" class="node">
<title>Node5</title>
<g id="a_Node000005"><a xlink:title=" ">
<polygon fill="white" stroke="#666666" points="190.5,-110.88 131,-110.88 131,-91.62 190.5,-91.62 190.5,-110.88"/>
<text xml:space="preserve" text-anchor="middle" x="160.75" y="-97.38" font-family="Helvetica,sans-Serif" font-size="10.00">std::string</text>
</a>
</g>
</g>
<!-- Node5&#45;&gt;Node4 -->
<g id="edge4_Node000004_Node000005" class="edge">
<title>Node5&#45;&gt;Node4</title>
<g id="a_edge4_Node000004_Node000005"><a xlink:title=" ">
<path fill="none" stroke="#9a32cd" stroke-dasharray="5,2" d="M202.1,-101.25C229.01,-101.25 264.87,-101.25 295.18,-101.25"/>
<polygon fill="#9a32cd" stroke="#9a32cd" points="202.31,-97.75 192.31,-101.25 202.31,-104.75 202.31,-97.75"/>
</a>
</g>
<text xml:space="preserve" text-anchor="middle" x="243" y="-148" font-family="Helvetica,sans-Serif" font-size="10.00" fill="grey"> m_betaCode</text>
<text xml:space="preserve" text-anchor="middle" x="243" y="-136.75" font-family="Helvetica,sans-Serif" font-size="10.00" fill="grey">m_decayModes</text>
<text xml:space="preserve" text-anchor="middle" x="243" y="-125.5" font-family="Helvetica,sans-Serif" font-size="10.00" fill="grey">m_el</text>
<text xml:space="preserve" text-anchor="middle" x="243" y="-114.25" font-family="Helvetica,sans-Serif" font-size="10.00" fill="grey">m_name</text>
<text xml:space="preserve" text-anchor="middle" x="243" y="-103" font-family="Helvetica,sans-Serif" font-size="10.00" fill="grey">m_spinParity</text>
</g>
<!-- Node6 -->
<g id="Node000006" class="node">
<title>Node6</title>
<g id="a_Node000006"><a xlink:title=" ">
<polygon fill="white" stroke="#666666" points="94,-116.5 0,-116.5 0,-86 94,-86 94,-116.5"/>
<text xml:space="preserve" text-anchor="start" x="8" y="-103" font-family="Helvetica,sans-Serif" font-size="10.00">std::basic_string&lt;</text>
<text xml:space="preserve" text-anchor="middle" x="47" y="-91.75" font-family="Helvetica,sans-Serif" font-size="10.00"> Char &gt;</text>
</a>
</g>
</g>
<!-- Node6&#45;&gt;Node5 -->
<g id="edge5_Node000005_Node000006" class="edge">
<title>Node6&#45;&gt;Node5</title>
<g id="a_edge5_Node000005_Node000006"><a xlink:title=" ">
<path fill="none" stroke="#63b8ff" d="M105.71,-101.25C114.32,-101.25 122.87,-101.25 130.55,-101.25"/>
<polygon fill="#63b8ff" stroke="#63b8ff" points="105.93,-97.75 95.93,-101.25 105.93,-104.75 105.93,-97.75"/>
</a>
</g>
</g>
<!-- Node7 -->
<g id="Node000007" class="node">
<title>Node7</title>
<g id="a_Node000007"><a xlink:title=" ">
<polygon fill="white" stroke="#666666" points="634.25,-67.88 525.25,-67.88 525.25,-48.62 634.25,-48.62 634.25,-67.88"/>
<text xml:space="preserve" text-anchor="middle" x="579.75" y="-54.38" font-family="Helvetica,sans-Serif" font-size="10.00">std::vector&lt; double &gt;</text>
</a>
</g>
</g>
<!-- Node7&#45;&gt;Node1 -->
<g id="edge6_Node000001_Node000007" class="edge">
<title>Node7&#45;&gt;Node1</title>
<g id="a_edge6_Node000001_Node000007"><a xlink:title=" ">
<path fill="none" stroke="#9a32cd" stroke-dasharray="5,2" d="M646.01,-57.14C683.88,-57.26 732.41,-58.7 775.25,-64 780.99,-64.71 786.96,-65.67 792.88,-66.77"/>
<polygon fill="#9a32cd" stroke="#9a32cd" points="646.13,-53.64 636.13,-57.15 646.13,-60.64 646.13,-53.64"/>
</a>
</g>
<text xml:space="preserve" text-anchor="middle" x="728" y="-65.75" font-family="Helvetica,sans-Serif" font-size="10.00" fill="grey"> m_molarAbundances</text>
</g>
<!-- Node8 -->
<g id="Node000008" class="node">
<title>Node8</title>
<g id="a_Node000008"><a xlink:href="structfourdst_1_1composition_1_1_composition_1_1_composition_cache.html" target="_top" xlink:title="Caches computed properties of the composition to avoid redundant calculations.">
<polygon fill="white" stroke="#666666" points="662.75,-30.5 496.75,-30.5 496.75,0 662.75,0 662.75,-30.5"/>
<text xml:space="preserve" text-anchor="start" x="504.75" y="-17" font-family="Helvetica,sans-Serif" font-size="10.00">fourdst::composition</text>
<text xml:space="preserve" text-anchor="middle" x="579.75" y="-5.75" font-family="Helvetica,sans-Serif" font-size="10.00">::Composition::CompositionCache</text>
</a>
</g>
</g>
<!-- Node8&#45;&gt;Node1 -->
<g id="edge7_Node000001_Node000008" class="edge">
<title>Node8&#45;&gt;Node1</title>
<g id="a_edge7_Node000001_Node000008"><a xlink:title=" ">
<path fill="none" stroke="#9a32cd" stroke-dasharray="5,2" d="M674.44,-21.31C706.92,-25.19 743.22,-31.56 775.25,-42 791.08,-47.16 807.55,-55.86 820.46,-63.56"/>
<polygon fill="#9a32cd" stroke="#9a32cd" points="674.95,-17.85 664.62,-20.21 674.17,-24.8 674.95,-17.85"/>
</a>
</g>
<text xml:space="preserve" text-anchor="middle" x="728" y="-43.75" font-family="Helvetica,sans-Serif" font-size="10.00" fill="grey"> m_cache</text>
</g>
</g>
</svg>

<g id="navigator" transform="translate(0 0)" fill="#404254">
  <rect fill="#f2f5e9" fill-opacity="0.5" stroke="#606060" stroke-width=".5" x="0" y="0" width="60" height="60"/>
  <use id="zoomplus" xlink:href="#zoomPlus" x="17" y="9" onmousedown="handleZoom(evt,'in')"/>
  <use id="zoomminus" xlink:href="#zoomMin" x="42" y="9" onmousedown="handleZoom(evt,'out')"/>
  <use id="reset" xlink:href="#resetDef" x="30" y="36" onmousedown="handleReset()"/>
   <use id="arrowup" xlink:href="#arrowUp" x="0" y="0" onmousedown="handlePan(0,-1)"/>
  <use id="arrowright" xlink:href="#arrowRight" x="0" y="0" onmousedown="handlePan(1,0)"/>
  <use id="arrowdown" xlink:href="#arrowDown" x="0" y="0" onmousedown="handlePan(0,1)"/>
  <use id="arrowleft" xlink:href="#arrowLeft" x="0" y="0" onmousedown="handlePan(-1,0)"/>
</g>
<svg viewBox="0 0 15 15" width="100%" height="30px" preserveAspectRatio="xMaxYMin meet">
 <g id="arrow_out" transform="scale(0.3 0.3)">
  <a xlink:href="classfourdst_1_1composition_1_1_composition__coll__graph_org.svg" target="_base">
   <rect id="button" ry="5" rx="5" y="6" x="6" height="38" width="38"
        fill="#f2f5e9" fill-opacity="0.5" stroke="#606060" stroke-width="1.0"/>
   <path id="arrow"
     d="M 11.500037,31.436501 C 11.940474,20.09759 22.043105,11.32322 32.158766,21.979434 L 37.068811,17.246167 C 37.068811,17.246167 37.088388,32 37.088388,32 L 22.160133,31.978069 C 22.160133,31.978069 26.997745,27.140456 26.997745,27.140456 C 18.528582,18.264221 13.291696,25.230495 11.500037,31.436501 z"
     style="fill:#404040;"/>
  </a>
 </g>
</svg>

<style type='text/css'>
<![CDATA[
[data-mouse-over-selected='false'] { opacity: 0.7; }
[data-mouse-over-selected='true']  { opacity: 1.0; }
]]>
</style>
<script type="application/ecmascript"><![CDATA[
document.addEventListener('DOMContentLoaded', (event) => {
  highlightEdges();
  highlightAdjacentNodes();
});
]]></script>
</svg>
