<?xml version="1.0" encoding="UTF-8" standalone="no"?>
<!DOCTYPE svg PUBLIC "-//W3C//DTD SVG 1.1//EN"
 "http://www.w3.org/Graphics/SVG/1.1/DTD/svg11.dtd">
<!-- Generated by graphviz version 14.1.2 (20260124.0452)
 -->
<!-- Title: fourdst::composition::CompositionDecorator Pages: 1 -->
<svg width="604pt" height="65pt"
 viewBox="0.00 0.00 604.00 65.00" xmlns="http://www.w3.org/2000/svg" xmlns:xlink="http://www.w3.org/1999/xlink">
<g id="graph0" class="graph" transform="scale(1 1) rotate(0) translate(4 60.5)">
<title>fourdst::composition::CompositionDecorator</title>
<!-- Node1 -->
<g id="Node000001" class="node">
<title>Node1</title>
<g id="a_Node000001"><a xlink:title=" ">
<polygon fill="#999999" stroke="#666666" points="595.5,-56.5 476,-56.5 476,-26 595.5,-26 595.5,-56.5"/>
<text xml:space="preserve" text-anchor="start" x="484" y="-43" font-family="Helvetica,sans-Serif" font-size="10.00">fourdst::composition</text>
<text xml:space="preserve" text-anchor="middle" x="535.75" y="-31.75" font-family="Helvetica,sans-Serif" font-size="10.00">::CompositionDecorator</text>
</a>
</g>
</g>
<!-- Node2 -->
<g id="Node000002" class="node">
<title>Node2</title>
<g id="a_Node000002"><a xlink:href="classfourdst_1_1composition_1_1_composition_abstract.html" target="_top" xlink:title="Abstract base class for chemical composition representations.">
<polygon fill="white" stroke="#666666" points="113.5,-52.5 0,-52.5 0,-22 113.5,-22 113.5,-52.5"/>
<text xml:space="preserve" text-anchor="start" x="8" y="-39" font-family="Helvetica,sans-Serif" font-size="10.00">fourdst::composition</text>
<text xml:space="preserve" text-anchor="middle" x="56.75" y="-27.75" font-family="Helvetica,sans-Serif" font-size="10.00">::CompositionAbstract</text>
</a>
</g>
</g>
<!-- Node2&#45;&gt;Node1 -->
<g id="edge1_Node000001_Node000002" class="edge">
<title>Node2&#45;&gt;Node1</title>
<g id="a_edge1_Node000001_Node000002"><a xlink:title=" ">
<path fill="none" stroke="#63b8ff" d="M124.91,-43.89C127.13,-44.03 129.33,-44.15 131.5,-44.25 276.45,-51.11 312.92,-47.08 458,-44.25 463.73,-44.14 469.71,-43.98 475.67,-43.79"/>
<polygon fill="#63b8ff" stroke="#63b8ff" points="125.41,-40.42 115.19,-43.22 124.93,-47.4 125.41,-40.42"/>
</a>
</g>
</g>
<!-- Node3 -->
<g id="Node000003" class="node">
<title>Node3</title>
<g id="a_Node000003"><a xlink:title=" ">
<polygon fill="white" stroke="#666666" points="344.75,-30.5 163.75,-30.5 163.75,0 344.75,0 344.75,-30.5"/>
<text xml:space="preserve" text-anchor="start" x="171.75" y="-17" font-family="Helvetica,sans-Serif" font-size="10.00">std::unique_ptr&lt; fourdst</text>
<text xml:space="preserve" text-anchor="middle" x="254.25" y="-5.75" font-family="Helvetica,sans-Serif" font-size="10.00">::composition::CompositionAbstract &gt;</text>
</a>
</g>
</g>
<!-- Node2&#45;&gt;Node3 -->
<g id="edge3_Node000003_Node000002" class="edge">
<title>Node2&#45;&gt;Node3</title>
<g id="a_edge3_Node000003_Node000002"><a xlink:title=" ">
<path fill="none" stroke="#9a32cd" stroke-dasharray="5,2" d="M124.9,-29.69C137.26,-28.3 150.35,-26.83 163.26,-25.38"/>
<polygon fill="#9a32cd" stroke="#9a32cd" points="124.82,-26.18 115.28,-30.78 125.61,-33.14 124.82,-26.18"/>
</a>
</g>
<text xml:space="preserve" text-anchor="middle" x="138.62" y="-30.62" font-family="Helvetica,sans-Serif" font-size="10.00" fill="grey"> ptr</text>
</g>
<!-- Node3&#45;&gt;Node1 -->
<g id="edge2_Node000001_Node000003" class="edge">
<title>Node3&#45;&gt;Node1</title>
<g id="a_edge2_Node000001_Node000003"><a xlink:title=" ">
<path fill="none" stroke="#9a32cd" stroke-dasharray="5,2" d="M356.43,-23.71C388.88,-26.53 424.97,-29.78 458,-33 463.74,-33.56 469.71,-34.16 475.68,-34.78"/>
<polygon fill="#9a32cd" stroke="#9a32cd" points="356.89,-20.24 346.62,-22.86 356.28,-27.21 356.89,-20.24"/>
</a>
</g>
<text xml:space="preserve" text-anchor="middle" x="410.38" y="-34.75" font-family="Helvetica,sans-Serif" font-size="10.00" fill="grey"> m_base_composition</text>
</g>
</g>
</svg>
