<?xml version="1.0" encoding="UTF-8" standalone="no"?>
<!DOCTYPE svg PUBLIC "-//W3C//DTD SVG 1.1//EN"
 "http://www.w3.org/Graphics/SVG/1.1/DTD/svg11.dtd">
<!-- Generated by graphviz version 13.0.1 (20250615.1724)
 -->
<!-- Title: fourdst::composition::exceptions::CompositionError Pages: 1 -->
<svg width="472pt" height="110pt"
 viewBox="0.00 0.00 472.00 110.00" xmlns="http://www.w3.org/2000/svg" xmlns:xlink="http://www.w3.org/1999/xlink">
<g id="graph0" class="graph" transform="scale(1 1) rotate(0) translate(4 105.75)">
<title>fourdst::composition::exceptions::CompositionError</title>
<!-- Node1 -->
<g id="Node000001" class="node">
<title>Node1</title>
<g id="a_Node000001"><a xlink:title="Base class for exceptions related to composition objects.">
<polygon fill="#999999" stroke="#666666" points="264.5,-66.12 113.5,-66.12 113.5,-35.62 264.5,-35.62 264.5,-66.12"/>
<text xml:space="preserve" text-anchor="start" x="121.5" y="-52.62" font-family="Helvetica,sans-Serif" font-size="10.00">fourdst::composition</text>
<text xml:space="preserve" text-anchor="middle" x="189" y="-41.38" font-family="Helvetica,sans-Serif" font-size="10.00">::exceptions::CompositionError</text>
</a>
</g>
</g>
<!-- Node3 -->
<g id="Node000003" class="node">
<title>Node3</title>
<g id="a_Node000003"><a xlink:href="classfourdst_1_1composition_1_1exceptions_1_1_invalid_composition_error.html" target="_top" xlink:title="Exception thrown when a composition is in an invalid or inconsistent state.">
<polygon fill="white" stroke="#666666" points="461.62,-101.75 303.12,-101.75 303.12,-60 461.62,-60 461.62,-101.75"/>
<text xml:space="preserve" text-anchor="start" x="311.12" y="-88.25" font-family="Helvetica,sans-Serif" font-size="10.00">fourdst::composition</text>
<text xml:space="preserve" text-anchor="start" x="311.12" y="-77" font-family="Helvetica,sans-Serif" font-size="10.00">::exceptions::InvalidComposition</text>
<text xml:space="preserve" text-anchor="middle" x="382.38" y="-65.75" font-family="Helvetica,sans-Serif" font-size="10.00">Error</text>
</a>
</g>
</g>
<!-- Node1&#45;&gt;Node3 -->
<g id="edge2_Node000001_Node000003" class="edge">
<title>Node1&#45;&gt;Node3</title>
<g id="a_edge2_Node000001_Node000003"><a xlink:title=" ">
<path fill="none" stroke="#63b8ff" d="M276.03,-64.36C284.95,-65.76 293.99,-67.18 302.83,-68.56"/>
<polygon fill="#63b8ff" stroke="#63b8ff" points="276.73,-60.93 266.31,-62.84 275.65,-67.84 276.73,-60.93"/>
</a>
</g>
</g>
<!-- Node4 -->
<g id="Node000004" class="node">
<title>Node4</title>
<g id="a_Node000004"><a xlink:href="classfourdst_1_1composition_1_1exceptions_1_1_unregistered_symbol_error.html" target="_top" xlink:title="Exception thrown when a symbol is used that has not been registered.">
<polygon fill="white" stroke="#666666" points="464.25,-41.75 300.5,-41.75 300.5,0 464.25,0 464.25,-41.75"/>
<text xml:space="preserve" text-anchor="start" x="308.5" y="-28.25" font-family="Helvetica,sans-Serif" font-size="10.00">fourdst::composition</text>
<text xml:space="preserve" text-anchor="start" x="308.5" y="-17" font-family="Helvetica,sans-Serif" font-size="10.00">::exceptions::UnregisteredSymbol</text>
<text xml:space="preserve" text-anchor="middle" x="382.38" y="-5.75" font-family="Helvetica,sans-Serif" font-size="10.00">Error</text>
</a>
</g>
</g>
<!-- Node1&#45;&gt;Node4 -->
<g id="edge3_Node000001_Node000004" class="edge">
<title>Node1&#45;&gt;Node4</title>
<g id="a_edge3_Node000001_Node000004"><a xlink:title=" ">
<path fill="none" stroke="#63b8ff" d="M276.1,-37.38C284.15,-36.12 292.29,-34.84 300.29,-33.59"/>
<polygon fill="#63b8ff" stroke="#63b8ff" points="275.65,-33.91 266.31,-38.91 276.73,-40.82 275.65,-33.91"/>
</a>
</g>
</g>
<!-- Node2 -->
<g id="Node000002" class="node">
<title>Node2</title>
<g id="a_Node000002"><a xlink:title=" ">
<polygon fill="white" stroke="#666666" points="77.5,-60.5 0,-60.5 0,-41.25 77.5,-41.25 77.5,-60.5"/>
<text xml:space="preserve" text-anchor="middle" x="38.75" y="-47" font-family="Helvetica,sans-Serif" font-size="10.00">std::exception</text>
</a>
</g>
</g>
<!-- Node2&#45;&gt;Node1 -->
<g id="edge1_Node000001_Node000002" class="edge">
<title>Node2&#45;&gt;Node1</title>
<g id="a_edge1_Node000001_Node000002"><a xlink:title=" ">
<path fill="none" stroke="#63b8ff" d="M89.23,-50.88C96.91,-50.88 104.99,-50.88 113.08,-50.88"/>
<polygon fill="#63b8ff" stroke="#63b8ff" points="89.44,-47.38 79.44,-50.88 89.44,-54.38 89.44,-47.38"/>
</a>
</g>
</g>
</g>
</svg>
