<?xml version="1.0" encoding="UTF-8" standalone="no"?>
<!DOCTYPE svg PUBLIC "-//W3C//DTD SVG 1.1//EN"
 "http://www.w3.org/Graphics/SVG/1.1/DTD/svg11.dtd">
<!-- Generated by graphviz version 14.1.2 (20260124.0452)
 -->
<!-- Title: fourdst::composition::CompositionAbstract Pages: 1 -->
<svg width="250pt" height="172pt"
 viewBox="0.00 0.00 250.00 172.00" xmlns="http://www.w3.org/2000/svg" xmlns:xlink="http://www.w3.org/1999/xlink">
<g id="graph0" class="graph" transform="scale(1 1) rotate(0) translate(4 167.5)">
<title>fourdst::composition::CompositionAbstract</title>
<!-- Node1 -->
<g id="Node000001" class="node">
<title>Node1</title>
<g id="a_Node000001"><a xlink:title="Abstract base class for chemical composition representations.">
<polygon fill="#999999" stroke="#666666" points="174,-163.5 60.5,-163.5 60.5,-133 174,-133 174,-163.5"/>
<text xml:space="preserve" text-anchor="start" x="68.5" y="-150" font-family="Helvetica,sans-Serif" font-size="10.00">fourdst::composition</text>
<text xml:space="preserve" text-anchor="middle" x="117.25" y="-138.75" font-family="Helvetica,sans-Serif" font-size="10.00">::CompositionAbstract</text>
</a>
</g>
</g>
<!-- Node2 -->
<g id="Node000002" class="node">
<title>Node2</title>
<g id="a_Node000002"><a xlink:href="classfourdst_1_1composition_1_1_composition.html" target="_top" xlink:title="Manages a collection of chemical species and their abundances.">
<polygon fill="white" stroke="#666666" points="104.5,-97 0,-97 0,-66.5 104.5,-66.5 104.5,-97"/>
<text xml:space="preserve" text-anchor="start" x="8" y="-83.5" font-family="Helvetica,sans-Serif" font-size="10.00">fourdst::composition</text>
<text xml:space="preserve" text-anchor="middle" x="52.25" y="-72.25" font-family="Helvetica,sans-Serif" font-size="10.00">::Composition</text>
</a>
</g>
</g>
<!-- Node1&#45;&gt;Node2 -->
<g id="edge1_Node000001_Node000002" class="edge">
<title>Node1&#45;&gt;Node2</title>
<g id="a_edge1_Node000001_Node000002"><a xlink:title=" ">
<path fill="none" stroke="#63b8ff" d="M94.51,-124.69C85.36,-115.61 75.08,-105.4 66.94,-97.33"/>
<polygon fill="#63b8ff" stroke="#63b8ff" points="91.86,-126.99 101.43,-131.55 96.79,-122.02 91.86,-126.99"/>
</a>
</g>
</g>
<!-- Node3 -->
<g id="Node000003" class="node">
<title>Node3</title>
<g id="a_Node000003"><a xlink:href="classfourdst_1_1composition_1_1_composition_decorator.html" target="_top" xlink:title=" ">
<polygon fill="white" stroke="#666666" points="242,-97 122.5,-97 122.5,-66.5 242,-66.5 242,-97"/>
<text xml:space="preserve" text-anchor="start" x="130.5" y="-83.5" font-family="Helvetica,sans-Serif" font-size="10.00">fourdst::composition</text>
<text xml:space="preserve" text-anchor="middle" x="182.25" y="-72.25" font-family="Helvetica,sans-Serif" font-size="10.00">::CompositionDecorator</text>
</a>
</g>
</g>
<!-- Node1&#45;&gt;Node3 -->
<g id="edge2_Node000001_Node000003" class="edge">
<title>Node1&#45;&gt;Node3</title>
<g id="a_edge2_Node000001_Node000003"><a xlink:title=" ">
<path fill="none" stroke="#63b8ff" d="M139.99,-124.69C149.14,-115.61 159.42,-105.4 167.56,-97.33"/>
<polygon fill="#63b8ff" stroke="#63b8ff" points="137.71,-122.02 133.07,-131.55 142.64,-126.99 137.71,-122.02"/>
</a>
</g>
</g>
<!-- Node4 -->
<g id="Node000004" class="node">
<title>Node4</title>
<g id="a_Node000004"><a xlink:href="classfourdst_1_1composition_1_1_masked_composition.html" target="_top" xlink:title=" ">
<polygon fill="white" stroke="#666666" points="237.88,-30.5 126.62,-30.5 126.62,0 237.88,0 237.88,-30.5"/>
<text xml:space="preserve" text-anchor="start" x="134.62" y="-17" font-family="Helvetica,sans-Serif" font-size="10.00">fourdst::composition</text>
<text xml:space="preserve" text-anchor="middle" x="182.25" y="-5.75" font-family="Helvetica,sans-Serif" font-size="10.00">::MaskedComposition</text>
</a>
</g>
</g>
<!-- Node3&#45;&gt;Node4 -->
<g id="edge3_Node000003_Node000004" class="edge">
<title>Node3&#45;&gt;Node4</title>
<g id="a_edge3_Node000003_Node000004"><a xlink:title=" ">
<path fill="none" stroke="#63b8ff" d="M182.25,-54.81C182.25,-46.64 182.25,-37.91 182.25,-30.83"/>
<polygon fill="#63b8ff" stroke="#63b8ff" points="178.75,-54.6 182.25,-64.6 185.75,-54.6 178.75,-54.6"/>
</a>
</g>
</g>
</g>
</svg>
