<?xml version="1.0" encoding="UTF-8" standalone="no"?>
<!DOCTYPE svg PUBLIC "-//W3C//DTD SVG 1.1//EN"
 "http://www.w3.org/Graphics/SVG/1.1/DTD/svg11.dtd">
<!-- Generated by graphviz version 14.1.2 (20260124.0452)
 -->
<!-- Title: src/composition/include/fourdst/composition/composition.h Pages: 1 -->
<!--zoomable 293 -->

<svg id="main" version="1.1" xmlns="http://www.w3.org/2000/svg" xmlns:xlink="http://www.w3.org/1999/xlink" xml:space="preserve" onload="init(evt)">

<style type="text/css"><![CDATA[
.node, .edge {opacity: 0.7;}
.node.selected, .edge.selected {opacity: 1;}
.edge:hover path { stroke: red; }
.edge:hover polygon { stroke: red; fill: red; }
]]></style>

<defs>
  <circle id="rim" cx="0" cy="0" r="7"/>
  <circle id="rim2" cx="0" cy="0" r="3.5"/>
  <g id="zoomPlus">
    <use xlink:href="#rim" fill="#404040"><set attributeName="fill" to="#808080" begin="zoomplus.mouseover" end="zoomplus.mouseout"/></use>
    <path d="M-4,0h8M0,-4v8" fill="none" stroke="white" stroke-width="1.5" pointer-events="none"/>
  </g>
  <g id="zoomMin">
    <use xlink:href="#rim" fill="#404040"><set attributeName="fill" to="#808080" begin="zoomminus.mouseover" end="zoomminus.mouseout"/></use>
    <path d="M-4,0h8" fill="none" stroke="white" stroke-width="1.5" pointer-events="none"/>
  </g>
  <g id="arrowUp" transform="translate(30 24)">
    <use xlink:href="#rim"/>
    <path pointer-events="none" fill="none" stroke="white" stroke-width="1.5" d="M0,-3.0v7 M-2.5,-0.5L0,-3.0L2.5,-0.5"/>
  </g>
  <g id="arrowRight" transform="rotate(90) translate(36 -43)">
    <use xlink:href="#rim"/>
    <path pointer-events="none" fill="none" stroke="white" stroke-width="1.5" d="M0,-3.0v7 M-2.5,-0.5L0,-3.0L2.5,-0.5"/>
  </g>
  <g id="arrowDown" transform="rotate(180) translate(-30 -48)">
    <use xlink:href="#rim"/>
    <path pointer-events="none" fill="none" stroke="white" stroke-width="1.5" d="M0,-3.0v7 M-2.5,-0.5L0,-3.0L2.5,-0.5"/>
  </g>
  <g id="arrowLeft" transform="rotate(270) translate(-36 17)">
    <use xlink:href="#rim"/>
    <path pointer-events="none" fill="none" stroke="white" stroke-width="1.5" d="M0,-3.0v7 M-2.5,-0.5L0,-3.0L2.5,-0.5"/>
  </g>
  <g id="resetDef">
    <use xlink:href="#rim2" fill="#404040"><set attributeName="fill" to="#808080" begin="reset.mouseover" end="reset.mouseout"/></use>
  </g>
</defs>
<script type="application/ecmascript">
var viewWidth = 1200;
var viewHeight = 293;
var sectionId = 'dynsection-0';
</script>
<script type="application/ecmascript" xlink:href="svg.min.js"/>
<svg id="graph" class="graph">
<g id="viewport">
<title>src/composition/include/fourdst/composition/composition.h</title>
<!-- Node1 -->
<g id="Node000001" class="node">
<title>Node1</title>
<g id="a_Node000001"><a xlink:title=" ">
<polygon fill="#999999" stroke="#666666" points="806.75,-285.25 638.5,-285.25 638.5,-254.75 806.75,-254.75 806.75,-285.25"/>
<text xml:space="preserve" text-anchor="start" x="646.5" y="-271.75" font-family="Helvetica,sans-Serif" font-size="10.00">src/composition/include</text>
<text xml:space="preserve" text-anchor="middle" x="722.62" y="-260.5" font-family="Helvetica,sans-Serif" font-size="10.00">/fourdst/composition/composition.h</text>
</a>
</g>
</g>
<!-- Node2 -->
<g id="Node000002" class="node">
<title>Node2</title>
<g id="a_Node000002"><a xlink:title=" ">
<polygon fill="#e0e0e0" stroke="#999999" points="319.62,-19.25 279.62,-19.25 279.62,0 319.62,0 319.62,-19.25"/>
<text xml:space="preserve" text-anchor="middle" x="299.62" y="-5.75" font-family="Helvetica,sans-Serif" font-size="10.00">string</text>
</a>
</g>
</g>
<!-- Node1&#45;&gt;Node2 -->
<g id="edge1_Node000001_Node000002" class="edge">
<title>Node1&#45;&gt;Node2</title>
<g id="a_edge1_Node000001_Node000002"><a xlink:title=" ">
<path fill="none" stroke="#63b8ff" d="M638.15,-255.99C529.78,-237.58 350.42,-200.68 305.62,-152.25 275.32,-119.48 270.29,-98.9 279.62,-55.25 281.51,-46.44 285.27,-37.26 289.03,-29.54"/>
<polygon fill="#63b8ff" stroke="#63b8ff" points="292.06,-31.29 293.61,-20.81 285.86,-28.04 292.06,-31.29"/>
</a>
</g>
</g>
<!-- Node3 -->
<g id="Node000003" class="node">
<title>Node3</title>
<g id="a_Node000003"><a xlink:title=" ">
<polygon fill="#e0e0e0" stroke="#999999" points="671,-141 588.25,-141 588.25,-121.75 671,-121.75 671,-141"/>
<text xml:space="preserve" text-anchor="middle" x="629.62" y="-127.5" font-family="Helvetica,sans-Serif" font-size="10.00">unordered_map</text>
</a>
</g>
</g>
<!-- Node1&#45;&gt;Node3 -->
<g id="edge2_Node000001_Node000003" class="edge">
<title>Node1&#45;&gt;Node3</title>
<g id="a_edge2_Node000001_Node000003"><a xlink:title=" ">
<path fill="none" stroke="#63b8ff" d="M712.67,-254.38C695.55,-229.23 660.58,-177.85 641.95,-150.48"/>
<polygon fill="#63b8ff" stroke="#63b8ff" points="645.05,-148.82 636.53,-142.52 639.27,-152.76 645.05,-148.82"/>
</a>
</g>
</g>
<!-- Node4 -->
<g id="Node000004" class="node">
<title>Node4</title>
<g id="a_Node000004"><a xlink:title=" ">
<polygon fill="#e0e0e0" stroke="#999999" points="718.38,-141 688.88,-141 688.88,-121.75 718.38,-121.75 718.38,-141"/>
<text xml:space="preserve" text-anchor="middle" x="703.62" y="-127.5" font-family="Helvetica,sans-Serif" font-size="10.00">set</text>
</a>
</g>
</g>
<!-- Node1&#45;&gt;Node4 -->
<g id="edge3_Node000001_Node000004" class="edge">
<title>Node1&#45;&gt;Node4</title>
<g id="a_edge3_Node000001_Node000004"><a xlink:title=" ">
<path fill="none" stroke="#63b8ff" d="M720.59,-254.38C717.17,-229.78 710.26,-180.11 706.4,-152.33"/>
<polygon fill="#63b8ff" stroke="#63b8ff" points="709.92,-152.2 705.07,-142.77 702.98,-153.16 709.92,-152.2"/>
</a>
</g>
</g>
<!-- Node5 -->
<g id="Node000005" class="node">
<title>Node5</title>
<g id="a_Node000005"><a xlink:title=" ">
<polygon fill="#e0e0e0" stroke="#999999" points="575.5,-19.25 525.75,-19.25 525.75,0 575.5,0 575.5,-19.25"/>
<text xml:space="preserve" text-anchor="middle" x="550.62" y="-5.75" font-family="Helvetica,sans-Serif" font-size="10.00">optional</text>
</a>
</g>
</g>
<!-- Node1&#45;&gt;Node5 -->
<g id="edge4_Node000001_Node000005" class="edge">
<title>Node1&#45;&gt;Node5</title>
<g id="a_edge4_Node000001_Node000005"><a xlink:title=" ">
<path fill="none" stroke="#63b8ff" d="M727.8,-254.64C737.45,-225.25 754.84,-157.1 727.62,-110.5 697.39,-58.73 629.31,-31.68 586.95,-19.35"/>
<polygon fill="#63b8ff" stroke="#63b8ff" points="588.02,-16.01 577.45,-16.72 586.16,-22.76 588.02,-16.01"/>
</a>
</g>
</g>
<!-- Node6 -->
<g id="Node000006" class="node">
<title>Node6</title>
<g id="a_Node000006"><a xlink:title=" ">
<polygon fill="#e0e0e0" stroke="#999999" points="847.38,-213.12 769.88,-213.12 769.88,-193.88 847.38,-193.88 847.38,-213.12"/>
<text xml:space="preserve" text-anchor="middle" x="808.62" y="-199.62" font-family="Helvetica,sans-Serif" font-size="10.00">unordered_set</text>
</a>
</g>
</g>
<!-- Node1&#45;&gt;Node6 -->
<g id="edge5_Node000001_Node000006" class="edge">
<title>Node1&#45;&gt;Node6</title>
<g id="a_edge5_Node000001_Node000006"><a xlink:title=" ">
<path fill="none" stroke="#63b8ff" d="M742.14,-254.36C755.83,-244.1 774.1,-230.39 788.03,-219.95"/>
<polygon fill="#63b8ff" stroke="#63b8ff" points="789.75,-223.03 795.65,-214.23 785.55,-217.43 789.75,-223.03"/>
</a>
</g>
</g>
<!-- Node7 -->
<g id="Node000007" class="node">
<title>Node7</title>
<g id="a_Node000007"><a xlink:title=" ">
<polygon fill="#e0e0e0" stroke="#999999" points="921.5,-213.12 865.75,-213.12 865.75,-193.88 921.5,-193.88 921.5,-213.12"/>
<text xml:space="preserve" text-anchor="middle" x="893.62" y="-199.62" font-family="Helvetica,sans-Serif" font-size="10.00">expected</text>
</a>
</g>
</g>
<!-- Node1&#45;&gt;Node7 -->
<g id="edge6_Node000001_Node000007" class="edge">
<title>Node1&#45;&gt;Node7</title>
<g id="a_edge6_Node000001_Node000007"><a xlink:title=" ">
<path fill="none" stroke="#63b8ff" d="M762.24,-254.25C788.93,-244.28 824.92,-230.8 856.62,-218.75 857.58,-218.39 858.55,-218.02 859.53,-217.64"/>
<polygon fill="#63b8ff" stroke="#63b8ff" points="860.65,-220.96 868.74,-214.12 858.15,-214.43 860.65,-220.96"/>
</a>
</g>
</g>
<!-- Node8 -->
<g id="Node000008" class="node">
<title>Node8</title>
<g id="a_Node000008"><a xlink:title=" ">
<polygon fill="#e0e0e0" stroke="#999999" points="1052,-213.12 939.25,-213.12 939.25,-193.88 1052,-193.88 1052,-213.12"/>
<text xml:space="preserve" text-anchor="middle" x="995.62" y="-199.62" font-family="Helvetica,sans-Serif" font-size="10.00">fourdst/config/config.h</text>
</a>
</g>
</g>
<!-- Node1&#45;&gt;Node8 -->
<g id="edge7_Node000001_Node000008" class="edge">
<title>Node1&#45;&gt;Node8</title>
<g id="a_edge7_Node000001_Node000008"><a xlink:title=" ">
<path fill="none" stroke="#63b8ff" d="M784.91,-254.28C833.8,-242.73 900.94,-226.87 946.18,-216.18"/>
<polygon fill="#63b8ff" stroke="#63b8ff" points="946.79,-219.63 955.72,-213.93 945.18,-212.82 946.79,-219.63"/>
</a>
</g>
</g>
<!-- Node9 -->
<g id="Node000009" class="node">
<title>Node9</title>
<g id="a_Node000009"><a xlink:title=" ">
<polygon fill="#e0e0e0" stroke="#999999" points="1191.5,-213.12 1069.75,-213.12 1069.75,-193.88 1191.5,-193.88 1191.5,-213.12"/>
<text xml:space="preserve" text-anchor="middle" x="1130.62" y="-199.62" font-family="Helvetica,sans-Serif" font-size="10.00">fourdst/logging/logging.h</text>
</a>
</g>
</g>
<!-- Node1&#45;&gt;Node9 -->
<g id="edge8_Node000001_Node000009" class="edge">
<title>Node1&#45;&gt;Node9</title>
<g id="a_edge8_Node000001_Node000009"><a xlink:title=" ">
<path fill="none" stroke="#63b8ff" d="M807.21,-257.7C875.7,-248.24 974.59,-233.89 1060.62,-218.75 1065.85,-217.83 1071.28,-216.82 1076.7,-215.78"/>
<polygon fill="#63b8ff" stroke="#63b8ff" points="1077.13,-219.26 1086.27,-213.9 1075.78,-212.39 1077.13,-219.26"/>
</a>
</g>
</g>
<!-- Node10 -->
<g id="Node000010" class="node">
<title>Node10</title>
<g id="a_Node000010"><a xlink:href="composition__abstract_8h.html" target="_top" xlink:title=" ">
<polygon fill="white" stroke="#666666" points="591.75,-218.75 471.5,-218.75 471.5,-188.25 591.75,-188.25 591.75,-218.75"/>
<text xml:space="preserve" text-anchor="start" x="479.5" y="-205.25" font-family="Helvetica,sans-Serif" font-size="10.00">fourdst/composition</text>
<text xml:space="preserve" text-anchor="middle" x="531.62" y="-194" font-family="Helvetica,sans-Serif" font-size="10.00">/composition_abstract.h</text>
</a>
</g>
</g>
<!-- Node1&#45;&gt;Node10 -->
<g id="edge9_Node000001_Node000010" class="edge">
<title>Node1&#45;&gt;Node10</title>
<g id="a_edge9_Node000001_Node000010"><a xlink:title=" ">
<path fill="none" stroke="#63b8ff" d="M679.28,-254.36C651.54,-245 615.33,-232.77 585.71,-222.76"/>
<polygon fill="#63b8ff" stroke="#63b8ff" points="587.15,-219.56 576.56,-219.67 584.91,-226.19 587.15,-219.56"/>
</a>
</g>
</g>
<!-- Node11 -->
<g id="Node000011" class="node">
<title>Node11</title>
<g id="a_Node000011"><a xlink:href="atomic_species_8h.html" target="_top" xlink:title=" ">
<polygon fill="white" stroke="#666666" points="232.62,-74.5 78.62,-74.5 78.62,-55.25 232.62,-55.25 232.62,-74.5"/>
<text xml:space="preserve" text-anchor="middle" x="155.62" y="-61" font-family="Helvetica,sans-Serif" font-size="10.00">fourdst/atomic/atomicSpecies.h</text>
</a>
</g>
</g>
<!-- Node1&#45;&gt;Node11 -->
<g id="edge28_Node000001_Node000011" class="edge">
<title>Node1&#45;&gt;Node11</title>
<g id="a_edge28_Node000001_Node000011"><a xlink:title=" ">
<path fill="none" stroke="#63b8ff" d="M638.16,-269.77C516.19,-269.31 298.36,-262.19 234.62,-218.75 188.22,-187.12 167.37,-119.51 159.56,-85.82"/>
<polygon fill="#63b8ff" stroke="#63b8ff" points="163.02,-85.24 157.5,-76.19 156.17,-86.7 163.02,-85.24"/>
</a>
</g>
</g>
<!-- Node10&#45;&gt;Node2 -->
<g id="edge23_Node000010_Node000002" class="edge">
<title>Node10&#45;&gt;Node2</title>
<g id="a_edge23_Node000010_Node000002"><a xlink:title=" ">
<path fill="none" stroke="#63b8ff" d="M538.06,-187.94C549.76,-158.98 570.51,-93.64 538.62,-55.25 512.57,-23.88 389.73,-14.45 331.02,-11.7"/>
<polygon fill="#63b8ff" stroke="#63b8ff" points="331.51,-8.22 321.37,-11.29 331.21,-15.21 331.51,-8.22"/>
</a>
</g>
</g>
<!-- Node10&#45;&gt;Node3 -->
<g id="edge24_Node000010_Node000003" class="edge">
<title>Node10&#45;&gt;Node3</title>
<g id="a_edge24_Node000010_Node000003"><a xlink:title=" ">
<path fill="none" stroke="#63b8ff" d="M551.93,-187.97C568.33,-176.23 591.36,-159.76 608.08,-147.79"/>
<polygon fill="#63b8ff" stroke="#63b8ff" points="609.78,-150.88 615.88,-142.21 605.71,-145.19 609.78,-150.88"/>
</a>
</g>
</g>
<!-- Node10&#45;&gt;Node4 -->
<g id="edge25_Node000010_Node000004" class="edge">
<title>Node10&#45;&gt;Node4</title>
<g id="a_edge25_Node000010_Node000004"><a xlink:title=" ">
<path fill="none" stroke="#63b8ff" d="M590.63,-187.84C618.61,-179.56 651.91,-167.73 679.62,-152.25 681.61,-151.14 683.59,-149.86 685.51,-148.5"/>
<polygon fill="#63b8ff" stroke="#63b8ff" points="687.62,-151.29 693.23,-142.31 683.24,-145.83 687.62,-151.29"/>
</a>
</g>
</g>
<!-- Node10&#45;&gt;Node11 -->
<g id="edge10_Node000010_Node000011" class="edge">
<title>Node10&#45;&gt;Node11</title>
<g id="a_edge10_Node000010_Node000011"><a xlink:title=" ">
<path fill="none" stroke="#63b8ff" d="M471.16,-194.18C424.79,-186.58 359.76,-173.29 305.62,-152.25 257.23,-133.44 205.83,-100.68 177.53,-81.36"/>
<polygon fill="#63b8ff" stroke="#63b8ff" points="179.66,-78.58 169.44,-75.77 175.67,-84.33 179.66,-78.58"/>
</a>
</g>
</g>
<!-- Node16 -->
<g id="Node000016" class="node">
<title>Node16</title>
<g id="a_Node000016"><a xlink:href="composition__abstract__iterator_8h.html" target="_top" xlink:title=" ">
<polygon fill="white" stroke="#666666" points="424.5,-152.25 314.75,-152.25 314.75,-110.5 424.5,-110.5 424.5,-152.25"/>
<text xml:space="preserve" text-anchor="start" x="322.75" y="-138.75" font-family="Helvetica,sans-Serif" font-size="10.00">fourdst/composition</text>
<text xml:space="preserve" text-anchor="start" x="322.75" y="-127.5" font-family="Helvetica,sans-Serif" font-size="10.00">/iterators/composition</text>
<text xml:space="preserve" text-anchor="middle" x="369.62" y="-116.25" font-family="Helvetica,sans-Serif" font-size="10.00">_abstract_iterator.h</text>
</a>
</g>
</g>
<!-- Node10&#45;&gt;Node16 -->
<g id="edge17_Node000010_Node000016" class="edge">
<title>Node10&#45;&gt;Node16</title>
<g id="a_edge17_Node000010_Node000016"><a xlink:title=" ">
<path fill="none" stroke="#63b8ff" d="M497.66,-187.8C477.14,-178.91 450.44,-167.36 426.74,-157.1"/>
<polygon fill="#63b8ff" stroke="#63b8ff" points="428.4,-154 417.83,-153.24 425.62,-160.43 428.4,-154"/>
</a>
</g>
</g>
<!-- Node17 -->
<g id="Node000017" class="node">
<title>Node17</title>
<g id="a_Node000017"><a xlink:title=" ">
<polygon fill="#e0e0e0" stroke="#999999" points="529.12,-74.5 486.12,-74.5 486.12,-55.25 529.12,-55.25 529.12,-74.5"/>
<text xml:space="preserve" text-anchor="middle" x="507.62" y="-61" font-family="Helvetica,sans-Serif" font-size="10.00">vector</text>
</a>
</g>
</g>
<!-- Node10&#45;&gt;Node17 -->
<g id="edge26_Node000010_Node000017" class="edge">
<title>Node10&#45;&gt;Node17</title>
<g id="a_edge26_Node000010_Node000017"><a xlink:title=" ">
<path fill="none" stroke="#63b8ff" d="M529.06,-187.88C524.74,-163.28 516.01,-113.61 511.13,-85.83"/>
<polygon fill="#63b8ff" stroke="#63b8ff" points="514.63,-85.51 509.45,-76.26 507.73,-86.72 514.63,-85.51"/>
</a>
</g>
</g>
<!-- Node21 -->
<g id="Node000021" class="node">
<title>Node21</title>
<g id="a_Node000021"><a xlink:title=" ">
<polygon fill="#e0e0e0" stroke="#999999" points="494.25,-141 443,-141 443,-121.75 494.25,-121.75 494.25,-141"/>
<text xml:space="preserve" text-anchor="middle" x="468.62" y="-127.5" font-family="Helvetica,sans-Serif" font-size="10.00">memory</text>
</a>
</g>
</g>
<!-- Node10&#45;&gt;Node21 -->
<g id="edge27_Node000010_Node000021" class="edge">
<title>Node10&#45;&gt;Node21</title>
<g id="a_edge27_Node000010_Node000021"><a xlink:title=" ">
<path fill="none" stroke="#63b8ff" d="M518.57,-187.97C508.56,-176.83 494.71,-161.41 484.14,-149.64"/>
<polygon fill="#63b8ff" stroke="#63b8ff" points="486.79,-147.36 477.5,-142.26 481.58,-152.04 486.79,-147.36"/>
</a>
</g>
</g>
<!-- Node11&#45;&gt;Node2 -->
<g id="edge13_Node000011_Node000002" class="edge">
<title>Node11&#45;&gt;Node2</title>
<g id="a_edge13_Node000011_Node000002"><a xlink:title=" ">
<path fill="none" stroke="#63b8ff" d="M180.05,-54.84C204.49,-45.81 242.15,-31.88 268.66,-22.07"/>
<polygon fill="#63b8ff" stroke="#63b8ff" points="269.69,-25.43 277.86,-18.68 267.26,-18.86 269.69,-25.43"/>
</a>
</g>
</g>
<!-- Node11&#45;&gt;Node5 -->
<g id="edge14_Node000011_Node000005" class="edge">
<title>Node11&#45;&gt;Node5</title>
<g id="a_edge14_Node000011_Node000005"><a xlink:title=" ">
<path fill="none" stroke="#63b8ff" d="M223.08,-54.78C307.26,-43.43 448.2,-24.43 514.31,-15.52"/>
<polygon fill="#63b8ff" stroke="#63b8ff" points="514.44,-19.04 523.88,-14.23 513.5,-12.1 514.44,-19.04"/>
</a>
</g>
</g>
<!-- Node12 -->
<g id="Node000012" class="node">
<title>Node12</title>
<g id="a_Node000012"><a xlink:title=" ">
<polygon fill="#e0e0e0" stroke="#999999" points="177.5,-19.25 133.75,-19.25 133.75,0 177.5,0 177.5,-19.25"/>
<text xml:space="preserve" text-anchor="middle" x="155.62" y="-5.75" font-family="Helvetica,sans-Serif" font-size="10.00">format</text>
</a>
</g>
</g>
<!-- Node11&#45;&gt;Node12 -->
<g id="edge11_Node000011_Node000012" class="edge">
<title>Node11&#45;&gt;Node12</title>
<g id="a_edge11_Node000011_Node000012"><a xlink:title=" ">
<path fill="none" stroke="#63b8ff" d="M155.62,-55.08C155.62,-48.57 155.62,-39.42 155.62,-31.12"/>
<polygon fill="#63b8ff" stroke="#63b8ff" points="159.13,-31.12 155.63,-21.12 152.13,-31.12 159.13,-31.12"/>
</a>
</g>
</g>
<!-- Node13 -->
<g id="Node000013" class="node">
<title>Node13</title>
<g id="a_Node000013"><a xlink:title=" ">
<polygon fill="#e0e0e0" stroke="#999999" points="261.38,-19.25 195.88,-19.25 195.88,0 261.38,0 261.38,-19.25"/>
<text xml:space="preserve" text-anchor="middle" x="228.62" y="-5.75" font-family="Helvetica,sans-Serif" font-size="10.00">string_view</text>
</a>
</g>
</g>
<!-- Node11&#45;&gt;Node13 -->
<g id="edge12_Node000011_Node000013" class="edge">
<title>Node11&#45;&gt;Node13</title>
<g id="a_edge12_Node000011_Node000013"><a xlink:title=" ">
<path fill="none" stroke="#63b8ff" d="M168.01,-54.84C178.77,-46.99 194.6,-35.45 207.38,-26.12"/>
<polygon fill="#63b8ff" stroke="#63b8ff" points="209.19,-29.14 215.2,-20.42 205.06,-23.48 209.19,-29.14"/>
</a>
</g>
</g>
<!-- Node14 -->
<g id="Node000014" class="node">
<title>Node14</title>
<g id="a_Node000014"><a xlink:title=" ">
<polygon fill="#e0e0e0" stroke="#999999" points="39.25,-19.25 0,-19.25 0,0 39.25,0 39.25,-19.25"/>
<text xml:space="preserve" text-anchor="middle" x="19.62" y="-5.75" font-family="Helvetica,sans-Serif" font-size="10.00">limits</text>
</a>
</g>
</g>
<!-- Node11&#45;&gt;Node14 -->
<g id="edge15_Node000011_Node000014" class="edge">
<title>Node11&#45;&gt;Node14</title>
<g id="a_edge15_Node000011_Node000014"><a xlink:title=" ">
<path fill="none" stroke="#63b8ff" d="M132.55,-54.84C109.95,-45.99 75.35,-32.44 50.4,-22.68"/>
<polygon fill="#63b8ff" stroke="#63b8ff" points="51.7,-19.42 41.11,-19.04 49.15,-25.94 51.7,-19.42"/>
</a>
</g>
</g>
<!-- Node15 -->
<g id="Node000015" class="node">
<title>Node15</title>
<g id="a_Node000015"><a xlink:title=" ">
<polygon fill="#e0e0e0" stroke="#999999" points="116,-19.25 57.25,-19.25 57.25,0 116,0 116,-19.25"/>
<text xml:space="preserve" text-anchor="middle" x="86.62" y="-5.75" font-family="Helvetica,sans-Serif" font-size="10.00">stdexcept</text>
</a>
</g>
</g>
<!-- Node11&#45;&gt;Node15 -->
<g id="edge16_Node000011_Node000015" class="edge">
<title>Node11&#45;&gt;Node15</title>
<g id="a_edge16_Node000011_Node000015"><a xlink:title=" ">
<path fill="none" stroke="#63b8ff" d="M143.92,-54.84C133.85,-47.07 119.08,-35.67 107.06,-26.4"/>
<polygon fill="#63b8ff" stroke="#63b8ff" points="109.41,-23.79 99.36,-20.45 105.13,-29.33 109.41,-23.79"/>
</a>
</g>
</g>
<!-- Node16&#45;&gt;Node11 -->
<g id="edge22_Node000016_Node000011" class="edge">
<title>Node16&#45;&gt;Node11</title>
<g id="a_edge22_Node000016_Node000011"><a xlink:title=" ">
<path fill="none" stroke="#63b8ff" d="M314.51,-113.76C277.69,-102.66 230.04,-88.3 196.56,-78.21"/>
<polygon fill="#63b8ff" stroke="#63b8ff" points="197.82,-74.94 187.24,-75.4 195.8,-81.64 197.82,-74.94"/>
</a>
</g>
</g>
<!-- Node16&#45;&gt;Node17 -->
<g id="edge18_Node000016_Node000017" class="edge">
<title>Node16&#45;&gt;Node17</title>
<g id="a_edge18_Node000016_Node000017"><a xlink:title=" ">
<path fill="none" stroke="#63b8ff" d="M412.91,-110.14C434.05,-100.26 458.96,-88.62 477.92,-79.76"/>
<polygon fill="#63b8ff" stroke="#63b8ff" points="479.38,-82.94 486.96,-75.54 476.42,-76.6 479.38,-82.94"/>
</a>
</g>
</g>
<!-- Node18 -->
<g id="Node000018" class="node">
<title>Node18</title>
<g id="a_Node000018"><a xlink:title=" ">
<polygon fill="#e0e0e0" stroke="#999999" points="334.62,-74.5 288.62,-74.5 288.62,-55.25 334.62,-55.25 334.62,-74.5"/>
<text xml:space="preserve" text-anchor="middle" x="311.62" y="-61" font-family="Helvetica,sans-Serif" font-size="10.00">iterator</text>
</a>
</g>
</g>
<!-- Node16&#45;&gt;Node18 -->
<g id="edge19_Node000016_Node000018" class="edge">
<title>Node16&#45;&gt;Node18</title>
<g id="a_edge19_Node000016_Node000018"><a xlink:title=" ">
<path fill="none" stroke="#63b8ff" d="M351.59,-110.32C343.86,-101.72 334.91,-91.77 327.44,-83.46"/>
<polygon fill="#63b8ff" stroke="#63b8ff" points="330.08,-81.17 320.79,-76.07 324.88,-85.85 330.08,-81.17"/>
</a>
</g>
</g>
<!-- Node19 -->
<g id="Node000019" class="node">
<title>Node19</title>
<g id="a_Node000019"><a xlink:title=" ">
<polygon fill="#e0e0e0" stroke="#999999" points="392.25,-74.5 353,-74.5 353,-55.25 392.25,-55.25 392.25,-74.5"/>
<text xml:space="preserve" text-anchor="middle" x="372.62" y="-61" font-family="Helvetica,sans-Serif" font-size="10.00">utility</text>
</a>
</g>
</g>
<!-- Node16&#45;&gt;Node19 -->
<g id="edge20_Node000016_Node000019" class="edge">
<title>Node16&#45;&gt;Node19</title>
<g id="a_edge20_Node000016_Node000019"><a xlink:title=" ">
<path fill="none" stroke="#63b8ff" d="M370.56,-110.32C370.91,-102.65 371.32,-93.89 371.68,-86.2"/>
<polygon fill="#63b8ff" stroke="#63b8ff" points="375.16,-86.61 372.13,-76.46 368.17,-86.28 375.16,-86.61"/>
</a>
</g>
</g>
<!-- Node20 -->
<g id="Node000020" class="node">
<title>Node20</title>
<g id="a_Node000020"><a xlink:title=" ">
<polygon fill="#e0e0e0" stroke="#999999" points="463.38,-74.5 409.88,-74.5 409.88,-55.25 463.38,-55.25 463.38,-74.5"/>
<text xml:space="preserve" text-anchor="middle" x="436.62" y="-61" font-family="Helvetica,sans-Serif" font-size="10.00">compare</text>
</a>
</g>
</g>
<!-- Node16&#45;&gt;Node20 -->
<g id="edge21_Node000016_Node000020" class="edge">
<title>Node16&#45;&gt;Node20</title>
<g id="a_edge21_Node000016_Node000020"><a xlink:title=" ">
<path fill="none" stroke="#63b8ff" d="M390.46,-110.32C399.58,-101.54 410.17,-91.34 418.91,-82.93"/>
<polygon fill="#63b8ff" stroke="#63b8ff" points="421.34,-85.45 426.11,-76 416.48,-80.41 421.34,-85.45"/>
</a>
</g>
</g>
</g>
</svg>

<g id="navigator" transform="translate(0 0)" fill="#404254">
  <rect fill="#f2f5e9" fill-opacity="0.5" stroke="#606060" stroke-width=".5" x="0" y="0" width="60" height="60"/>
  <use id="zoomplus" xlink:href="#zoomPlus" x="17" y="9" onmousedown="handleZoom(evt,'in')"/>
  <use id="zoomminus" xlink:href="#zoomMin" x="42" y="9" onmousedown="handleZoom(evt,'out')"/>
  <use id="reset" xlink:href="#resetDef" x="30" y="36" onmousedown="handleReset()"/>
   <use id="arrowup" xlink:href="#arrowUp" x="0" y="0" onmousedown="handlePan(0,-1)"/>
  <use id="arrowright" xlink:href="#arrowRight" x="0" y="0" onmousedown="handlePan(1,0)"/>
  <use id="arrowdown" xlink:href="#arrowDown" x="0" y="0" onmousedown="handlePan(0,1)"/>
  <use id="arrowleft" xlink:href="#arrowLeft" x="0" y="0" onmousedown="handlePan(-1,0)"/>
</g>
<svg viewBox="0 0 15 15" width="100%" height="30px" preserveAspectRatio="xMaxYMin meet">
 <g id="arrow_out" transform="scale(0.3 0.3)">
  <a xlink:href="composition_8h__incl_org.svg" target="_base">
   <rect id="button" ry="5" rx="5" y="6" x="6" height="38" width="38"
        fill="#f2f5e9" fill-opacity="0.5" stroke="#606060" stroke-width="1.0"/>
   <path id="arrow"
     d="M 11.500037,31.436501 C 11.940474,20.09759 22.043105,11.32322 32.158766,21.979434 L 37.068811,17.246167 C 37.068811,17.246167 37.088388,32 37.088388,32 L 22.160133,31.978069 C 22.160133,31.978069 26.997745,27.140456 26.997745,27.140456 C 18.528582,18.264221 13.291696,25.230495 11.500037,31.436501 z"
     style="fill:#404040;"/>
  </a>
 </g>
</svg>

<style type='text/css'>
<![CDATA[
[data-mouse-over-selected='false'] { opacity: 0.7; }
[data-mouse-over-selected='true']  { opacity: 1.0; }
]]>
</style>
<script type="application/ecmascript"><![CDATA[
document.addEventListener('DOMContentLoaded', (event) => {
  highlightEdges();
  highlightAdjacentNodes();
});
]]></script>
</svg>
