<?xml version="1.0" encoding="UTF-8" standalone="no"?>
<!DOCTYPE svg PUBLIC "-//W3C//DTD SVG 1.1//EN"
 "http://www.w3.org/Graphics/SVG/1.1/DTD/svg11.dtd">
<!-- Generated by graphviz version 14.1.2 (20260124.0452)
 -->
<!-- Title: src/composition/include/fourdst/composition/iterators/composition_abstract_iterator.h Pages: 1 -->
<svg width="530pt" height="160pt"
 viewBox="0.00 0.00 530.00 160.00" xmlns="http://www.w3.org/2000/svg" xmlns:xlink="http://www.w3.org/1999/xlink">
<g id="graph0" class="graph" transform="scale(1 1) rotate(0) translate(4 156.25)">
<title>src/composition/include/fourdst/composition/iterators/composition_abstract_iterator.h</title>
<!-- Node1 -->
<g id="Node000001" class="node">
<title>Node1</title>
<g id="a_Node000001"><a xlink:title=" ">
<polygon fill="#999999" stroke="#666666" points="222.88,-152.25 68.12,-152.25 68.12,-110.5 222.88,-110.5 222.88,-152.25"/>
<text xml:space="preserve" text-anchor="start" x="76.12" y="-138.75" font-family="Helvetica,sans-Serif" font-size="10.00">src/composition/include</text>
<text xml:space="preserve" text-anchor="start" x="76.12" y="-127.5" font-family="Helvetica,sans-Serif" font-size="10.00">/fourdst/composition/iterators</text>
<text xml:space="preserve" text-anchor="middle" x="145.5" y="-116.25" font-family="Helvetica,sans-Serif" font-size="10.00">/composition_abstract_iterator.h</text>
</a>
</g>
</g>
<!-- Node2 -->
<g id="Node000002" class="node">
<title>Node2</title>
<g id="a_Node000002"><a xlink:title=" ">
<polygon fill="#e0e0e0" stroke="#999999" points="43,-74.5 0,-74.5 0,-55.25 43,-55.25 43,-74.5"/>
<text xml:space="preserve" text-anchor="middle" x="21.5" y="-61" font-family="Helvetica,sans-Serif" font-size="10.00">vector</text>
</a>
</g>
</g>
<!-- Node1&#45;&gt;Node2 -->
<g id="edge1_Node000001_Node000002" class="edge">
<title>Node1&#45;&gt;Node2</title>
<g id="a_edge1_Node000001_Node000002"><a xlink:title=" ">
<path fill="none" stroke="#63b8ff" d="M106.61,-110.14C87.78,-100.35 65.65,-88.84 48.67,-80.01"/>
<polygon fill="#63b8ff" stroke="#63b8ff" points="50.67,-77.1 40.18,-75.59 47.44,-83.31 50.67,-77.1"/>
</a>
</g>
</g>
<!-- Node3 -->
<g id="Node000003" class="node">
<title>Node3</title>
<g id="a_Node000003"><a xlink:title=" ">
<polygon fill="#e0e0e0" stroke="#999999" points="107.5,-74.5 61.5,-74.5 61.5,-55.25 107.5,-55.25 107.5,-74.5"/>
<text xml:space="preserve" text-anchor="middle" x="84.5" y="-61" font-family="Helvetica,sans-Serif" font-size="10.00">iterator</text>
</a>
</g>
</g>
<!-- Node1&#45;&gt;Node3 -->
<g id="edge2_Node000001_Node000003" class="edge">
<title>Node1&#45;&gt;Node3</title>
<g id="a_edge2_Node000001_Node000003"><a xlink:title=" ">
<path fill="none" stroke="#63b8ff" d="M126.53,-110.32C118.31,-101.63 108.79,-91.55 100.88,-83.19"/>
<polygon fill="#63b8ff" stroke="#63b8ff" points="103.53,-80.91 94.12,-76.05 98.45,-85.72 103.53,-80.91"/>
</a>
</g>
</g>
<!-- Node4 -->
<g id="Node000004" class="node">
<title>Node4</title>
<g id="a_Node000004"><a xlink:title=" ">
<polygon fill="#e0e0e0" stroke="#999999" points="165.12,-74.5 125.88,-74.5 125.88,-55.25 165.12,-55.25 165.12,-74.5"/>
<text xml:space="preserve" text-anchor="middle" x="145.5" y="-61" font-family="Helvetica,sans-Serif" font-size="10.00">utility</text>
</a>
</g>
</g>
<!-- Node1&#45;&gt;Node4 -->
<g id="edge3_Node000001_Node000004" class="edge">
<title>Node1&#45;&gt;Node4</title>
<g id="a_edge3_Node000001_Node000004"><a xlink:title=" ">
<path fill="none" stroke="#63b8ff" d="M145.5,-110.32C145.5,-102.65 145.5,-93.89 145.5,-86.2"/>
<polygon fill="#63b8ff" stroke="#63b8ff" points="149,-86.46 145.5,-76.46 142,-86.46 149,-86.46"/>
</a>
</g>
</g>
<!-- Node5 -->
<g id="Node000005" class="node">
<title>Node5</title>
<g id="a_Node000005"><a xlink:title=" ">
<polygon fill="#e0e0e0" stroke="#999999" points="236.25,-74.5 182.75,-74.5 182.75,-55.25 236.25,-55.25 236.25,-74.5"/>
<text xml:space="preserve" text-anchor="middle" x="209.5" y="-61" font-family="Helvetica,sans-Serif" font-size="10.00">compare</text>
</a>
</g>
</g>
<!-- Node1&#45;&gt;Node5 -->
<g id="edge4_Node000001_Node000005" class="edge">
<title>Node1&#45;&gt;Node5</title>
<g id="a_edge4_Node000001_Node000005"><a xlink:title=" ">
<path fill="none" stroke="#63b8ff" d="M165.4,-110.32C174.11,-101.54 184.23,-91.34 192.58,-82.93"/>
<polygon fill="#63b8ff" stroke="#63b8ff" points="194.87,-85.58 199.43,-76.02 189.91,-80.65 194.87,-85.58"/>
</a>
</g>
</g>
<!-- Node6 -->
<g id="Node000006" class="node">
<title>Node6</title>
<g id="a_Node000006"><a xlink:href="atomic_species_8h.html" target="_top" xlink:title=" ">
<polygon fill="white" stroke="#666666" points="408.5,-74.5 254.5,-74.5 254.5,-55.25 408.5,-55.25 408.5,-74.5"/>
<text xml:space="preserve" text-anchor="middle" x="331.5" y="-61" font-family="Helvetica,sans-Serif" font-size="10.00">fourdst/atomic/atomicSpecies.h</text>
</a>
</g>
</g>
<!-- Node1&#45;&gt;Node6 -->
<g id="edge5_Node000001_Node000006" class="edge">
<title>Node1&#45;&gt;Node6</title>
<g id="a_edge5_Node000001_Node000006"><a xlink:title=" ">
<path fill="none" stroke="#63b8ff" d="M204.1,-110.06C233.78,-99.76 268.9,-87.58 294.75,-78.62"/>
<polygon fill="#63b8ff" stroke="#63b8ff" points="295.83,-81.95 304.13,-75.36 293.54,-75.33 295.83,-81.95"/>
</a>
</g>
</g>
<!-- Node7 -->
<g id="Node000007" class="node">
<title>Node7</title>
<g id="a_Node000007"><a xlink:title=" ">
<polygon fill="#e0e0e0" stroke="#999999" points="177.38,-19.25 133.62,-19.25 133.62,0 177.38,0 177.38,-19.25"/>
<text xml:space="preserve" text-anchor="middle" x="155.5" y="-5.75" font-family="Helvetica,sans-Serif" font-size="10.00">format</text>
</a>
</g>
</g>
<!-- Node6&#45;&gt;Node7 -->
<g id="edge6_Node000006_Node000007" class="edge">
<title>Node6&#45;&gt;Node7</title>
<g id="a_edge6_Node000006_Node000007"><a xlink:title=" ">
<path fill="none" stroke="#63b8ff" d="M301.64,-54.84C270.24,-45.34 220.94,-30.43 188.43,-20.59"/>
<polygon fill="#63b8ff" stroke="#63b8ff" points="189.72,-17.32 179.13,-17.77 187.69,-24.02 189.72,-17.32"/>
</a>
</g>
</g>
<!-- Node8 -->
<g id="Node000008" class="node">
<title>Node8</title>
<g id="a_Node000008"><a xlink:title=" ">
<polygon fill="#e0e0e0" stroke="#999999" points="261.25,-19.25 195.75,-19.25 195.75,0 261.25,0 261.25,-19.25"/>
<text xml:space="preserve" text-anchor="middle" x="228.5" y="-5.75" font-family="Helvetica,sans-Serif" font-size="10.00">string_view</text>
</a>
</g>
</g>
<!-- Node6&#45;&gt;Node8 -->
<g id="edge7_Node000006_Node000008" class="edge">
<title>Node6&#45;&gt;Node8</title>
<g id="a_edge7_Node000006_Node000008"><a xlink:title=" ">
<path fill="none" stroke="#63b8ff" d="M314.03,-54.84C298.19,-46.66 274.59,-34.46 256.19,-24.94"/>
<polygon fill="#63b8ff" stroke="#63b8ff" points="257.89,-21.88 247.4,-20.4 254.68,-28.1 257.89,-21.88"/>
</a>
</g>
</g>
<!-- Node9 -->
<g id="Node000009" class="node">
<title>Node9</title>
<g id="a_Node000009"><a xlink:title=" ">
<polygon fill="#e0e0e0" stroke="#999999" points="319.5,-19.25 279.5,-19.25 279.5,0 319.5,0 319.5,-19.25"/>
<text xml:space="preserve" text-anchor="middle" x="299.5" y="-5.75" font-family="Helvetica,sans-Serif" font-size="10.00">string</text>
</a>
</g>
</g>
<!-- Node6&#45;&gt;Node9 -->
<g id="edge8_Node000006_Node000009" class="edge">
<title>Node6&#45;&gt;Node9</title>
<g id="a_edge8_Node000006_Node000009"><a xlink:title=" ">
<path fill="none" stroke="#63b8ff" d="M326.22,-55.08C322.03,-48.11 316.02,-38.12 310.77,-29.37"/>
<polygon fill="#63b8ff" stroke="#63b8ff" points="313.83,-27.68 305.68,-20.91 307.83,-31.28 313.83,-27.68"/>
</a>
</g>
</g>
<!-- Node10 -->
<g id="Node000010" class="node">
<title>Node10</title>
<g id="a_Node000010"><a xlink:title=" ">
<polygon fill="#e0e0e0" stroke="#999999" points="387.38,-19.25 337.62,-19.25 337.62,0 387.38,0 387.38,-19.25"/>
<text xml:space="preserve" text-anchor="middle" x="362.5" y="-5.75" font-family="Helvetica,sans-Serif" font-size="10.00">optional</text>
</a>
</g>
</g>
<!-- Node6&#45;&gt;Node10 -->
<g id="edge9_Node000006_Node000010" class="edge">
<title>Node6&#45;&gt;Node10</title>
<g id="a_edge9_Node000006_Node000010"><a xlink:title=" ">
<path fill="none" stroke="#63b8ff" d="M336.62,-55.08C340.68,-48.11 346.49,-38.12 351.59,-29.37"/>
<polygon fill="#63b8ff" stroke="#63b8ff" points="354.5,-31.32 356.51,-20.92 348.45,-27.8 354.5,-31.32"/>
</a>
</g>
</g>
<!-- Node11 -->
<g id="Node000011" class="node">
<title>Node11</title>
<g id="a_Node000011"><a xlink:title=" ">
<polygon fill="#e0e0e0" stroke="#999999" points="445.12,-19.25 405.88,-19.25 405.88,0 445.12,0 445.12,-19.25"/>
<text xml:space="preserve" text-anchor="middle" x="425.5" y="-5.75" font-family="Helvetica,sans-Serif" font-size="10.00">limits</text>
</a>
</g>
</g>
<!-- Node6&#45;&gt;Node11 -->
<g id="edge10_Node000006_Node000011" class="edge">
<title>Node6&#45;&gt;Node11</title>
<g id="a_edge10_Node000006_Node000011"><a xlink:title=" ">
<path fill="none" stroke="#63b8ff" d="M347.45,-54.84C361.76,-46.73 383.03,-34.68 399.75,-25.21"/>
<polygon fill="#63b8ff" stroke="#63b8ff" points="401.18,-28.42 408.16,-20.45 397.73,-22.33 401.18,-28.42"/>
</a>
</g>
</g>
<!-- Node12 -->
<g id="Node000012" class="node">
<title>Node12</title>
<g id="a_Node000012"><a xlink:title=" ">
<polygon fill="#e0e0e0" stroke="#999999" points="521.88,-19.25 463.12,-19.25 463.12,0 521.88,0 521.88,-19.25"/>
<text xml:space="preserve" text-anchor="middle" x="492.5" y="-5.75" font-family="Helvetica,sans-Serif" font-size="10.00">stdexcept</text>
</a>
</g>
</g>
<!-- Node6&#45;&gt;Node12 -->
<g id="edge11_Node000006_Node000012" class="edge">
<title>Node6&#45;&gt;Node12</title>
<g id="a_edge11_Node000006_Node000012"><a xlink:title=" ">
<path fill="none" stroke="#63b8ff" d="M358.81,-54.84C385.06,-46.16 424.98,-32.96 454.36,-23.24"/>
<polygon fill="#63b8ff" stroke="#63b8ff" points="455.22,-26.64 463.62,-20.18 453.02,-19.99 455.22,-26.64"/>
</a>
</g>
</g>
</g>
</svg>
