<?xml version="1.0" encoding="UTF-8" standalone="no"?>
<!DOCTYPE svg PUBLIC "-//W3C//DTD SVG 1.1//EN"
 "http://www.w3.org/Graphics/SVG/1.1/DTD/svg11.dtd">
<!-- Generated by graphviz version 13.0.1 (20250615.1724)
 -->
<!-- Title: src/composition/include/fourdst/composition/composition_abstract.h Pages: 1 -->
<svg width="419pt" height="160pt"
 viewBox="0.00 0.00 419.00 160.00" xmlns="http://www.w3.org/2000/svg" xmlns:xlink="http://www.w3.org/1999/xlink">

<svg id="main" version="1.1" xmlns="http://www.w3.org/2000/svg" xmlns:xlink="http://www.w3.org/1999/xlink" xml:space="preserve">

<style type="text/css"><![CDATA[
.node, .edge {opacity: 0.7;}
.node.selected, .edge.selected {opacity: 1;}
.edge:hover path { stroke: red; }
.edge:hover polygon { stroke: red; fill: red; }
]]></style>
<script type="application/ecmascript" xlink:href="svg.min.js"/>
<svg id="graph" class="graph">
<g id="graph0" class="graph" transform="scale(1 1) rotate(0) translate(4 156.25)">
<title>src/composition/include/fourdst/composition/composition_abstract.h</title>
<!-- Node1 -->
<g id="Node000001" class="node">
<title>Node1</title>
<g id="a_Node000001"><a xlink:title=" ">
<polygon fill="#999999" stroke="#666666" points="341,-152.25 181,-152.25 181,-110.5 341,-110.5 341,-152.25"/>
<text xml:space="preserve" text-anchor="start" x="189" y="-138.75" font-family="Helvetica,sans-Serif" font-size="10.00">src/composition/include</text>
<text xml:space="preserve" text-anchor="start" x="189" y="-127.5" font-family="Helvetica,sans-Serif" font-size="10.00">/fourdst/composition/composition</text>
<text xml:space="preserve" text-anchor="middle" x="261" y="-116.25" font-family="Helvetica,sans-Serif" font-size="10.00">_abstract.h</text>
</a>
</g>
</g>
<!-- Node2 -->
<g id="Node000002" class="node">
<title>Node2</title>
<g id="a_Node000002"><a xlink:href="atomic_species_8h.html" target="_top" xlink:title=" ">
<polygon fill="white" stroke="#666666" points="202,-74.5 48,-74.5 48,-55.25 202,-55.25 202,-74.5"/>
<text xml:space="preserve" text-anchor="middle" x="125" y="-61" font-family="Helvetica,sans-Serif" font-size="10.00">fourdst/atomic/atomicSpecies.h</text>
</a>
</g>
</g>
<!-- Node1&#45;&gt;Node2 -->
<g id="edge1_Node000001_Node000002" class="edge">
<title>Node1&#45;&gt;Node2</title>
<g id="a_edge1_Node000001_Node000002"><a xlink:title=" ">
<path fill="none" stroke="#63b8ff" d="M218.34,-110.14C197.5,-100.26 172.96,-88.62 154.27,-79.76"/>
<polygon fill="#63b8ff" stroke="#63b8ff" points="155.92,-76.67 145.39,-75.54 152.92,-82.99 155.92,-76.67"/>
</a>
</g>
</g>
<!-- Node4 -->
<g id="Node000004" class="node">
<title>Node4</title>
<g id="a_Node000004"><a xlink:title=" ">
<polygon fill="#e0e0e0" stroke="#999999" points="40,-19.25 0,-19.25 0,0 40,0 40,-19.25"/>
<text xml:space="preserve" text-anchor="middle" x="20" y="-5.75" font-family="Helvetica,sans-Serif" font-size="10.00">string</text>
</a>
</g>
</g>
<!-- Node1&#45;&gt;Node4 -->
<g id="edge6_Node000001_Node000004" class="edge">
<title>Node1&#45;&gt;Node4</title>
<g id="a_edge6_Node000001_Node000004"><a xlink:title=" ">
<path fill="none" stroke="#63b8ff" d="M180.55,-118.67C125.68,-109.13 59.41,-94.06 39,-74.5 27.23,-63.22 22.66,-45.01 20.93,-30.92"/>
<polygon fill="#63b8ff" stroke="#63b8ff" points="24.42,-30.64 20.14,-20.95 17.44,-31.2 24.42,-30.64"/>
</a>
</g>
</g>
<!-- Node7 -->
<g id="Node000007" class="node">
<title>Node7</title>
<g id="a_Node000007"><a xlink:title=" ">
<polygon fill="#e0e0e0" stroke="#999999" points="302.38,-74.5 219.62,-74.5 219.62,-55.25 302.38,-55.25 302.38,-74.5"/>
<text xml:space="preserve" text-anchor="middle" x="261" y="-61" font-family="Helvetica,sans-Serif" font-size="10.00">unordered_map</text>
</a>
</g>
</g>
<!-- Node1&#45;&gt;Node7 -->
<g id="edge7_Node000001_Node000007" class="edge">
<title>Node1&#45;&gt;Node7</title>
<g id="a_edge7_Node000001_Node000007"><a xlink:title=" ">
<path fill="none" stroke="#63b8ff" d="M261,-110.32C261,-102.65 261,-93.89 261,-86.2"/>
<polygon fill="#63b8ff" stroke="#63b8ff" points="264.5,-86.46 261,-76.46 257.5,-86.46 264.5,-86.46"/>
</a>
</g>
</g>
<!-- Node8 -->
<g id="Node000008" class="node">
<title>Node8</title>
<g id="a_Node000008"><a xlink:title=" ">
<polygon fill="#e0e0e0" stroke="#999999" points="349.75,-74.5 320.25,-74.5 320.25,-55.25 349.75,-55.25 349.75,-74.5"/>
<text xml:space="preserve" text-anchor="middle" x="335" y="-61" font-family="Helvetica,sans-Serif" font-size="10.00">set</text>
</a>
</g>
</g>
<!-- Node1&#45;&gt;Node8 -->
<g id="edge8_Node000001_Node000008" class="edge">
<title>Node1&#45;&gt;Node8</title>
<g id="a_edge8_Node000001_Node000008"><a xlink:title=" ">
<path fill="none" stroke="#63b8ff" d="M284.01,-110.32C294.3,-101.35 306.28,-90.91 316.04,-82.4"/>
<polygon fill="#63b8ff" stroke="#63b8ff" points="318.21,-85.15 323.45,-75.94 313.61,-79.87 318.21,-85.15"/>
</a>
</g>
</g>
<!-- Node9 -->
<g id="Node000009" class="node">
<title>Node9</title>
<g id="a_Node000009"><a xlink:title=" ">
<polygon fill="#e0e0e0" stroke="#999999" points="410.5,-74.5 367.5,-74.5 367.5,-55.25 410.5,-55.25 410.5,-74.5"/>
<text xml:space="preserve" text-anchor="middle" x="389" y="-61" font-family="Helvetica,sans-Serif" font-size="10.00">vector</text>
</a>
</g>
</g>
<!-- Node1&#45;&gt;Node9 -->
<g id="edge9_Node000001_Node000009" class="edge">
<title>Node1&#45;&gt;Node9</title>
<g id="a_edge9_Node000001_Node000009"><a xlink:title=" ">
<path fill="none" stroke="#63b8ff" d="M301.15,-110.14C320.58,-100.35 343.43,-88.84 360.95,-80.01"/>
<polygon fill="#63b8ff" stroke="#63b8ff" points="362.39,-83.2 369.75,-75.58 359.24,-76.95 362.39,-83.2"/>
</a>
</g>
</g>
<!-- Node3 -->
<g id="Node000003" class="node">
<title>Node3</title>
<g id="a_Node000003"><a xlink:title=" ">
<polygon fill="#e0e0e0" stroke="#999999" points="123.75,-19.25 58.25,-19.25 58.25,0 123.75,0 123.75,-19.25"/>
<text xml:space="preserve" text-anchor="middle" x="91" y="-5.75" font-family="Helvetica,sans-Serif" font-size="10.00">string_view</text>
</a>
</g>
</g>
<!-- Node2&#45;&gt;Node3 -->
<g id="edge2_Node000002_Node000003" class="edge">
<title>Node2&#45;&gt;Node3</title>
<g id="a_edge2_Node000002_Node000003"><a xlink:title=" ">
<path fill="none" stroke="#63b8ff" d="M119.39,-55.08C114.88,-48.03 108.41,-37.9 102.79,-29.08"/>
<polygon fill="#63b8ff" stroke="#63b8ff" points="105.88,-27.43 97.55,-20.88 99.98,-31.2 105.88,-27.43"/>
</a>
</g>
</g>
<!-- Node2&#45;&gt;Node4 -->
<g id="edge3_Node000002_Node000004" class="edge">
<title>Node2&#45;&gt;Node4</title>
<g id="a_edge3_Node000002_Node000004"><a xlink:title=" ">
<path fill="none" stroke="#63b8ff" d="M107.19,-54.84C90.97,-46.62 66.76,-34.34 47.97,-24.81"/>
<polygon fill="#63b8ff" stroke="#63b8ff" points="49.75,-21.79 39.25,-20.39 46.58,-28.03 49.75,-21.79"/>
</a>
</g>
</g>
<!-- Node5 -->
<g id="Node000005" class="node">
<title>Node5</title>
<g id="a_Node000005"><a xlink:title=" ">
<polygon fill="#e0e0e0" stroke="#999999" points="191.88,-19.25 142.12,-19.25 142.12,0 191.88,0 191.88,-19.25"/>
<text xml:space="preserve" text-anchor="middle" x="167" y="-5.75" font-family="Helvetica,sans-Serif" font-size="10.00">optional</text>
</a>
</g>
</g>
<!-- Node2&#45;&gt;Node5 -->
<g id="edge4_Node000002_Node000005" class="edge">
<title>Node2&#45;&gt;Node5</title>
<g id="a_edge4_Node000002_Node000005"><a xlink:title=" ">
<path fill="none" stroke="#63b8ff" d="M131.94,-55.08C137.62,-47.88 145.84,-37.46 152.89,-28.51"/>
<polygon fill="#63b8ff" stroke="#63b8ff" points="155.53,-30.82 158.98,-20.8 150.04,-26.48 155.53,-30.82"/>
</a>
</g>
</g>
<!-- Node6 -->
<g id="Node000006" class="node">
<title>Node6</title>
<g id="a_Node000006"><a xlink:title=" ">
<polygon fill="#e0e0e0" stroke="#999999" points="249.62,-19.25 210.38,-19.25 210.38,0 249.62,0 249.62,-19.25"/>
<text xml:space="preserve" text-anchor="middle" x="230" y="-5.75" font-family="Helvetica,sans-Serif" font-size="10.00">limits</text>
</a>
</g>
</g>
<!-- Node2&#45;&gt;Node6 -->
<g id="edge5_Node000002_Node000006" class="edge">
<title>Node2&#45;&gt;Node6</title>
<g id="a_edge5_Node000002_Node000006"><a xlink:title=" ">
<path fill="none" stroke="#63b8ff" d="M142.81,-54.84C159.03,-46.62 183.24,-34.34 202.03,-24.81"/>
<polygon fill="#63b8ff" stroke="#63b8ff" points="203.42,-28.03 210.75,-20.39 200.25,-21.79 203.42,-28.03"/>
</a>
</g>
</g>
</g>
</svg>
</svg>

<style type='text/css'>
<![CDATA[
[data-mouse-over-selected='false'] { opacity: 0.7; }
[data-mouse-over-selected='true']  { opacity: 1.0; }
]]>
</style>
<script type="application/ecmascript"><![CDATA[
document.addEventListener('DOMContentLoaded', (event) => {
  highlightEdges();
  highlightAdjacentNodes();
});
]]></script>
</svg>
