<?xml version="1.0" encoding="UTF-8" standalone="no"?>
<!DOCTYPE svg PUBLIC "-//W3C//DTD SVG 1.1//EN"
 "http://www.w3.org/Graphics/SVG/1.1/DTD/svg11.dtd">
<!-- Generated by graphviz version 14.1.2 (20260124.0452)
 -->
<!-- Title: src/composition/include/fourdst/composition/decorators/composition_decorator_abstract.h Pages: 1 -->
<!--zoomable 305 -->

<svg id="main" version="1.1" xmlns="http://www.w3.org/2000/svg" xmlns:xlink="http://www.w3.org/1999/xlink" xml:space="preserve" onload="init(evt)">

<style type="text/css"><![CDATA[
.node, .edge {opacity: 0.7;}
.node.selected, .edge.selected {opacity: 1;}
.edge:hover path { stroke: red; }
.edge:hover polygon { stroke: red; fill: red; }
]]></style>

<defs>
  <circle id="rim" cx="0" cy="0" r="7"/>
  <circle id="rim2" cx="0" cy="0" r="3.5"/>
  <g id="zoomPlus">
    <use xlink:href="#rim" fill="#404040"><set attributeName="fill" to="#808080" begin="zoomplus.mouseover" end="zoomplus.mouseout"/></use>
    <path d="M-4,0h8M0,-4v8" fill="none" stroke="white" stroke-width="1.5" pointer-events="none"/>
  </g>
  <g id="zoomMin">
    <use xlink:href="#rim" fill="#404040"><set attributeName="fill" to="#808080" begin="zoomminus.mouseover" end="zoomminus.mouseout"/></use>
    <path d="M-4,0h8" fill="none" stroke="white" stroke-width="1.5" pointer-events="none"/>
  </g>
  <g id="arrowUp" transform="translate(30 24)">
    <use xlink:href="#rim"/>
    <path pointer-events="none" fill="none" stroke="white" stroke-width="1.5" d="M0,-3.0v7 M-2.5,-0.5L0,-3.0L2.5,-0.5"/>
  </g>
  <g id="arrowRight" transform="rotate(90) translate(36 -43)">
    <use xlink:href="#rim"/>
    <path pointer-events="none" fill="none" stroke="white" stroke-width="1.5" d="M0,-3.0v7 M-2.5,-0.5L0,-3.0L2.5,-0.5"/>
  </g>
  <g id="arrowDown" transform="rotate(180) translate(-30 -48)">
    <use xlink:href="#rim"/>
    <path pointer-events="none" fill="none" stroke="white" stroke-width="1.5" d="M0,-3.0v7 M-2.5,-0.5L0,-3.0L2.5,-0.5"/>
  </g>
  <g id="arrowLeft" transform="rotate(270) translate(-36 17)">
    <use xlink:href="#rim"/>
    <path pointer-events="none" fill="none" stroke="white" stroke-width="1.5" d="M0,-3.0v7 M-2.5,-0.5L0,-3.0L2.5,-0.5"/>
  </g>
  <g id="resetDef">
    <use xlink:href="#rim2" fill="#404040"><set attributeName="fill" to="#808080" begin="reset.mouseover" end="reset.mouseout"/></use>
  </g>
</defs>
<script type="application/ecmascript">
var viewWidth = 787;
var viewHeight = 305;
var sectionId = 'dynsection-0';
</script>
<script type="application/ecmascript" xlink:href="svg.min.js"/>
<svg id="graph" class="graph">
<g id="viewport">
<title>src/composition/include/fourdst/composition/decorators/composition_decorator_abstract.h</title>
<!-- Node1 -->
<g id="Node000001" class="node">
<title>Node1</title>
<g id="a_Node000001"><a xlink:title=" ">
<polygon fill="#999999" stroke="#666666" points="629.75,-296.5 463.75,-296.5 463.75,-254.75 629.75,-254.75 629.75,-296.5"/>
<text xml:space="preserve" text-anchor="start" x="471.75" y="-283" font-family="Helvetica,sans-Serif" font-size="10.00">src/composition/include</text>
<text xml:space="preserve" text-anchor="start" x="471.75" y="-271.75" font-family="Helvetica,sans-Serif" font-size="10.00">/fourdst/composition/decorators</text>
<text xml:space="preserve" text-anchor="middle" x="546.75" y="-260.5" font-family="Helvetica,sans-Serif" font-size="10.00">/composition_decorator_abstract.h</text>
</a>
</g>
</g>
<!-- Node2 -->
<g id="Node000002" class="node">
<title>Node2</title>
<g id="a_Node000002"><a xlink:href="atomic_species_8h.html" target="_top" xlink:title=" ">
<polygon fill="white" stroke="#666666" points="248.75,-74.5 94.75,-74.5 94.75,-55.25 248.75,-55.25 248.75,-74.5"/>
<text xml:space="preserve" text-anchor="middle" x="171.75" y="-61" font-family="Helvetica,sans-Serif" font-size="10.00">fourdst/atomic/atomicSpecies.h</text>
</a>
</g>
</g>
<!-- Node1&#45;&gt;Node2 -->
<g id="edge1_Node000001_Node000002" class="edge">
<title>Node1&#45;&gt;Node2</title>
<g id="a_edge1_Node000001_Node000002"><a xlink:title=" ">
<path fill="none" stroke="#63b8ff" d="M463.35,-269.93C381.28,-260.56 258.94,-232.94 192.75,-152.25 177.4,-133.54 172.98,-105.34 171.85,-86.3"/>
<polygon fill="#63b8ff" stroke="#63b8ff" points="175.35,-86.21 171.55,-76.32 168.35,-86.42 175.35,-86.21"/>
</a>
</g>
</g>
<!-- Node9 -->
<g id="Node000009" class="node">
<title>Node9</title>
<g id="a_Node000009"><a xlink:href="composition__abstract__iterator_8h.html" target="_top" xlink:title=" ">
<polygon fill="white" stroke="#666666" points="356.62,-152.25 246.88,-152.25 246.88,-110.5 356.62,-110.5 356.62,-152.25"/>
<text xml:space="preserve" text-anchor="start" x="254.88" y="-138.75" font-family="Helvetica,sans-Serif" font-size="10.00">fourdst/composition</text>
<text xml:space="preserve" text-anchor="start" x="254.88" y="-127.5" font-family="Helvetica,sans-Serif" font-size="10.00">/iterators/composition</text>
<text xml:space="preserve" text-anchor="middle" x="301.75" y="-116.25" font-family="Helvetica,sans-Serif" font-size="10.00">_abstract_iterator.h</text>
</a>
</g>
</g>
<!-- Node1&#45;&gt;Node9 -->
<g id="edge8_Node000001_Node000009" class="edge">
<title>Node1&#45;&gt;Node9</title>
<g id="a_edge8_Node000001_Node000009"><a xlink:title=" ">
<path fill="none" stroke="#63b8ff" d="M463.35,-258.89C432.43,-250.4 398.23,-237.63 370.75,-218.75 349.43,-204.1 331.43,-180.93 319.17,-162.28"/>
<polygon fill="#63b8ff" stroke="#63b8ff" points="322.24,-160.59 313.94,-154.01 316.33,-164.34 322.24,-160.59"/>
</a>
</g>
</g>
<!-- Node10 -->
<g id="Node000010" class="node">
<title>Node10</title>
<g id="a_Node000010"><a xlink:title=" ">
<polygon fill="#e0e0e0" stroke="#999999" points="445.25,-74.5 402.25,-74.5 402.25,-55.25 445.25,-55.25 445.25,-74.5"/>
<text xml:space="preserve" text-anchor="middle" x="423.75" y="-61" font-family="Helvetica,sans-Serif" font-size="10.00">vector</text>
</a>
</g>
</g>
<!-- Node1&#45;&gt;Node10 -->
<g id="edge26_Node000001_Node000010" class="edge">
<title>Node1&#45;&gt;Node10</title>
<g id="a_edge26_Node000001_Node000010"><a xlink:title=" ">
<path fill="none" stroke="#63b8ff" d="M463.58,-255.59C445.15,-247.35 427.83,-235.57 416.75,-218.75 389.79,-177.81 405.33,-116.47 416.11,-85.41"/>
<polygon fill="#63b8ff" stroke="#63b8ff" points="419.34,-86.77 419.52,-76.17 412.77,-84.34 419.34,-86.77"/>
</a>
</g>
</g>
<!-- Node12 -->
<g id="Node000012" class="node">
<title>Node12</title>
<g id="a_Node000012"><a xlink:title=" ">
<polygon fill="#e0e0e0" stroke="#999999" points="502.38,-74.5 463.12,-74.5 463.12,-55.25 502.38,-55.25 502.38,-74.5"/>
<text xml:space="preserve" text-anchor="middle" x="482.75" y="-61" font-family="Helvetica,sans-Serif" font-size="10.00">utility</text>
</a>
</g>
</g>
<!-- Node1&#45;&gt;Node12 -->
<g id="edge22_Node000001_Node000012" class="edge">
<title>Node1&#45;&gt;Node12</title>
<g id="a_edge22_Node000001_Node000012"><a xlink:title=" ">
<path fill="none" stroke="#63b8ff" d="M589.91,-254.36C648.7,-224.07 741.86,-164.71 697.75,-110.5 674.93,-82.46 567.92,-71.47 513.99,-67.66"/>
<polygon fill="#63b8ff" stroke="#63b8ff" points="514.44,-64.19 504.23,-67.02 513.98,-71.17 514.44,-64.19"/>
</a>
</g>
</g>
<!-- Node14 -->
<g id="Node000014" class="node">
<title>Node14</title>
<g id="a_Node000014"><a xlink:href="composition__abstract_8h.html" target="_top" xlink:title=" ">
<polygon fill="white" stroke="#666666" points="545.88,-218.75 425.62,-218.75 425.62,-188.25 545.88,-188.25 545.88,-218.75"/>
<text xml:space="preserve" text-anchor="start" x="433.62" y="-205.25" font-family="Helvetica,sans-Serif" font-size="10.00">fourdst/composition</text>
<text xml:space="preserve" text-anchor="middle" x="485.75" y="-194" font-family="Helvetica,sans-Serif" font-size="10.00">/composition_abstract.h</text>
</a>
</g>
</g>
<!-- Node1&#45;&gt;Node14 -->
<g id="edge14_Node000001_Node000014" class="edge">
<title>Node1&#45;&gt;Node14</title>
<g id="a_edge14_Node000001_Node000014"><a xlink:title=" ">
<path fill="none" stroke="#63b8ff" d="M529.11,-254.34C521.79,-245.94 513.28,-236.14 505.73,-227.47"/>
<polygon fill="#63b8ff" stroke="#63b8ff" points="508.52,-225.34 499.31,-220.09 503.24,-229.93 508.52,-225.34"/>
</a>
</g>
</g>
<!-- Node15 -->
<g id="Node000015" class="node">
<title>Node15</title>
<g id="a_Node000015"><a xlink:title=" ">
<polygon fill="#e0e0e0" stroke="#999999" points="641.12,-141 558.38,-141 558.38,-121.75 641.12,-121.75 641.12,-141"/>
<text xml:space="preserve" text-anchor="middle" x="599.75" y="-127.5" font-family="Helvetica,sans-Serif" font-size="10.00">unordered_map</text>
</a>
</g>
</g>
<!-- Node1&#45;&gt;Node15 -->
<g id="edge24_Node000001_Node000015" class="edge">
<title>Node1&#45;&gt;Node15</title>
<g id="a_edge24_Node000001_Node000015"><a xlink:title=" ">
<path fill="none" stroke="#63b8ff" d="M554.23,-254.55C564.38,-227.32 582.38,-178.99 592.44,-152"/>
<polygon fill="#63b8ff" stroke="#63b8ff" points="595.7,-153.26 595.91,-142.67 589.14,-150.82 595.7,-153.26"/>
</a>
</g>
</g>
<!-- Node16 -->
<g id="Node000016" class="node">
<title>Node16</title>
<g id="a_Node000016"><a xlink:title=" ">
<polygon fill="#e0e0e0" stroke="#999999" points="688.5,-141 659,-141 659,-121.75 688.5,-121.75 688.5,-141"/>
<text xml:space="preserve" text-anchor="middle" x="673.75" y="-127.5" font-family="Helvetica,sans-Serif" font-size="10.00">set</text>
</a>
</g>
</g>
<!-- Node1&#45;&gt;Node16 -->
<g id="edge23_Node000001_Node000016" class="edge">
<title>Node1&#45;&gt;Node16</title>
<g id="a_edge23_Node000001_Node000016"><a xlink:title=" ">
<path fill="none" stroke="#63b8ff" d="M564.68,-254.55C589.75,-226.46 634.87,-175.92 658.45,-149.51"/>
<polygon fill="#63b8ff" stroke="#63b8ff" points="660.77,-152.17 664.82,-142.38 655.55,-147.51 660.77,-152.17"/>
</a>
</g>
</g>
<!-- Node18 -->
<g id="Node000018" class="node">
<title>Node18</title>
<g id="a_Node000018"><a xlink:title=" ">
<polygon fill="#e0e0e0" stroke="#999999" points="779.12,-213.12 744.38,-213.12 744.38,-193.88 779.12,-193.88 779.12,-213.12"/>
<text xml:space="preserve" text-anchor="middle" x="761.75" y="-199.62" font-family="Helvetica,sans-Serif" font-size="10.00">map</text>
</a>
</g>
</g>
<!-- Node1&#45;&gt;Node18 -->
<g id="edge25_Node000001_Node000018" class="edge">
<title>Node1&#45;&gt;Node18</title>
<g id="a_edge25_Node000001_Node000018"><a xlink:title=" ">
<path fill="none" stroke="#63b8ff" d="M621.83,-254.33C655.5,-244.6 695.48,-232.14 730.75,-218.75 731.69,-218.39 732.65,-218.02 733.61,-217.63"/>
<polygon fill="#63b8ff" stroke="#63b8ff" points="734.7,-220.97 742.5,-213.81 731.94,-214.54 734.7,-220.97"/>
</a>
</g>
</g>
<!-- Node3 -->
<g id="Node000003" class="node">
<title>Node3</title>
<g id="a_Node000003"><a xlink:title=" ">
<polygon fill="#e0e0e0" stroke="#999999" points="329.62,-19.25 285.88,-19.25 285.88,0 329.62,0 329.62,-19.25"/>
<text xml:space="preserve" text-anchor="middle" x="307.75" y="-5.75" font-family="Helvetica,sans-Serif" font-size="10.00">format</text>
</a>
</g>
</g>
<!-- Node2&#45;&gt;Node3 -->
<g id="edge2_Node000002_Node000003" class="edge">
<title>Node2&#45;&gt;Node3</title>
<g id="a_edge2_Node000002_Node000003"><a xlink:title=" ">
<path fill="none" stroke="#63b8ff" d="M194.82,-54.84C216.77,-46.25 250.03,-33.23 274.77,-23.54"/>
<polygon fill="#63b8ff" stroke="#63b8ff" points="276.03,-26.81 284.06,-19.9 273.47,-20.29 276.03,-26.81"/>
</a>
</g>
</g>
<!-- Node4 -->
<g id="Node000004" class="node">
<title>Node4</title>
<g id="a_Node000004"><a xlink:title=" ">
<polygon fill="#e0e0e0" stroke="#999999" points="65.5,-19.25 0,-19.25 0,0 65.5,0 65.5,-19.25"/>
<text xml:space="preserve" text-anchor="middle" x="32.75" y="-5.75" font-family="Helvetica,sans-Serif" font-size="10.00">string_view</text>
</a>
</g>
</g>
<!-- Node2&#45;&gt;Node4 -->
<g id="edge3_Node000002_Node000004" class="edge">
<title>Node2&#45;&gt;Node4</title>
<g id="a_edge3_Node000002_Node000004"><a xlink:title=" ">
<path fill="none" stroke="#63b8ff" d="M148.17,-54.84C125.91,-46.31 92.26,-33.42 67.03,-23.76"/>
<polygon fill="#63b8ff" stroke="#63b8ff" points="68.45,-20.55 57.86,-20.24 65.94,-27.09 68.45,-20.55"/>
</a>
</g>
</g>
<!-- Node5 -->
<g id="Node000005" class="node">
<title>Node5</title>
<g id="a_Node000005"><a xlink:title=" ">
<polygon fill="#e0e0e0" stroke="#999999" points="468.75,-19.25 428.75,-19.25 428.75,0 468.75,0 468.75,-19.25"/>
<text xml:space="preserve" text-anchor="middle" x="448.75" y="-5.75" font-family="Helvetica,sans-Serif" font-size="10.00">string</text>
</a>
</g>
</g>
<!-- Node2&#45;&gt;Node5 -->
<g id="edge4_Node000002_Node000005" class="edge">
<title>Node2&#45;&gt;Node5</title>
<g id="a_edge4_Node000002_Node000005"><a xlink:title=" ">
<path fill="none" stroke="#63b8ff" d="M219.05,-54.78C275.73,-43.89 369.07,-25.94 417.47,-16.64"/>
<polygon fill="#63b8ff" stroke="#63b8ff" points="417.83,-20.13 426.99,-14.81 416.51,-13.26 417.83,-20.13"/>
</a>
</g>
</g>
<!-- Node6 -->
<g id="Node000006" class="node">
<title>Node6</title>
<g id="a_Node000006"><a xlink:title=" ">
<polygon fill="#e0e0e0" stroke="#999999" points="133.62,-19.25 83.88,-19.25 83.88,0 133.62,0 133.62,-19.25"/>
<text xml:space="preserve" text-anchor="middle" x="108.75" y="-5.75" font-family="Helvetica,sans-Serif" font-size="10.00">optional</text>
</a>
</g>
</g>
<!-- Node2&#45;&gt;Node6 -->
<g id="edge5_Node000002_Node000006" class="edge">
<title>Node2&#45;&gt;Node6</title>
<g id="a_edge5_Node000002_Node000006"><a xlink:title=" ">
<path fill="none" stroke="#63b8ff" d="M161.06,-54.84C152.05,-47.22 138.92,-36.12 128.07,-26.95"/>
<polygon fill="#63b8ff" stroke="#63b8ff" points="130.33,-24.28 120.44,-20.5 125.81,-29.63 130.33,-24.28"/>
</a>
</g>
</g>
<!-- Node7 -->
<g id="Node000007" class="node">
<title>Node7</title>
<g id="a_Node000007"><a xlink:title=" ">
<polygon fill="#e0e0e0" stroke="#999999" points="191.38,-19.25 152.12,-19.25 152.12,0 191.38,0 191.38,-19.25"/>
<text xml:space="preserve" text-anchor="middle" x="171.75" y="-5.75" font-family="Helvetica,sans-Serif" font-size="10.00">limits</text>
</a>
</g>
</g>
<!-- Node2&#45;&gt;Node7 -->
<g id="edge6_Node000002_Node000007" class="edge">
<title>Node2&#45;&gt;Node7</title>
<g id="a_edge6_Node000002_Node000007"><a xlink:title=" ">
<path fill="none" stroke="#63b8ff" d="M171.75,-55.08C171.75,-48.57 171.75,-39.42 171.75,-31.12"/>
<polygon fill="#63b8ff" stroke="#63b8ff" points="175.25,-31.12 171.75,-21.12 168.25,-31.12 175.25,-31.12"/>
</a>
</g>
</g>
<!-- Node8 -->
<g id="Node000008" class="node">
<title>Node8</title>
<g id="a_Node000008"><a xlink:title=" ">
<polygon fill="#e0e0e0" stroke="#999999" points="268.12,-19.25 209.38,-19.25 209.38,0 268.12,0 268.12,-19.25"/>
<text xml:space="preserve" text-anchor="middle" x="238.75" y="-5.75" font-family="Helvetica,sans-Serif" font-size="10.00">stdexcept</text>
</a>
</g>
</g>
<!-- Node2&#45;&gt;Node8 -->
<g id="edge7_Node000002_Node000008" class="edge">
<title>Node2&#45;&gt;Node8</title>
<g id="a_edge7_Node000002_Node000008"><a xlink:title=" ">
<path fill="none" stroke="#63b8ff" d="M183.12,-54.84C192.8,-47.15 206.95,-35.9 218.56,-26.68"/>
<polygon fill="#63b8ff" stroke="#63b8ff" points="220.72,-29.43 226.37,-20.47 216.36,-23.95 220.72,-29.43"/>
</a>
</g>
</g>
<!-- Node9&#45;&gt;Node2 -->
<g id="edge13_Node000009_Node000002" class="edge">
<title>Node9&#45;&gt;Node2</title>
<g id="a_edge13_Node000009_Node000002"><a xlink:title=" ">
<path fill="none" stroke="#63b8ff" d="M260.97,-110.14C241.24,-100.35 218.03,-88.84 200.23,-80.01"/>
<polygon fill="#63b8ff" stroke="#63b8ff" points="201.8,-76.88 191.28,-75.57 198.69,-83.15 201.8,-76.88"/>
</a>
</g>
</g>
<!-- Node9&#45;&gt;Node10 -->
<g id="edge9_Node000009_Node000010" class="edge">
<title>Node9&#45;&gt;Node10</title>
<g id="a_edge9_Node000009_Node000010"><a xlink:title=" ">
<path fill="none" stroke="#63b8ff" d="M340.02,-110.14C358.36,-100.45 379.9,-89.06 396.55,-80.26"/>
<polygon fill="#63b8ff" stroke="#63b8ff" points="398.15,-83.37 405.35,-75.6 394.88,-77.18 398.15,-83.37"/>
</a>
</g>
</g>
<!-- Node11 -->
<g id="Node000011" class="node">
<title>Node11</title>
<g id="a_Node000011"><a xlink:title=" ">
<polygon fill="#e0e0e0" stroke="#999999" points="312.75,-74.5 266.75,-74.5 266.75,-55.25 312.75,-55.25 312.75,-74.5"/>
<text xml:space="preserve" text-anchor="middle" x="289.75" y="-61" font-family="Helvetica,sans-Serif" font-size="10.00">iterator</text>
</a>
</g>
</g>
<!-- Node9&#45;&gt;Node11 -->
<g id="edge10_Node000009_Node000011" class="edge">
<title>Node9&#45;&gt;Node11</title>
<g id="a_edge10_Node000009_Node000011"><a xlink:title=" ">
<path fill="none" stroke="#63b8ff" d="M298.02,-110.32C296.59,-102.65 294.96,-93.89 293.53,-86.2"/>
<polygon fill="#63b8ff" stroke="#63b8ff" points="296.98,-85.62 291.71,-76.43 290.1,-86.9 296.98,-85.62"/>
</a>
</g>
</g>
<!-- Node9&#45;&gt;Node12 -->
<g id="edge11_Node000009_Node000012" class="edge">
<title>Node9&#45;&gt;Node12</title>
<g id="a_edge11_Node000009_Node000012"><a xlink:title=" ">
<path fill="none" stroke="#63b8ff" d="M357.04,-110.67C388.37,-99.51 426.38,-85.96 452.34,-76.71"/>
<polygon fill="#63b8ff" stroke="#63b8ff" points="453.35,-80.07 461.59,-73.41 451,-73.47 453.35,-80.07"/>
</a>
</g>
</g>
<!-- Node13 -->
<g id="Node000013" class="node">
<title>Node13</title>
<g id="a_Node000013"><a xlink:title=" ">
<polygon fill="#e0e0e0" stroke="#999999" points="384.5,-74.5 331,-74.5 331,-55.25 384.5,-55.25 384.5,-74.5"/>
<text xml:space="preserve" text-anchor="middle" x="357.75" y="-61" font-family="Helvetica,sans-Serif" font-size="10.00">compare</text>
</a>
</g>
</g>
<!-- Node9&#45;&gt;Node13 -->
<g id="edge12_Node000009_Node000013" class="edge">
<title>Node9&#45;&gt;Node13</title>
<g id="a_edge12_Node000009_Node000013"><a xlink:title=" ">
<path fill="none" stroke="#63b8ff" d="M319.16,-110.32C326.63,-101.72 335.27,-91.77 342.48,-83.46"/>
<polygon fill="#63b8ff" stroke="#63b8ff" points="344.97,-85.93 348.88,-76.09 339.68,-81.34 344.97,-85.93"/>
</a>
</g>
</g>
<!-- Node14&#45;&gt;Node2 -->
<g id="edge15_Node000014_Node000002" class="edge">
<title>Node14&#45;&gt;Node2</title>
<g id="a_edge15_Node000014_Node000002"><a xlink:title=" ">
<path fill="none" stroke="#63b8ff" d="M425.29,-201.96C372.18,-198.89 294.73,-187.9 237.75,-152.25 211.55,-135.86 191.86,-105.09 181.07,-85.05"/>
<polygon fill="#63b8ff" stroke="#63b8ff" points="184.26,-83.58 176.58,-76.27 178.02,-86.77 184.26,-83.58"/>
</a>
</g>
</g>
<!-- Node14&#45;&gt;Node5 -->
<g id="edge17_Node000014_Node000005" class="edge">
<title>Node14&#45;&gt;Node5</title>
<g id="a_edge17_Node000014_Node000005"><a xlink:title=" ">
<path fill="none" stroke="#63b8ff" d="M495.72,-187.85C501.66,-178.21 508.64,-165.04 511.75,-152.25 521.94,-110.36 531.55,-93.54 511.75,-55.25 504.71,-41.63 491.37,-31.27 478.78,-23.98"/>
<polygon fill="#63b8ff" stroke="#63b8ff" points="480.79,-21.08 470.31,-19.49 477.51,-27.26 480.79,-21.08"/>
</a>
</g>
</g>
<!-- Node14&#45;&gt;Node9 -->
<g id="edge16_Node000014_Node000009" class="edge">
<title>Node14&#45;&gt;Node9</title>
<g id="a_edge16_Node000014_Node000009"><a xlink:title=" ">
<path fill="none" stroke="#63b8ff" d="M447.18,-187.8C423.55,-178.79 392.72,-167.05 365.53,-156.68"/>
<polygon fill="#63b8ff" stroke="#63b8ff" points="366.93,-153.47 356.34,-153.18 364.44,-160.01 366.93,-153.47"/>
</a>
</g>
</g>
<!-- Node14&#45;&gt;Node10 -->
<g id="edge20_Node000014_Node000010" class="edge">
<title>Node14&#45;&gt;Node10</title>
<g id="a_edge20_Node000014_Node000010"><a xlink:title=" ">
<path fill="none" stroke="#63b8ff" d="M469.15,-187.77C459.71,-178.49 448.47,-165.74 441.75,-152.25 431.25,-131.19 426.87,-104.3 425.05,-86.16"/>
<polygon fill="#63b8ff" stroke="#63b8ff" points="428.56,-86.14 424.26,-76.45 421.58,-86.7 428.56,-86.14"/>
</a>
</g>
</g>
<!-- Node14&#45;&gt;Node15 -->
<g id="edge18_Node000014_Node000015" class="edge">
<title>Node14&#45;&gt;Node15</title>
<g id="a_edge18_Node000014_Node000015"><a xlink:title=" ">
<path fill="none" stroke="#63b8ff" d="M509.65,-187.8C528.91,-175.95 555.88,-159.36 575.29,-147.42"/>
<polygon fill="#63b8ff" stroke="#63b8ff" points="576.96,-150.5 583.64,-142.28 573.29,-144.54 576.96,-150.5"/>
</a>
</g>
</g>
<!-- Node14&#45;&gt;Node16 -->
<g id="edge19_Node000014_Node000016" class="edge">
<title>Node14&#45;&gt;Node16</title>
<g id="a_edge19_Node000014_Node000016"><a xlink:title=" ">
<path fill="none" stroke="#63b8ff" d="M546.06,-190.08C578.07,-182.01 617.38,-169.7 649.75,-152.25 651.75,-151.17 653.74,-149.91 655.67,-148.56"/>
<polygon fill="#63b8ff" stroke="#63b8ff" points="657.77,-151.36 663.39,-142.38 653.4,-145.9 657.77,-151.36"/>
</a>
</g>
</g>
<!-- Node17 -->
<g id="Node000017" class="node">
<title>Node17</title>
<g id="a_Node000017"><a xlink:title=" ">
<polygon fill="#e0e0e0" stroke="#999999" points="502.38,-141 451.12,-141 451.12,-121.75 502.38,-121.75 502.38,-141"/>
<text xml:space="preserve" text-anchor="middle" x="476.75" y="-127.5" font-family="Helvetica,sans-Serif" font-size="10.00">memory</text>
</a>
</g>
</g>
<!-- Node14&#45;&gt;Node17 -->
<g id="edge21_Node000014_Node000017" class="edge">
<title>Node14&#45;&gt;Node17</title>
<g id="a_edge21_Node000014_Node000017"><a xlink:title=" ">
<path fill="none" stroke="#63b8ff" d="M483.89,-187.97C482.57,-177.71 480.79,-163.83 479.33,-152.5"/>
<polygon fill="#63b8ff" stroke="#63b8ff" points="482.81,-152.11 478.07,-142.63 475.87,-153 482.81,-152.11"/>
</a>
</g>
</g>
</g>
</svg>

<g id="navigator" transform="translate(0 0)" fill="#404254">
  <rect fill="#f2f5e9" fill-opacity="0.5" stroke="#606060" stroke-width=".5" x="0" y="0" width="60" height="60"/>
  <use id="zoomplus" xlink:href="#zoomPlus" x="17" y="9" onmousedown="handleZoom(evt,'in')"/>
  <use id="zoomminus" xlink:href="#zoomMin" x="42" y="9" onmousedown="handleZoom(evt,'out')"/>
  <use id="reset" xlink:href="#resetDef" x="30" y="36" onmousedown="handleReset()"/>
   <use id="arrowup" xlink:href="#arrowUp" x="0" y="0" onmousedown="handlePan(0,-1)"/>
  <use id="arrowright" xlink:href="#arrowRight" x="0" y="0" onmousedown="handlePan(1,0)"/>
  <use id="arrowdown" xlink:href="#arrowDown" x="0" y="0" onmousedown="handlePan(0,1)"/>
  <use id="arrowleft" xlink:href="#arrowLeft" x="0" y="0" onmousedown="handlePan(-1,0)"/>
</g>
<svg viewBox="0 0 15 15" width="100%" height="30px" preserveAspectRatio="xMaxYMin meet">
 <g id="arrow_out" transform="scale(0.3 0.3)">
  <a xlink:href="composition__decorator__abstract_8h__incl_org.svg" target="_base">
   <rect id="button" ry="5" rx="5" y="6" x="6" height="38" width="38"
        fill="#f2f5e9" fill-opacity="0.5" stroke="#606060" stroke-width="1.0"/>
   <path id="arrow"
     d="M 11.500037,31.436501 C 11.940474,20.09759 22.043105,11.32322 32.158766,21.979434 L 37.068811,17.246167 C 37.068811,17.246167 37.088388,32 37.088388,32 L 22.160133,31.978069 C 22.160133,31.978069 26.997745,27.140456 26.997745,27.140456 C 18.528582,18.264221 13.291696,25.230495 11.500037,31.436501 z"
     style="fill:#404040;"/>
  </a>
 </g>
</svg>

<style type='text/css'>
<![CDATA[
[data-mouse-over-selected='false'] { opacity: 0.7; }
[data-mouse-over-selected='true']  { opacity: 1.0; }
]]>
</style>
<script type="application/ecmascript"><![CDATA[
document.addEventListener('DOMContentLoaded', (event) => {
  highlightEdges();
  highlightAdjacentNodes();
});
]]></script>
</svg>
