<?xml version="1.0" encoding="UTF-8" standalone="no"?>
<!DOCTYPE svg PUBLIC "-//W3C//DTD SVG 1.1//EN"
 "http://www.w3.org/Graphics/SVG/1.1/DTD/svg11.dtd">
<!-- Generated by graphviz version 14.1.2 (20260124.0452)
 -->
<!-- Title: src/composition/include/fourdst/composition/utils/composition_hash.h Pages: 1 -->
<svg width="969pt" height="371pt"
 viewBox="0.00 0.00 969.00 371.00" xmlns="http://www.w3.org/2000/svg" xmlns:xlink="http://www.w3.org/1999/xlink">
<g id="graph0" class="graph" transform="scale(1 1) rotate(0) translate(4 367)">
<title>src/composition/include/fourdst/composition/utils/composition_hash.h</title>
<!-- Node1 -->
<g id="Node000001" class="node">
<title>Node1</title>
<g id="a_Node000001"><a xlink:title=" ">
<polygon fill="#999999" stroke="#666666" points="491.38,-363 365.88,-363 365.88,-321.25 491.38,-321.25 491.38,-363"/>
<text xml:space="preserve" text-anchor="start" x="373.88" y="-349.5" font-family="Helvetica,sans-Serif" font-size="10.00">src/composition/include</text>
<text xml:space="preserve" text-anchor="start" x="373.88" y="-338.25" font-family="Helvetica,sans-Serif" font-size="10.00">/fourdst/composition/utils</text>
<text xml:space="preserve" text-anchor="middle" x="428.62" y="-327" font-family="Helvetica,sans-Serif" font-size="10.00">/composition_hash.h</text>
</a>
</g>
</g>
<!-- Node2 -->
<g id="Node000002" class="node">
<title>Node2</title>
<g id="a_Node000002"><a xlink:title=" ">
<polygon fill="#e0e0e0" stroke="#999999" points="45.25,-279.62 0,-279.62 0,-260.38 45.25,-260.38 45.25,-279.62"/>
<text xml:space="preserve" text-anchor="middle" x="22.62" y="-266.12" font-family="Helvetica,sans-Serif" font-size="10.00">cstring</text>
</a>
</g>
</g>
<!-- Node1&#45;&gt;Node2 -->
<g id="edge1_Node000001_Node000002" class="edge">
<title>Node1&#45;&gt;Node2</title>
<g id="a_edge1_Node000001_Node000002"><a xlink:title=" ">
<path fill="none" stroke="#63b8ff" d="M365.43,-335.77C291.26,-328.52 165,-313.17 59.62,-285.25 58,-284.82 56.35,-284.34 54.7,-283.83"/>
<polygon fill="#63b8ff" stroke="#63b8ff" points="55.91,-280.55 45.32,-280.59 53.62,-287.16 55.91,-280.55"/>
</a>
</g>
</g>
<!-- Node3 -->
<g id="Node000003" class="node">
<title>Node3</title>
<g id="a_Node000003"><a xlink:title=" ">
<polygon fill="#e0e0e0" stroke="#999999" points="177.12,-74.5 134.12,-74.5 134.12,-55.25 177.12,-55.25 177.12,-74.5"/>
<text xml:space="preserve" text-anchor="middle" x="155.62" y="-61" font-family="Helvetica,sans-Serif" font-size="10.00">vector</text>
</a>
</g>
</g>
<!-- Node1&#45;&gt;Node3 -->
<g id="edge2_Node000001_Node000003" class="edge">
<title>Node1&#45;&gt;Node3</title>
<g id="a_edge2_Node000001_Node000003"><a xlink:title=" ">
<path fill="none" stroke="#63b8ff" d="M365.39,-326.34C285.52,-303.89 151.42,-252.75 92.62,-152.25 83.26,-136.23 84.1,-126.98 92.62,-110.5 99.36,-97.48 111.84,-87.44 123.93,-80.21"/>
<polygon fill="#63b8ff" stroke="#63b8ff" points="125.42,-83.38 132.52,-75.52 122.07,-77.23 125.42,-83.38"/>
</a>
</g>
</g>
<!-- Node4 -->
<g id="Node000004" class="node">
<title>Node4</title>
<g id="a_Node000004"><a xlink:title=" ">
<polygon fill="#e0e0e0" stroke="#999999" points="567.02,-279.62 538.23,-279.62 538.23,-260.38 567.02,-260.38 567.02,-279.62"/>
<text xml:space="preserve" text-anchor="middle" x="552.62" y="-266.12" font-family="Helvetica,sans-Serif" font-size="10.00">bit</text>
</a>
</g>
</g>
<!-- Node1&#45;&gt;Node4 -->
<g id="edge3_Node000001_Node000004" class="edge">
<title>Node1&#45;&gt;Node4</title>
<g id="a_edge3_Node000001_Node000004"><a xlink:title=" ">
<path fill="none" stroke="#63b8ff" d="M466.29,-320.86C483.22,-311.62 503.61,-300.33 528.72,-285.65"/>
<polygon fill="#63b8ff" stroke="#63b8ff" points="530.43,-288.7 537.28,-280.62 526.88,-282.67 530.43,-288.7"/>
</a>
</g>
</g>
<!-- Node5 -->
<g id="Node000005" class="node">
<title>Node5</title>
<g id="a_Node000005"><a xlink:title=" ">
<polygon fill="#e0e0e0" stroke="#999999" points="651.75,-279.62 585.5,-279.62 585.5,-260.38 651.75,-260.38 651.75,-279.62"/>
<text xml:space="preserve" text-anchor="middle" x="618.62" y="-266.12" font-family="Helvetica,sans-Serif" font-size="10.00">xxhash64.h</text>
</a>
</g>
</g>
<!-- Node1&#45;&gt;Node5 -->
<g id="edge4_Node000001_Node000005" class="edge">
<title>Node1&#45;&gt;Node5</title>
<g id="a_edge4_Node000001_Node000005"><a xlink:title=" ">
<path fill="none" stroke="#63b8ff" d="M483.58,-320.84C515.8,-308.95 555.54,-294.28 583.54,-283.95"/>
<polygon fill="#63b8ff" stroke="#63b8ff" points="584.44,-287.35 592.61,-280.6 582.02,-280.78 584.44,-287.35"/>
</a>
</g>
</g>
<!-- Node6 -->
<g id="Node000006" class="node">
<title>Node6</title>
<g id="a_Node000006"><a xlink:href="composition_8h.html" target="_top" xlink:title=" ">
<polygon fill="white" stroke="#666666" points="520.38,-285.25 418.88,-285.25 418.88,-254.75 520.38,-254.75 520.38,-285.25"/>
<text xml:space="preserve" text-anchor="start" x="426.88" y="-271.75" font-family="Helvetica,sans-Serif" font-size="10.00">fourdst/composition</text>
<text xml:space="preserve" text-anchor="middle" x="469.62" y="-260.5" font-family="Helvetica,sans-Serif" font-size="10.00">/composition.h</text>
</a>
</g>
</g>
<!-- Node1&#45;&gt;Node6 -->
<g id="edge5_Node000001_Node000006" class="edge">
<title>Node1&#45;&gt;Node6</title>
<g id="a_edge5_Node000001_Node000006"><a xlink:title=" ">
<path fill="none" stroke="#63b8ff" d="M440.48,-320.84C445.14,-312.88 450.52,-303.67 455.39,-295.35"/>
<polygon fill="#63b8ff" stroke="#63b8ff" points="458.39,-297.16 460.41,-286.76 452.34,-293.62 458.39,-297.16"/>
</a>
</g>
</g>
<!-- Node15 -->
<g id="Node000015" class="node">
<title>Node15</title>
<g id="a_Node000015"><a xlink:href="composition__abstract_8h.html" target="_top" xlink:title=" ">
<polygon fill="white" stroke="#666666" points="365.75,-218.75 245.5,-218.75 245.5,-188.25 365.75,-188.25 365.75,-218.75"/>
<text xml:space="preserve" text-anchor="start" x="253.5" y="-205.25" font-family="Helvetica,sans-Serif" font-size="10.00">fourdst/composition</text>
<text xml:space="preserve" text-anchor="middle" x="305.62" y="-194" font-family="Helvetica,sans-Serif" font-size="10.00">/composition_abstract.h</text>
</a>
</g>
</g>
<!-- Node1&#45;&gt;Node15 -->
<g id="edge34_Node000001_Node000015" class="edge">
<title>Node1&#45;&gt;Node15</title>
<g id="a_edge34_Node000001_Node000015"><a xlink:title=" ">
<path fill="none" stroke="#63b8ff" d="M410.48,-320.97C388,-296 349.81,-253.57 326.24,-227.4"/>
<polygon fill="#63b8ff" stroke="#63b8ff" points="328.87,-225.09 319.58,-220 323.67,-229.78 328.87,-225.09"/>
</a>
</g>
</g>
<!-- Node7 -->
<g id="Node000007" class="node">
<title>Node7</title>
<g id="a_Node000007"><a xlink:title=" ">
<polygon fill="#e0e0e0" stroke="#999999" points="728.62,-19.25 688.62,-19.25 688.62,0 728.62,0 728.62,-19.25"/>
<text xml:space="preserve" text-anchor="middle" x="708.62" y="-5.75" font-family="Helvetica,sans-Serif" font-size="10.00">string</text>
</a>
</g>
</g>
<!-- Node6&#45;&gt;Node7 -->
<g id="edge6_Node000006_Node000007" class="edge">
<title>Node6&#45;&gt;Node7</title>
<g id="a_edge6_Node000006_Node000007"><a xlink:title=" ">
<path fill="none" stroke="#63b8ff" d="M520.59,-256.35C523.63,-255.77 526.67,-255.23 529.62,-254.75 576.09,-247.29 919.79,-253.41 951.62,-218.75 971.63,-196.96 954.25,-137.32 931.62,-110.5 881.47,-51.04 788.74,-25.52 740.17,-15.82"/>
<polygon fill="#63b8ff" stroke="#63b8ff" points="741.07,-12.43 730.59,-14.02 739.77,-19.31 741.07,-12.43"/>
</a>
</g>
</g>
<!-- Node8 -->
<g id="Node000008" class="node">
<title>Node8</title>
<g id="a_Node000008"><a xlink:title=" ">
<polygon fill="#e0e0e0" stroke="#999999" points="496,-141 413.25,-141 413.25,-121.75 496,-121.75 496,-141"/>
<text xml:space="preserve" text-anchor="middle" x="454.62" y="-127.5" font-family="Helvetica,sans-Serif" font-size="10.00">unordered_map</text>
</a>
</g>
</g>
<!-- Node6&#45;&gt;Node8 -->
<g id="edge7_Node000006_Node000008" class="edge">
<title>Node6&#45;&gt;Node8</title>
<g id="a_edge7_Node000006_Node000008"><a xlink:title=" ">
<path fill="none" stroke="#63b8ff" d="M447.53,-254.34C436.3,-245.52 423.75,-233.2 417.62,-218.75 407.52,-194.93 424.14,-167.46 438.25,-150.02"/>
<polygon fill="#63b8ff" stroke="#63b8ff" points="440.78,-152.45 444.66,-142.59 435.48,-147.88 440.78,-152.45"/>
</a>
</g>
</g>
<!-- Node9 -->
<g id="Node000009" class="node">
<title>Node9</title>
<g id="a_Node000009"><a xlink:title=" ">
<polygon fill="#e0e0e0" stroke="#999999" points="543.38,-141 513.88,-141 513.88,-121.75 543.38,-121.75 543.38,-141"/>
<text xml:space="preserve" text-anchor="middle" x="528.62" y="-127.5" font-family="Helvetica,sans-Serif" font-size="10.00">set</text>
</a>
</g>
</g>
<!-- Node6&#45;&gt;Node9 -->
<g id="edge8_Node000006_Node000009" class="edge">
<title>Node6&#45;&gt;Node9</title>
<g id="a_edge8_Node000006_Node000009"><a xlink:title=" ">
<path fill="none" stroke="#63b8ff" d="M461.97,-254.49C454.23,-237.69 444.83,-209.58 455.62,-188.25 467.83,-164.14 483.32,-168.87 504.62,-152.25 506.15,-151.06 507.72,-149.82 509.28,-148.55"/>
<polygon fill="#63b8ff" stroke="#63b8ff" points="511.3,-151.42 516.81,-142.37 506.86,-146.01 511.3,-151.42"/>
</a>
</g>
</g>
<!-- Node10 -->
<g id="Node000010" class="node">
<title>Node10</title>
<g id="a_Node000010"><a xlink:title=" ">
<polygon fill="#e0e0e0" stroke="#999999" points="670.5,-19.25 620.75,-19.25 620.75,0 670.5,0 670.5,-19.25"/>
<text xml:space="preserve" text-anchor="middle" x="645.62" y="-5.75" font-family="Helvetica,sans-Serif" font-size="10.00">optional</text>
</a>
</g>
</g>
<!-- Node6&#45;&gt;Node10 -->
<g id="edge9_Node000006_Node000010" class="edge">
<title>Node6&#45;&gt;Node10</title>
<g id="a_edge9_Node000006_Node000010"><a xlink:title=" ">
<path fill="none" stroke="#63b8ff" d="M520.59,-256.37C523.64,-255.78 526.67,-255.23 529.62,-254.75 573.56,-247.59 898.6,-251.61 928.62,-218.75 1013.83,-125.51 775.94,-46.91 681.97,-20.3"/>
<polygon fill="#63b8ff" stroke="#63b8ff" points="683.03,-16.96 672.45,-17.64 681.15,-23.7 683.03,-16.96"/>
</a>
</g>
</g>
<!-- Node11 -->
<g id="Node000011" class="node">
<title>Node11</title>
<g id="a_Node000011"><a xlink:title=" ">
<polygon fill="#e0e0e0" stroke="#999999" points="575.38,-213.12 497.88,-213.12 497.88,-193.88 575.38,-193.88 575.38,-213.12"/>
<text xml:space="preserve" text-anchor="middle" x="536.62" y="-199.62" font-family="Helvetica,sans-Serif" font-size="10.00">unordered_set</text>
</a>
</g>
</g>
<!-- Node6&#45;&gt;Node11 -->
<g id="edge10_Node000006_Node000011" class="edge">
<title>Node6&#45;&gt;Node11</title>
<g id="a_edge10_Node000006_Node000011"><a xlink:title=" ">
<path fill="none" stroke="#63b8ff" d="M484.83,-254.36C495.08,-244.49 508.64,-231.44 519.31,-221.17"/>
<polygon fill="#63b8ff" stroke="#63b8ff" points="521.59,-223.83 526.37,-214.37 516.74,-218.79 521.59,-223.83"/>
</a>
</g>
</g>
<!-- Node12 -->
<g id="Node000012" class="node">
<title>Node12</title>
<g id="a_Node000012"><a xlink:title=" ">
<polygon fill="#e0e0e0" stroke="#999999" points="649.5,-213.12 593.75,-213.12 593.75,-193.88 649.5,-193.88 649.5,-213.12"/>
<text xml:space="preserve" text-anchor="middle" x="621.62" y="-199.62" font-family="Helvetica,sans-Serif" font-size="10.00">expected</text>
</a>
</g>
</g>
<!-- Node6&#45;&gt;Node12 -->
<g id="edge11_Node000006_Node000012" class="edge">
<title>Node6&#45;&gt;Node12</title>
<g id="a_edge11_Node000006_Node000012"><a xlink:title=" ">
<path fill="none" stroke="#63b8ff" d="M504.12,-254.36C529.91,-243.42 564.89,-228.57 589.97,-217.93"/>
<polygon fill="#63b8ff" stroke="#63b8ff" points="591.16,-221.23 599,-214.1 588.43,-214.79 591.16,-221.23"/>
</a>
</g>
</g>
<!-- Node13 -->
<g id="Node000013" class="node">
<title>Node13</title>
<g id="a_Node000013"><a xlink:title=" ">
<polygon fill="#e0e0e0" stroke="#999999" points="780,-213.12 667.25,-213.12 667.25,-193.88 780,-193.88 780,-213.12"/>
<text xml:space="preserve" text-anchor="middle" x="723.62" y="-199.62" font-family="Helvetica,sans-Serif" font-size="10.00">fourdst/config/config.h</text>
</a>
</g>
</g>
<!-- Node6&#45;&gt;Node13 -->
<g id="edge12_Node000006_Node000013" class="edge">
<title>Node6&#45;&gt;Node13</title>
<g id="a_edge12_Node000006_Node000013"><a xlink:title=" ">
<path fill="none" stroke="#63b8ff" d="M520.72,-256.03C566.3,-244.45 632.48,-227.65 676.73,-216.41"/>
<polygon fill="#63b8ff" stroke="#63b8ff" points="677.46,-219.83 686.29,-213.98 675.74,-213.05 677.46,-219.83"/>
</a>
</g>
</g>
<!-- Node14 -->
<g id="Node000014" class="node">
<title>Node14</title>
<g id="a_Node000014"><a xlink:title=" ">
<polygon fill="#e0e0e0" stroke="#999999" points="919.5,-213.12 797.75,-213.12 797.75,-193.88 919.5,-193.88 919.5,-213.12"/>
<text xml:space="preserve" text-anchor="middle" x="858.62" y="-199.62" font-family="Helvetica,sans-Serif" font-size="10.00">fourdst/logging/logging.h</text>
</a>
</g>
</g>
<!-- Node6&#45;&gt;Node14 -->
<g id="edge13_Node000006_Node000014" class="edge">
<title>Node6&#45;&gt;Node14</title>
<g id="a_edge13_Node000006_Node000014"><a xlink:title=" ">
<path fill="none" stroke="#63b8ff" d="M520.62,-256.54C523.66,-255.91 526.68,-255.3 529.62,-254.75 643.85,-233.3 674.07,-238.35 788.62,-218.75 793.92,-217.84 799.43,-216.84 804.93,-215.79"/>
<polygon fill="#63b8ff" stroke="#63b8ff" points="805.51,-219.24 814.65,-213.88 804.16,-212.37 805.51,-219.24"/>
</a>
</g>
</g>
<!-- Node6&#45;&gt;Node15 -->
<g id="edge14_Node000006_Node000015" class="edge">
<title>Node6&#45;&gt;Node15</title>
<g id="a_edge14_Node000006_Node000015"><a xlink:title=" ">
<path fill="none" stroke="#63b8ff" d="M432.41,-254.36C409.01,-245.16 378.59,-233.2 353.41,-223.29"/>
<polygon fill="#63b8ff" stroke="#63b8ff" points="354.97,-220.15 344.38,-219.74 352.41,-226.66 354.97,-220.15"/>
</a>
</g>
</g>
<!-- Node16 -->
<g id="Node000016" class="node">
<title>Node16</title>
<g id="a_Node000016"><a xlink:href="atomic_species_8h.html" target="_top" xlink:title=" ">
<polygon fill="white" stroke="#666666" points="583.62,-74.5 429.62,-74.5 429.62,-55.25 583.62,-55.25 583.62,-74.5"/>
<text xml:space="preserve" text-anchor="middle" x="506.62" y="-61" font-family="Helvetica,sans-Serif" font-size="10.00">fourdst/atomic/atomicSpecies.h</text>
</a>
</g>
</g>
<!-- Node6&#45;&gt;Node16 -->
<g id="edge33_Node000006_Node000016" class="edge">
<title>Node6&#45;&gt;Node16</title>
<g id="a_edge33_Node000006_Node000016"><a xlink:title=" ">
<path fill="none" stroke="#63b8ff" d="M469.64,-254.41C470.36,-237.01 473.91,-207.82 488.62,-188.25 508.24,-162.17 536.15,-180.42 552.62,-152.25 561.99,-136.23 559.86,-127.59 552.62,-110.5 547.86,-99.24 538.72,-89.43 529.83,-81.9"/>
<polygon fill="#63b8ff" stroke="#63b8ff" points="532.09,-79.22 522.05,-75.83 527.78,-84.74 532.09,-79.22"/>
</a>
</g>
</g>
<!-- Node15&#45;&gt;Node3 -->
<g id="edge31_Node000015_Node000003" class="edge">
<title>Node15&#45;&gt;Node3</title>
<g id="a_edge31_Node000015_Node000003"><a xlink:title=" ">
<path fill="none" stroke="#63b8ff" d="M259.31,-187.84C239.43,-179.77 217.04,-168.12 200.62,-152.25 181.29,-133.56 168.61,-104.74 161.78,-85.61"/>
<polygon fill="#63b8ff" stroke="#63b8ff" points="165.16,-84.69 158.68,-76.31 158.52,-86.9 165.16,-84.69"/>
</a>
</g>
</g>
<!-- Node15&#45;&gt;Node7 -->
<g id="edge28_Node000015_Node000007" class="edge">
<title>Node15&#45;&gt;Node7</title>
<g id="a_edge28_Node000015_Node000007"><a xlink:title=" ">
<path fill="none" stroke="#63b8ff" d="M324.91,-187.78C337.22,-178.1 353.31,-164.93 366.62,-152.25 384.8,-134.95 382.74,-122.77 404.62,-110.5 478.84,-68.91 512.6,-103.37 592.62,-74.5 627.13,-62.05 663.69,-40.3 686.33,-25.69"/>
<polygon fill="#63b8ff" stroke="#63b8ff" points="688,-28.78 694.44,-20.36 684.16,-22.93 688,-28.78"/>
</a>
</g>
</g>
<!-- Node15&#45;&gt;Node8 -->
<g id="edge29_Node000015_Node000008" class="edge">
<title>Node15&#45;&gt;Node8</title>
<g id="a_edge29_Node000015_Node000008"><a xlink:title=" ">
<path fill="none" stroke="#63b8ff" d="M336.86,-187.8C362.84,-175.57 399.58,-158.28 425.08,-146.28"/>
<polygon fill="#63b8ff" stroke="#63b8ff" points="426.33,-149.56 433.89,-142.13 423.35,-143.23 426.33,-149.56"/>
</a>
</g>
</g>
<!-- Node15&#45;&gt;Node9 -->
<g id="edge30_Node000015_Node000009" class="edge">
<title>Node15&#45;&gt;Node9</title>
<g id="a_edge30_Node000015_Node000009"><a xlink:title=" ">
<path fill="none" stroke="#63b8ff" d="M365.98,-194.42C406.77,-187.27 460.93,-174.42 504.62,-152.25 506.9,-151.1 509.15,-149.69 511.31,-148.17"/>
<polygon fill="#63b8ff" stroke="#63b8ff" points="513.22,-151.13 518.79,-142.11 508.81,-145.69 513.22,-151.13"/>
</a>
</g>
</g>
<!-- Node15&#45;&gt;Node16 -->
<g id="edge15_Node000015_Node000016" class="edge">
<title>Node15&#45;&gt;Node16</title>
<g id="a_edge15_Node000015_Node000016"><a xlink:title=" ">
<path fill="none" stroke="#63b8ff" d="M312.42,-187.85C322.54,-167.61 343.43,-131.22 371.62,-110.5 392.84,-94.91 419.81,-84.56 444.06,-77.79"/>
<polygon fill="#63b8ff" stroke="#63b8ff" points="444.73,-81.24 453.52,-75.32 442.96,-74.47 444.73,-81.24"/>
</a>
</g>
</g>
<!-- Node21 -->
<g id="Node000021" class="node">
<title>Node21</title>
<g id="a_Node000021"><a xlink:href="composition__abstract__iterator_8h.html" target="_top" xlink:title=" ">
<polygon fill="white" stroke="#666666" points="319.5,-152.25 209.75,-152.25 209.75,-110.5 319.5,-110.5 319.5,-152.25"/>
<text xml:space="preserve" text-anchor="start" x="217.75" y="-138.75" font-family="Helvetica,sans-Serif" font-size="10.00">fourdst/composition</text>
<text xml:space="preserve" text-anchor="start" x="217.75" y="-127.5" font-family="Helvetica,sans-Serif" font-size="10.00">/iterators/composition</text>
<text xml:space="preserve" text-anchor="middle" x="264.62" y="-116.25" font-family="Helvetica,sans-Serif" font-size="10.00">_abstract_iterator.h</text>
</a>
</g>
</g>
<!-- Node15&#45;&gt;Node21 -->
<g id="edge22_Node000015_Node000021" class="edge">
<title>Node15&#45;&gt;Node21</title>
<g id="a_edge22_Node000015_Node000021"><a xlink:title=" ">
<path fill="none" stroke="#63b8ff" d="M297.13,-187.97C292.8,-180.57 287.37,-171.28 282.19,-162.42"/>
<polygon fill="#63b8ff" stroke="#63b8ff" points="285.36,-160.91 277.29,-154.04 279.32,-164.44 285.36,-160.91"/>
</a>
</g>
</g>
<!-- Node25 -->
<g id="Node000025" class="node">
<title>Node25</title>
<g id="a_Node000025"><a xlink:title=" ">
<polygon fill="#e0e0e0" stroke="#999999" points="153.25,-141 102,-141 102,-121.75 153.25,-121.75 153.25,-141"/>
<text xml:space="preserve" text-anchor="middle" x="127.62" y="-127.5" font-family="Helvetica,sans-Serif" font-size="10.00">memory</text>
</a>
</g>
</g>
<!-- Node15&#45;&gt;Node25 -->
<g id="edge32_Node000015_Node000025" class="edge">
<title>Node15&#45;&gt;Node25</title>
<g id="a_edge32_Node000015_Node000025"><a xlink:title=" ">
<path fill="none" stroke="#63b8ff" d="M261.32,-187.78C234.01,-178.36 198.44,-165.47 167.62,-152.25 163.42,-150.44 159.02,-148.41 154.75,-146.36"/>
<polygon fill="#63b8ff" stroke="#63b8ff" points="156.43,-143.29 145.91,-141.98 153.32,-149.56 156.43,-143.29"/>
</a>
</g>
</g>
<!-- Node16&#45;&gt;Node7 -->
<g id="edge18_Node000016_Node000007" class="edge">
<title>Node16&#45;&gt;Node7</title>
<g id="a_edge18_Node000016_Node000007"><a xlink:title=" ">
<path fill="none" stroke="#63b8ff" d="M543.51,-54.78C576.28,-46.6 625.73,-34.04 677.33,-19.81"/>
<polygon fill="#63b8ff" stroke="#63b8ff" points="678.21,-23.2 686.91,-17.16 676.34,-16.46 678.21,-23.2"/>
</a>
</g>
</g>
<!-- Node16&#45;&gt;Node10 -->
<g id="edge19_Node000016_Node000010" class="edge">
<title>Node16&#45;&gt;Node10</title>
<g id="a_edge19_Node000016_Node000010"><a xlink:title=" ">
<path fill="none" stroke="#63b8ff" d="M530.2,-54.84C552.47,-46.31 586.12,-33.42 611.35,-23.76"/>
<polygon fill="#63b8ff" stroke="#63b8ff" points="612.43,-27.09 620.52,-20.24 609.93,-20.55 612.43,-27.09"/>
</a>
</g>
</g>
<!-- Node17 -->
<g id="Node000017" class="node">
<title>Node17</title>
<g id="a_Node000017"><a xlink:title=" ">
<polygon fill="#e0e0e0" stroke="#999999" points="385.5,-19.25 341.75,-19.25 341.75,0 385.5,0 385.5,-19.25"/>
<text xml:space="preserve" text-anchor="middle" x="363.62" y="-5.75" font-family="Helvetica,sans-Serif" font-size="10.00">format</text>
</a>
</g>
</g>
<!-- Node16&#45;&gt;Node17 -->
<g id="edge16_Node000016_Node000017" class="edge">
<title>Node16&#45;&gt;Node17</title>
<g id="a_edge16_Node000016_Node000017"><a xlink:title=" ">
<path fill="none" stroke="#63b8ff" d="M482.37,-54.84C458.66,-46.01 422.41,-32.52 396.2,-22.76"/>
<polygon fill="#63b8ff" stroke="#63b8ff" points="397.66,-19.56 387.07,-19.35 395.22,-26.12 397.66,-19.56"/>
</a>
</g>
</g>
<!-- Node18 -->
<g id="Node000018" class="node">
<title>Node18</title>
<g id="a_Node000018"><a xlink:title=" ">
<polygon fill="#e0e0e0" stroke="#999999" points="469.38,-19.25 403.88,-19.25 403.88,0 469.38,0 469.38,-19.25"/>
<text xml:space="preserve" text-anchor="middle" x="436.62" y="-5.75" font-family="Helvetica,sans-Serif" font-size="10.00">string_view</text>
</a>
</g>
</g>
<!-- Node16&#45;&gt;Node18 -->
<g id="edge17_Node000016_Node000018" class="edge">
<title>Node16&#45;&gt;Node18</title>
<g id="a_edge17_Node000016_Node000018"><a xlink:title=" ">
<path fill="none" stroke="#63b8ff" d="M494.75,-54.84C484.53,-47.07 469.55,-35.67 457.36,-26.4"/>
<polygon fill="#63b8ff" stroke="#63b8ff" points="459.61,-23.71 449.53,-20.44 455.37,-29.28 459.61,-23.71"/>
</a>
</g>
</g>
<!-- Node19 -->
<g id="Node000019" class="node">
<title>Node19</title>
<g id="a_Node000019"><a xlink:title=" ">
<polygon fill="#e0e0e0" stroke="#999999" points="526.25,-19.25 487,-19.25 487,0 526.25,0 526.25,-19.25"/>
<text xml:space="preserve" text-anchor="middle" x="506.62" y="-5.75" font-family="Helvetica,sans-Serif" font-size="10.00">limits</text>
</a>
</g>
</g>
<!-- Node16&#45;&gt;Node19 -->
<g id="edge20_Node000016_Node000019" class="edge">
<title>Node16&#45;&gt;Node19</title>
<g id="a_edge20_Node000016_Node000019"><a xlink:title=" ">
<path fill="none" stroke="#63b8ff" d="M506.62,-55.08C506.62,-48.57 506.62,-39.42 506.62,-31.12"/>
<polygon fill="#63b8ff" stroke="#63b8ff" points="510.13,-31.12 506.63,-21.12 503.13,-31.12 510.13,-31.12"/>
</a>
</g>
</g>
<!-- Node20 -->
<g id="Node000020" class="node">
<title>Node20</title>
<g id="a_Node000020"><a xlink:title=" ">
<polygon fill="#e0e0e0" stroke="#999999" points="603,-19.25 544.25,-19.25 544.25,0 603,0 603,-19.25"/>
<text xml:space="preserve" text-anchor="middle" x="573.62" y="-5.75" font-family="Helvetica,sans-Serif" font-size="10.00">stdexcept</text>
</a>
</g>
</g>
<!-- Node16&#45;&gt;Node20 -->
<g id="edge21_Node000016_Node000020" class="edge">
<title>Node16&#45;&gt;Node20</title>
<g id="a_edge21_Node000016_Node000020"><a xlink:title=" ">
<path fill="none" stroke="#63b8ff" d="M517.99,-54.84C527.67,-47.15 541.82,-35.9 553.43,-26.68"/>
<polygon fill="#63b8ff" stroke="#63b8ff" points="555.59,-29.43 561.24,-20.47 551.24,-23.95 555.59,-29.43"/>
</a>
</g>
</g>
<!-- Node21&#45;&gt;Node3 -->
<g id="edge23_Node000021_Node000003" class="edge">
<title>Node21&#45;&gt;Node3</title>
<g id="a_edge23_Node000021_Node000003"><a xlink:title=" ">
<path fill="none" stroke="#63b8ff" d="M230.44,-110.14C214.2,-100.54 195.16,-89.27 180.36,-80.51"/>
<polygon fill="#63b8ff" stroke="#63b8ff" points="182.56,-77.75 172.17,-75.67 178.99,-83.77 182.56,-77.75"/>
</a>
</g>
</g>
<!-- Node21&#45;&gt;Node16 -->
<g id="edge27_Node000021_Node000016" class="edge">
<title>Node21&#45;&gt;Node16</title>
<g id="a_edge27_Node000021_Node000016"><a xlink:title=" ">
<path fill="none" stroke="#63b8ff" d="M319.95,-114.29C324.57,-112.99 329.18,-111.71 333.62,-110.5 376.02,-98.93 424.47,-86.5 459.29,-77.7"/>
<polygon fill="#63b8ff" stroke="#63b8ff" points="459.79,-81.19 468.63,-75.35 458.08,-74.4 459.79,-81.19"/>
</a>
</g>
</g>
<!-- Node22 -->
<g id="Node000022" class="node">
<title>Node22</title>
<g id="a_Node000022"><a xlink:title=" ">
<polygon fill="#e0e0e0" stroke="#999999" points="312.62,-74.5 266.62,-74.5 266.62,-55.25 312.62,-55.25 312.62,-74.5"/>
<text xml:space="preserve" text-anchor="middle" x="289.62" y="-61" font-family="Helvetica,sans-Serif" font-size="10.00">iterator</text>
</a>
</g>
</g>
<!-- Node21&#45;&gt;Node22 -->
<g id="edge24_Node000021_Node000022" class="edge">
<title>Node21&#45;&gt;Node22</title>
<g id="a_edge24_Node000021_Node000022"><a xlink:title=" ">
<path fill="none" stroke="#63b8ff" d="M272.4,-110.32C275.44,-102.46 278.93,-93.47 281.96,-85.64"/>
<polygon fill="#63b8ff" stroke="#63b8ff" points="285.21,-86.95 285.56,-76.36 278.68,-84.42 285.21,-86.95"/>
</a>
</g>
</g>
<!-- Node23 -->
<g id="Node000023" class="node">
<title>Node23</title>
<g id="a_Node000023"><a xlink:title=" ">
<polygon fill="#e0e0e0" stroke="#999999" points="370.25,-74.5 331,-74.5 331,-55.25 370.25,-55.25 370.25,-74.5"/>
<text xml:space="preserve" text-anchor="middle" x="350.62" y="-61" font-family="Helvetica,sans-Serif" font-size="10.00">utility</text>
</a>
</g>
</g>
<!-- Node21&#45;&gt;Node23 -->
<g id="edge25_Node000021_Node000023" class="edge">
<title>Node21&#45;&gt;Node23</title>
<g id="a_edge25_Node000021_Node000023"><a xlink:title=" ">
<path fill="none" stroke="#63b8ff" d="M291.36,-110.32C303.69,-101.08 318.11,-90.26 329.64,-81.62"/>
<polygon fill="#63b8ff" stroke="#63b8ff" points="331.42,-84.65 337.32,-75.85 327.22,-79.05 331.42,-84.65"/>
</a>
</g>
</g>
<!-- Node24 -->
<g id="Node000024" class="node">
<title>Node24</title>
<g id="a_Node000024"><a xlink:title=" ">
<polygon fill="#e0e0e0" stroke="#999999" points="248.38,-74.5 194.88,-74.5 194.88,-55.25 248.38,-55.25 248.38,-74.5"/>
<text xml:space="preserve" text-anchor="middle" x="221.62" y="-61" font-family="Helvetica,sans-Serif" font-size="10.00">compare</text>
</a>
</g>
</g>
<!-- Node21&#45;&gt;Node24 -->
<g id="edge26_Node000021_Node000024" class="edge">
<title>Node21&#45;&gt;Node24</title>
<g id="a_edge26_Node000021_Node000024"><a xlink:title=" ">
<path fill="none" stroke="#63b8ff" d="M251.26,-110.32C245.71,-102 239.31,-92.41 233.89,-84.27"/>
<polygon fill="#63b8ff" stroke="#63b8ff" points="236.97,-82.58 228.51,-76.2 231.15,-86.47 236.97,-82.58"/>
</a>
</g>
</g>
</g>
</svg>
