<?xml version="1.0" encoding="UTF-8" standalone="no"?>
<!DOCTYPE svg PUBLIC "-//W3C//DTD SVG 1.1//EN"
 "http://www.w3.org/Graphics/SVG/1.1/DTD/svg11.dtd">
<!-- Generated by graphviz version 13.0.1 (20250615.1724)
 -->
<!-- Title: src/composition/include/fourdst/composition/composition.h Pages: 1 -->
<svg width="296pt" height="172pt"
 viewBox="0.00 0.00 296.00 172.00" xmlns="http://www.w3.org/2000/svg" xmlns:xlink="http://www.w3.org/1999/xlink">
<g id="graph0" class="graph" transform="scale(1 1) rotate(0) translate(4 167.5)">
<title>src/composition/include/fourdst/composition/composition.h</title>
<!-- Node1 -->
<g id="Node000001" class="node">
<title>Node1</title>
<g id="a_Node000001"><a xlink:title=" ">
<polygon fill="#999999" stroke="#666666" points="246,-163.5 77.75,-163.5 77.75,-133 246,-133 246,-163.5"/>
<text xml:space="preserve" text-anchor="start" x="85.75" y="-150" font-family="Helvetica,sans-Serif" font-size="10.00">src/composition/include</text>
<text xml:space="preserve" text-anchor="middle" x="161.88" y="-138.75" font-family="Helvetica,sans-Serif" font-size="10.00">/fourdst/composition/composition.h</text>
</a>
</g>
</g>
<!-- Node2 -->
<g id="Node000002" class="node">
<title>Node2</title>
<g id="a_Node000002"><a xlink:href="utils_8h.html" target="_top" xlink:title=" ">
<polygon fill="white" stroke="#666666" points="133.75,-97 0,-97 0,-66.5 133.75,-66.5 133.75,-97"/>
<text xml:space="preserve" text-anchor="start" x="8" y="-83.5" font-family="Helvetica,sans-Serif" font-size="10.00">src/composition/include</text>
<text xml:space="preserve" text-anchor="middle" x="66.88" y="-72.25" font-family="Helvetica,sans-Serif" font-size="10.00">/fourdst/composition/utils.h</text>
</a>
</g>
</g>
<!-- Node1&#45;&gt;Node2 -->
<g id="edge1_Node000001_Node000002" class="edge">
<title>Node1&#45;&gt;Node2</title>
<g id="a_edge1_Node000001_Node000002"><a xlink:title=" ">
<path fill="none" stroke="#63b8ff" d="M131.08,-126.34C117.12,-116.87 100.96,-105.89 88.35,-97.33"/>
<polygon fill="#63b8ff" stroke="#63b8ff" points="128.83,-129.04 139.07,-131.76 132.76,-123.25 128.83,-129.04"/>
</a>
</g>
</g>
<!-- Node3 -->
<g id="Node000003" class="node">
<title>Node3</title>
<g id="a_Node000003"><a xlink:href="utils_8cpp.html" target="_top" xlink:title=" ">
<polygon fill="white" stroke="#666666" points="162.75,-30.5 65,-30.5 65,0 162.75,0 162.75,-30.5"/>
<text xml:space="preserve" text-anchor="start" x="73" y="-17" font-family="Helvetica,sans-Serif" font-size="10.00">src/composition/lib</text>
<text xml:space="preserve" text-anchor="middle" x="113.88" y="-5.75" font-family="Helvetica,sans-Serif" font-size="10.00">/utils.cpp</text>
</a>
</g>
</g>
<!-- Node1&#45;&gt;Node3 -->
<g id="edge4_Node000001_Node000003" class="edge">
<title>Node1&#45;&gt;Node3</title>
<g id="a_edge4_Node000001_Node000003"><a xlink:title=" ">
<path fill="none" stroke="#63b8ff" d="M157.77,-121.31C154.73,-105.18 149.89,-84.21 142.88,-66.5 137.83,-53.76 129.96,-40.38 123.69,-30.63"/>
<polygon fill="#63b8ff" stroke="#63b8ff" points="154.31,-121.83 159.48,-131.08 161.2,-120.62 154.31,-121.83"/>
</a>
</g>
</g>
<!-- Node4 -->
<g id="Node000004" class="node">
<title>Node4</title>
<g id="a_Node000004"><a xlink:href="composition_8cpp.html" target="_top" xlink:title=" ">
<polygon fill="white" stroke="#666666" points="287.75,-97 190,-97 190,-66.5 287.75,-66.5 287.75,-97"/>
<text xml:space="preserve" text-anchor="start" x="198" y="-83.5" font-family="Helvetica,sans-Serif" font-size="10.00">src/composition/lib</text>
<text xml:space="preserve" text-anchor="middle" x="238.88" y="-72.25" font-family="Helvetica,sans-Serif" font-size="10.00">/composition.cpp</text>
</a>
</g>
</g>
<!-- Node1&#45;&gt;Node4 -->
<g id="edge3_Node000001_Node000004" class="edge">
<title>Node1&#45;&gt;Node4</title>
<g id="a_edge3_Node000001_Node000004"><a xlink:title=" ">
<path fill="none" stroke="#63b8ff" d="M188.15,-125.24C199.15,-116.03 211.64,-105.56 221.47,-97.33"/>
<polygon fill="#63b8ff" stroke="#63b8ff" points="185.93,-122.54 180.51,-131.64 190.42,-127.9 185.93,-122.54"/>
</a>
</g>
</g>
<!-- Node2&#45;&gt;Node3 -->
<g id="edge2_Node000002_Node000003" class="edge">
<title>Node2&#45;&gt;Node3</title>
<g id="a_edge2_Node000002_Node000003"><a xlink:title=" ">
<path fill="none" stroke="#63b8ff" d="M84.13,-57.07C90.54,-48.28 97.61,-38.57 103.25,-30.83"/>
<polygon fill="#63b8ff" stroke="#63b8ff" points="81.49,-54.75 78.43,-64.89 87.15,-58.87 81.49,-54.75"/>
</a>
</g>
</g>
</g>
</svg>
