<?xml version="1.0" encoding="UTF-8" standalone="no"?>
<!DOCTYPE svg PUBLIC "-//W3C//DTD SVG 1.1//EN"
 "http://www.w3.org/Graphics/SVG/1.1/DTD/svg11.dtd">
<!-- Generated by graphviz version 14.1.2 (20260124.0452)
 -->
<!-- Title: src/composition/include/fourdst/composition/iterators/composition_abstract_iterator.h Pages: 1 -->
<svg width="552pt" height="361pt"
 viewBox="0.00 0.00 552.00 361.00" xmlns="http://www.w3.org/2000/svg" xmlns:xlink="http://www.w3.org/1999/xlink">
<g id="graph0" class="graph" transform="scale(1 1) rotate(0) translate(4 356.75)">
<title>src/composition/include/fourdst/composition/iterators/composition_abstract_iterator.h</title>
<!-- Node1 -->
<g id="Node000001" class="node">
<title>Node1</title>
<g id="a_Node000001"><a xlink:title=" ">
<polygon fill="#999999" stroke="#666666" points="523.25,-352.75 368.5,-352.75 368.5,-311 523.25,-311 523.25,-352.75"/>
<text xml:space="preserve" text-anchor="start" x="376.5" y="-339.25" font-family="Helvetica,sans-Serif" font-size="10.00">src/composition/include</text>
<text xml:space="preserve" text-anchor="start" x="376.5" y="-328" font-family="Helvetica,sans-Serif" font-size="10.00">/fourdst/composition/iterators</text>
<text xml:space="preserve" text-anchor="middle" x="445.88" y="-316.75" font-family="Helvetica,sans-Serif" font-size="10.00">/composition_abstract_iterator.h</text>
</a>
</g>
</g>
<!-- Node2 -->
<g id="Node000002" class="node">
<title>Node2</title>
<g id="a_Node000002"><a xlink:href="composition__abstract_8h.html" target="_top" xlink:title=" ">
<polygon fill="white" stroke="#666666" points="414.88,-275 254.88,-275 254.88,-233.25 414.88,-233.25 414.88,-275"/>
<text xml:space="preserve" text-anchor="start" x="262.88" y="-261.5" font-family="Helvetica,sans-Serif" font-size="10.00">src/composition/include</text>
<text xml:space="preserve" text-anchor="start" x="262.88" y="-250.25" font-family="Helvetica,sans-Serif" font-size="10.00">/fourdst/composition/composition</text>
<text xml:space="preserve" text-anchor="middle" x="334.88" y="-239" font-family="Helvetica,sans-Serif" font-size="10.00">_abstract.h</text>
</a>
</g>
</g>
<!-- Node1&#45;&gt;Node2 -->
<g id="edge1_Node000001_Node000002" class="edge">
<title>Node1&#45;&gt;Node2</title>
<g id="a_edge1_Node000001_Node000002"><a xlink:title=" ">
<path fill="none" stroke="#63b8ff" d="M406.84,-304.23C392.99,-294.79 377.65,-284.32 364.7,-275.48"/>
<polygon fill="#63b8ff" stroke="#63b8ff" points="404.65,-306.98 414.88,-309.72 408.59,-301.19 404.65,-306.98"/>
</a>
</g>
</g>
<!-- Node9 -->
<g id="Node000009" class="node">
<title>Node9</title>
<g id="a_Node000009"><a xlink:href="composition__decorator__abstract_8h.html" target="_top" xlink:title=" ">
<polygon fill="white" stroke="#666666" points="528.88,-197.25 362.88,-197.25 362.88,-155.5 528.88,-155.5 528.88,-197.25"/>
<text xml:space="preserve" text-anchor="start" x="370.88" y="-183.75" font-family="Helvetica,sans-Serif" font-size="10.00">src/composition/include</text>
<text xml:space="preserve" text-anchor="start" x="370.88" y="-172.5" font-family="Helvetica,sans-Serif" font-size="10.00">/fourdst/composition/decorators</text>
<text xml:space="preserve" text-anchor="middle" x="445.88" y="-161.25" font-family="Helvetica,sans-Serif" font-size="10.00">/composition_decorator_abstract.h</text>
</a>
</g>
</g>
<!-- Node1&#45;&gt;Node9 -->
<g id="edge16_Node000001_Node000009" class="edge">
<title>Node1&#45;&gt;Node9</title>
<g id="a_edge16_Node000001_Node000009"><a xlink:title=" ">
<path fill="none" stroke="#63b8ff" d="M445.88,-299.51C445.88,-268.96 445.88,-223.42 445.88,-197.45"/>
<polygon fill="#63b8ff" stroke="#63b8ff" points="442.38,-299.29 445.88,-309.29 449.38,-299.29 442.38,-299.29"/>
</a>
</g>
</g>
<!-- Node10 -->
<g id="Node000010" class="node">
<title>Node10</title>
<g id="a_Node000010"><a xlink:href="composition__masked_8h.html" target="_top" xlink:title=" ">
<polygon fill="white" stroke="#666666" points="526.5,-119.5 373.25,-119.5 373.25,-77.75 526.5,-77.75 526.5,-119.5"/>
<text xml:space="preserve" text-anchor="start" x="381.25" y="-106" font-family="Helvetica,sans-Serif" font-size="10.00">src/composition/include</text>
<text xml:space="preserve" text-anchor="start" x="381.25" y="-94.75" font-family="Helvetica,sans-Serif" font-size="10.00">/fourdst/composition/decorators</text>
<text xml:space="preserve" text-anchor="middle" x="449.88" y="-83.5" font-family="Helvetica,sans-Serif" font-size="10.00">/composition_masked.h</text>
</a>
</g>
</g>
<!-- Node1&#45;&gt;Node10 -->
<g id="edge17_Node000001_Node000010" class="edge">
<title>Node1&#45;&gt;Node10</title>
<g id="a_edge17_Node000001_Node000010"><a xlink:title=" ">
<path fill="none" stroke="#63b8ff" d="M473.16,-302.46C495.44,-277.15 525.23,-237.91 537.88,-197.25 543.38,-179.53 546.81,-171.76 537.88,-155.5 529.51,-140.27 515.04,-128.61 500.23,-119.98"/>
<polygon fill="#63b8ff" stroke="#63b8ff" points="470.74,-299.92 466.65,-309.69 475.94,-304.6 470.74,-299.92"/>
</a>
</g>
</g>
<!-- Node3 -->
<g id="Node000003" class="node">
<title>Node3</title>
<g id="a_Node000003"><a xlink:href="composition_8h.html" target="_top" xlink:title=" ">
<polygon fill="white" stroke="#666666" points="269,-191.62 100.75,-191.62 100.75,-161.12 269,-161.12 269,-191.62"/>
<text xml:space="preserve" text-anchor="start" x="108.75" y="-178.12" font-family="Helvetica,sans-Serif" font-size="10.00">src/composition/include</text>
<text xml:space="preserve" text-anchor="middle" x="184.88" y="-166.88" font-family="Helvetica,sans-Serif" font-size="10.00">/fourdst/composition/composition.h</text>
</a>
</g>
</g>
<!-- Node2&#45;&gt;Node3 -->
<g id="edge2_Node000002_Node000003" class="edge">
<title>Node2&#45;&gt;Node3</title>
<g id="a_edge2_Node000002_Node000003"><a xlink:title=" ">
<path fill="none" stroke="#63b8ff" d="M284.5,-227.69C260.96,-215.8 233.78,-202.07 213.77,-191.96"/>
<polygon fill="#63b8ff" stroke="#63b8ff" points="282.82,-230.76 293.33,-232.14 285.98,-224.51 282.82,-230.76"/>
</a>
</g>
</g>
<!-- Node7 -->
<g id="Node000007" class="node">
<title>Node7</title>
<g id="a_Node000007"><a xlink:href="composition__hash_8h.html" target="_top" xlink:title=" ">
<polygon fill="white" stroke="#666666" points="355.62,-119.5 230.12,-119.5 230.12,-77.75 355.62,-77.75 355.62,-119.5"/>
<text xml:space="preserve" text-anchor="start" x="238.12" y="-106" font-family="Helvetica,sans-Serif" font-size="10.00">src/composition/include</text>
<text xml:space="preserve" text-anchor="start" x="238.12" y="-94.75" font-family="Helvetica,sans-Serif" font-size="10.00">/fourdst/composition/utils</text>
<text xml:space="preserve" text-anchor="middle" x="292.88" y="-83.5" font-family="Helvetica,sans-Serif" font-size="10.00">/composition_hash.h</text>
</a>
</g>
</g>
<!-- Node2&#45;&gt;Node7 -->
<g id="edge15_Node000002_Node000007" class="edge">
<title>Node2&#45;&gt;Node7</title>
<g id="a_edge15_Node000002_Node000007"><a xlink:title=" ">
<path fill="none" stroke="#63b8ff" d="M326.4,-222.17C318.04,-191.61 305.51,-145.79 298.37,-119.7"/>
<polygon fill="#63b8ff" stroke="#63b8ff" points="322.97,-222.88 328.98,-231.6 329.72,-221.03 322.97,-222.88"/>
</a>
</g>
</g>
<!-- Node2&#45;&gt;Node9 -->
<g id="edge11_Node000002_Node000009" class="edge">
<title>Node2&#45;&gt;Node9</title>
<g id="a_edge11_Node000002_Node000009"><a xlink:title=" ">
<path fill="none" stroke="#63b8ff" d="M373.91,-226.48C387.76,-217.04 403.1,-206.57 416.05,-197.73"/>
<polygon fill="#63b8ff" stroke="#63b8ff" points="372.16,-223.44 365.87,-231.97 376.1,-229.23 372.16,-223.44"/>
</a>
</g>
</g>
<!-- Node2&#45;&gt;Node10 -->
<g id="edge14_Node000002_Node000010" class="edge">
<title>Node2&#45;&gt;Node10</title>
<g id="a_edge14_Node000002_Node000010"><a xlink:title=" ">
<path fill="none" stroke="#63b8ff" d="M334.51,-221.62C335.74,-201.1 340.24,-174.68 353.88,-155.5 364.71,-140.25 381.12,-128.54 397.32,-119.87"/>
<polygon fill="#63b8ff" stroke="#63b8ff" points="331.02,-221.29 334.17,-231.4 338.02,-221.53 331.02,-221.29"/>
</a>
</g>
</g>
<!-- Node4 -->
<g id="Node000004" class="node">
<title>Node4</title>
<g id="a_Node000004"><a xlink:href="utils_8h.html" target="_top" xlink:title=" ">
<polygon fill="white" stroke="#666666" points="173.75,-113.88 40,-113.88 40,-83.38 173.75,-83.38 173.75,-113.88"/>
<text xml:space="preserve" text-anchor="start" x="48" y="-100.38" font-family="Helvetica,sans-Serif" font-size="10.00">src/composition/include</text>
<text xml:space="preserve" text-anchor="middle" x="106.88" y="-89.12" font-family="Helvetica,sans-Serif" font-size="10.00">/fourdst/composition/utils.h</text>
</a>
</g>
</g>
<!-- Node3&#45;&gt;Node4 -->
<g id="edge3_Node000003_Node000004" class="edge">
<title>Node3&#45;&gt;Node4</title>
<g id="a_edge3_Node000003_Node000004"><a xlink:title=" ">
<path fill="none" stroke="#63b8ff" d="M161.83,-153C148.92,-140.46 133.19,-125.18 121.87,-114.19"/>
<polygon fill="#63b8ff" stroke="#63b8ff" points="159.14,-155.26 168.75,-159.72 164.01,-150.24 159.14,-155.26"/>
</a>
</g>
</g>
<!-- Node5 -->
<g id="Node000005" class="node">
<title>Node5</title>
<g id="a_Node000005"><a xlink:href="composition_8cpp.html" target="_top" xlink:title=" ">
<polygon fill="white" stroke="#666666" points="250.75,-36.12 153,-36.12 153,-5.62 250.75,-5.62 250.75,-36.12"/>
<text xml:space="preserve" text-anchor="start" x="161" y="-22.62" font-family="Helvetica,sans-Serif" font-size="10.00">src/composition/lib</text>
<text xml:space="preserve" text-anchor="middle" x="201.88" y="-11.38" font-family="Helvetica,sans-Serif" font-size="10.00">/composition.cpp</text>
</a>
</g>
</g>
<!-- Node3&#45;&gt;Node5 -->
<g id="edge9_Node000003_Node000005" class="edge">
<title>Node3&#45;&gt;Node5</title>
<g id="a_edge9_Node000003_Node000005"><a xlink:title=" ">
<path fill="none" stroke="#63b8ff" d="M187.76,-149.37C191.36,-116.82 197.41,-62.21 200.27,-36.32"/>
<polygon fill="#63b8ff" stroke="#63b8ff" points="184.29,-148.83 186.67,-159.15 191.25,-149.6 184.29,-148.83"/>
</a>
</g>
</g>
<!-- Node6 -->
<g id="Node000006" class="node">
<title>Node6</title>
<g id="a_Node000006"><a xlink:href="utils_8cpp.html" target="_top" xlink:title=" ">
<polygon fill="white" stroke="#666666" points="97.75,-36.12 0,-36.12 0,-5.62 97.75,-5.62 97.75,-36.12"/>
<text xml:space="preserve" text-anchor="start" x="8" y="-22.62" font-family="Helvetica,sans-Serif" font-size="10.00">src/composition/lib</text>
<text xml:space="preserve" text-anchor="middle" x="48.88" y="-11.38" font-family="Helvetica,sans-Serif" font-size="10.00">/utils.cpp</text>
</a>
</g>
</g>
<!-- Node3&#45;&gt;Node6 -->
<g id="edge10_Node000003_Node000006" class="edge">
<title>Node3&#45;&gt;Node6</title>
<g id="a_edge10_Node000003_Node000006"><a xlink:title=" ">
<path fill="none" stroke="#63b8ff" d="M89.48,-160.52C66.63,-152.25 44.83,-139.4 30.88,-119.5 13.27,-94.38 28.85,-56.99 39.98,-36.55"/>
<polygon fill="#63b8ff" stroke="#63b8ff" points="88.36,-163.84 98.95,-163.65 90.55,-157.19 88.36,-163.84"/>
</a>
</g>
</g>
<!-- Node3&#45;&gt;Node7 -->
<g id="edge6_Node000003_Node000007" class="edge">
<title>Node3&#45;&gt;Node7</title>
<g id="a_edge6_Node000003_Node000007"><a xlink:title=" ">
<path fill="none" stroke="#63b8ff" d="M214.77,-154.4C230.12,-143.64 248.74,-130.58 263.95,-119.91"/>
<polygon fill="#63b8ff" stroke="#63b8ff" points="213.11,-151.29 206.94,-159.9 217.13,-157.02 213.11,-151.29"/>
</a>
</g>
</g>
<!-- Node4&#45;&gt;Node5 -->
<g id="edge4_Node000004_Node000005" class="edge">
<title>Node4&#45;&gt;Node5</title>
<g id="a_edge4_Node000004_Node000005"><a xlink:title=" ">
<path fill="none" stroke="#63b8ff" d="M134.05,-75.96C149.94,-63.29 169.57,-47.64 183.61,-36.44"/>
<polygon fill="#63b8ff" stroke="#63b8ff" points="132.01,-73.11 126.38,-82.08 136.38,-78.58 132.01,-73.11"/>
</a>
</g>
</g>
<!-- Node4&#45;&gt;Node6 -->
<g id="edge5_Node000004_Node000006" class="edge">
<title>Node4&#45;&gt;Node6</title>
<g id="a_edge5_Node000004_Node000006"><a xlink:title=" ">
<path fill="none" stroke="#63b8ff" d="M88.91,-74.17C79.47,-61.84 68.2,-47.11 60.02,-36.44"/>
<polygon fill="#63b8ff" stroke="#63b8ff" points="85.91,-76.01 94.77,-81.82 91.47,-71.75 85.91,-76.01"/>
</a>
</g>
</g>
<!-- Node7&#45;&gt;Node5 -->
<g id="edge7_Node000007_Node000005" class="edge">
<title>Node7&#45;&gt;Node5</title>
<g id="a_edge7_Node000007_Node000005"><a xlink:title=" ">
<path fill="none" stroke="#63b8ff" d="M259.8,-70.09C246.13,-58.71 230.84,-45.98 219.4,-36.46"/>
<polygon fill="#63b8ff" stroke="#63b8ff" points="257.4,-72.65 267.33,-76.36 261.88,-67.27 257.4,-72.65"/>
</a>
</g>
</g>
<!-- Node8 -->
<g id="Node000008" class="node">
<title>Node8</title>
<g id="a_Node000008"><a xlink:href="composition__masked_8cpp.html" target="_top" xlink:title=" ">
<polygon fill="white" stroke="#666666" points="449,-41.75 328.75,-41.75 328.75,0 449,0 449,-41.75"/>
<text xml:space="preserve" text-anchor="start" x="336.75" y="-28.25" font-family="Helvetica,sans-Serif" font-size="10.00">src/composition/lib</text>
<text xml:space="preserve" text-anchor="start" x="336.75" y="-17" font-family="Helvetica,sans-Serif" font-size="10.00">/decorators/composition</text>
<text xml:space="preserve" text-anchor="middle" x="388.88" y="-5.75" font-family="Helvetica,sans-Serif" font-size="10.00">_masked.cpp</text>
</a>
</g>
</g>
<!-- Node7&#45;&gt;Node8 -->
<g id="edge8_Node000007_Node000008" class="edge">
<title>Node7&#45;&gt;Node8</title>
<g id="a_edge8_Node000007_Node000008"><a xlink:title=" ">
<path fill="none" stroke="#63b8ff" d="M327.33,-70.44C339.12,-61.14 352.09,-50.9 363.08,-42.23"/>
<polygon fill="#63b8ff" stroke="#63b8ff" points="325.47,-67.45 319.79,-76.39 329.81,-72.94 325.47,-67.45"/>
</a>
</g>
</g>
<!-- Node9&#45;&gt;Node10 -->
<g id="edge12_Node000009_Node000010" class="edge">
<title>Node9&#45;&gt;Node10</title>
<g id="a_edge12_Node000009_Node000010"><a xlink:title=" ">
<path fill="none" stroke="#63b8ff" d="M447.54,-143.75C447.97,-135.71 448.41,-127.29 448.8,-119.98"/>
<polygon fill="#63b8ff" stroke="#63b8ff" points="444.06,-143.39 447.03,-153.56 451.05,-143.76 444.06,-143.39"/>
</a>
</g>
</g>
<!-- Node10&#45;&gt;Node8 -->
<g id="edge13_Node000010_Node000008" class="edge">
<title>Node10&#45;&gt;Node8</title>
<g id="a_edge13_Node000010_Node000008"><a xlink:title=" ">
<path fill="none" stroke="#63b8ff" d="M426.43,-68.51C419.37,-59.74 411.77,-50.3 405.27,-42.23"/>
<polygon fill="#63b8ff" stroke="#63b8ff" points="423.58,-70.55 432.58,-76.15 429.03,-66.16 423.58,-70.55"/>
</a>
</g>
</g>
</g>
</svg>
