<?xml version="1.0" encoding="UTF-8" standalone="no"?>
<!DOCTYPE svg PUBLIC "-//W3C//DTD SVG 1.1//EN"
 "http://www.w3.org/Graphics/SVG/1.1/DTD/svg11.dtd">
<!-- Generated by graphviz version 14.1.2 (20260124.0452)
 -->
<!-- Title: src/composition/include/fourdst/composition/composition_abstract.h Pages: 1 -->
<svg width="714pt" height="283pt"
 viewBox="0.00 0.00 714.00 283.00" xmlns="http://www.w3.org/2000/svg" xmlns:xlink="http://www.w3.org/1999/xlink">
<g id="graph0" class="graph" transform="scale(1 1) rotate(0) translate(4 279)">
<title>src/composition/include/fourdst/composition/composition_abstract.h</title>
<!-- Node1 -->
<g id="Node000001" class="node">
<title>Node1</title>
<g id="a_Node000001"><a xlink:title=" ">
<polygon fill="#999999" stroke="#666666" points="566.88,-275 406.88,-275 406.88,-233.25 566.88,-233.25 566.88,-275"/>
<text xml:space="preserve" text-anchor="start" x="414.88" y="-261.5" font-family="Helvetica,sans-Serif" font-size="10.00">src/composition/include</text>
<text xml:space="preserve" text-anchor="start" x="414.88" y="-250.25" font-family="Helvetica,sans-Serif" font-size="10.00">/fourdst/composition/composition</text>
<text xml:space="preserve" text-anchor="middle" x="486.88" y="-239" font-family="Helvetica,sans-Serif" font-size="10.00">_abstract.h</text>
</a>
</g>
</g>
<!-- Node2 -->
<g id="Node000002" class="node">
<title>Node2</title>
<g id="a_Node000002"><a xlink:href="composition_8h.html" target="_top" xlink:title=" ">
<polygon fill="white" stroke="#666666" points="369,-191.62 200.75,-191.62 200.75,-161.12 369,-161.12 369,-191.62"/>
<text xml:space="preserve" text-anchor="start" x="208.75" y="-178.12" font-family="Helvetica,sans-Serif" font-size="10.00">src/composition/include</text>
<text xml:space="preserve" text-anchor="middle" x="284.88" y="-166.88" font-family="Helvetica,sans-Serif" font-size="10.00">/fourdst/composition/composition.h</text>
</a>
</g>
</g>
<!-- Node1&#45;&gt;Node2 -->
<g id="edge1_Node000001_Node000002" class="edge">
<title>Node1&#45;&gt;Node2</title>
<g id="a_edge1_Node000001_Node000002"><a xlink:title=" ">
<path fill="none" stroke="#63b8ff" d="M422.05,-228.81C389.8,-216.72 351.88,-202.5 324.1,-192.08"/>
<polygon fill="#63b8ff" stroke="#63b8ff" points="420.73,-232.06 431.33,-232.29 423.19,-225.51 420.73,-232.06"/>
</a>
</g>
</g>
<!-- Node5 -->
<g id="Node000005" class="node">
<title>Node5</title>
<g id="a_Node000005"><a xlink:href="composition__hash_8h.html" target="_top" xlink:title=" ">
<polygon fill="white" stroke="#666666" points="529.62,-119.5 404.12,-119.5 404.12,-77.75 529.62,-77.75 529.62,-119.5"/>
<text xml:space="preserve" text-anchor="start" x="412.12" y="-106" font-family="Helvetica,sans-Serif" font-size="10.00">src/composition/include</text>
<text xml:space="preserve" text-anchor="start" x="412.12" y="-94.75" font-family="Helvetica,sans-Serif" font-size="10.00">/fourdst/composition/utils</text>
<text xml:space="preserve" text-anchor="middle" x="466.88" y="-83.5" font-family="Helvetica,sans-Serif" font-size="10.00">/composition_hash.h</text>
</a>
</g>
</g>
<!-- Node1&#45;&gt;Node5 -->
<g id="edge18_Node000001_Node000005" class="edge">
<title>Node1&#45;&gt;Node5</title>
<g id="a_edge18_Node000001_Node000005"><a xlink:title=" ">
<path fill="none" stroke="#63b8ff" d="M482.79,-221.76C478.81,-191.21 472.87,-145.67 469.49,-119.7"/>
<polygon fill="#63b8ff" stroke="#63b8ff" points="479.3,-222.09 484.06,-231.56 486.24,-221.19 479.3,-222.09"/>
</a>
</g>
</g>
<!-- Node10 -->
<g id="Node000010" class="node">
<title>Node10</title>
<g id="a_Node000010"><a xlink:href="composition__decorator__abstract_8h.html" target="_top" xlink:title=" ">
<polygon fill="white" stroke="#666666" points="705.88,-197.25 539.88,-197.25 539.88,-155.5 705.88,-155.5 705.88,-197.25"/>
<text xml:space="preserve" text-anchor="start" x="547.88" y="-183.75" font-family="Helvetica,sans-Serif" font-size="10.00">src/composition/include</text>
<text xml:space="preserve" text-anchor="start" x="547.88" y="-172.5" font-family="Helvetica,sans-Serif" font-size="10.00">/fourdst/composition/decorators</text>
<text xml:space="preserve" text-anchor="middle" x="622.88" y="-161.25" font-family="Helvetica,sans-Serif" font-size="10.00">/composition_decorator_abstract.h</text>
</a>
</g>
</g>
<!-- Node1&#45;&gt;Node10 -->
<g id="edge14_Node000001_Node000010" class="edge">
<title>Node1&#45;&gt;Node10</title>
<g id="a_edge14_Node000001_Node000010"><a xlink:title=" ">
<path fill="none" stroke="#63b8ff" d="M533.24,-227.3C550.58,-217.64 570,-206.82 586.33,-197.73"/>
<polygon fill="#63b8ff" stroke="#63b8ff" points="531.68,-224.17 524.64,-232.09 535.08,-230.28 531.68,-224.17"/>
</a>
</g>
</g>
<!-- Node11 -->
<g id="Node000011" class="node">
<title>Node11</title>
<g id="a_Node000011"><a xlink:href="composition__masked_8h.html" target="_top" xlink:title=" ">
<polygon fill="white" stroke="#666666" points="700.5,-119.5 547.25,-119.5 547.25,-77.75 700.5,-77.75 700.5,-119.5"/>
<text xml:space="preserve" text-anchor="start" x="555.25" y="-106" font-family="Helvetica,sans-Serif" font-size="10.00">src/composition/include</text>
<text xml:space="preserve" text-anchor="start" x="555.25" y="-94.75" font-family="Helvetica,sans-Serif" font-size="10.00">/fourdst/composition/decorators</text>
<text xml:space="preserve" text-anchor="middle" x="623.88" y="-83.5" font-family="Helvetica,sans-Serif" font-size="10.00">/composition_masked.h</text>
</a>
</g>
</g>
<!-- Node1&#45;&gt;Node11 -->
<g id="edge17_Node000001_Node000011" class="edge">
<title>Node1&#45;&gt;Node11</title>
<g id="a_edge17_Node000001_Node000011"><a xlink:title=" ">
<path fill="none" stroke="#63b8ff" d="M495.51,-222.03C502.45,-201.36 513.89,-174.61 530.88,-155.5 543.89,-140.86 561.68,-128.89 578.21,-119.84"/>
<polygon fill="#63b8ff" stroke="#63b8ff" points="492.24,-220.77 492.56,-231.36 498.91,-222.88 492.24,-220.77"/>
</a>
</g>
</g>
<!-- Node3 -->
<g id="Node000003" class="node">
<title>Node3</title>
<g id="a_Node000003"><a xlink:href="standard__compositions_8h.html" target="_top" xlink:title=" ">
<polygon fill="white" stroke="#666666" points="127.75,-119.5 0,-119.5 0,-77.75 127.75,-77.75 127.75,-119.5"/>
<text xml:space="preserve" text-anchor="start" x="8" y="-106" font-family="Helvetica,sans-Serif" font-size="10.00">src/composition/include</text>
<text xml:space="preserve" text-anchor="start" x="8" y="-94.75" font-family="Helvetica,sans-Serif" font-size="10.00">/fourdst/composition/io</text>
<text xml:space="preserve" text-anchor="middle" x="63.88" y="-83.5" font-family="Helvetica,sans-Serif" font-size="10.00">/standard_compositions.h</text>
</a>
</g>
</g>
<!-- Node2&#45;&gt;Node3 -->
<g id="edge2_Node000002_Node000003" class="edge">
<title>Node2&#45;&gt;Node3</title>
<g id="a_edge2_Node000002_Node000003"><a xlink:title=" ">
<path fill="none" stroke="#63b8ff" d="M231.27,-157C198.53,-145.78 156.62,-131.41 122.93,-119.87"/>
<polygon fill="#63b8ff" stroke="#63b8ff" points="229.98,-160.26 240.57,-160.19 232.25,-153.64 229.98,-160.26"/>
</a>
</g>
</g>
<!-- Node4 -->
<g id="Node000004" class="node">
<title>Node4</title>
<g id="a_Node000004"><a xlink:href="standard__compositions_8cpp.html" target="_top" xlink:title=" ">
<polygon fill="white" stroke="#666666" points="205.25,-36.12 56.5,-36.12 56.5,-5.62 205.25,-5.62 205.25,-36.12"/>
<text xml:space="preserve" text-anchor="start" x="64.5" y="-22.62" font-family="Helvetica,sans-Serif" font-size="10.00">src/composition/lib</text>
<text xml:space="preserve" text-anchor="middle" x="130.88" y="-11.38" font-family="Helvetica,sans-Serif" font-size="10.00">/io/standard_compositions.cpp</text>
</a>
</g>
</g>
<!-- Node2&#45;&gt;Node4 -->
<g id="edge12_Node000002_Node000004" class="edge">
<title>Node2&#45;&gt;Node4</title>
<g id="a_edge12_Node000002_Node000004"><a xlink:title=" ">
<path fill="none" stroke="#63b8ff" d="M249.24,-154.82C234.07,-145.16 216.72,-132.83 202.88,-119.5 175.88,-93.49 151.61,-56.45 139.34,-36.3"/>
<polygon fill="#63b8ff" stroke="#63b8ff" points="247.21,-157.68 257.55,-159.97 250.89,-151.73 247.21,-157.68"/>
</a>
</g>
</g>
<!-- Node2&#45;&gt;Node5 -->
<g id="edge4_Node000002_Node000005" class="edge">
<title>Node2&#45;&gt;Node5</title>
<g id="a_edge4_Node000002_Node000005"><a xlink:title=" ">
<path fill="none" stroke="#63b8ff" d="M330.57,-156.36C357.26,-145.25 390.93,-131.23 418.13,-119.91"/>
<polygon fill="#63b8ff" stroke="#63b8ff" points="329.25,-153.11 321.36,-160.19 331.94,-159.58 329.25,-153.11"/>
</a>
</g>
</g>
<!-- Node6 -->
<g id="Node000006" class="node">
<title>Node6</title>
<g id="a_Node000006"><a xlink:href="composition_8cpp.html" target="_top" xlink:title=" ">
<polygon fill="white" stroke="#666666" points="436.75,-36.12 339,-36.12 339,-5.62 436.75,-5.62 436.75,-36.12"/>
<text xml:space="preserve" text-anchor="start" x="347" y="-22.62" font-family="Helvetica,sans-Serif" font-size="10.00">src/composition/lib</text>
<text xml:space="preserve" text-anchor="middle" x="387.88" y="-11.38" font-family="Helvetica,sans-Serif" font-size="10.00">/composition.cpp</text>
</a>
</g>
</g>
<!-- Node2&#45;&gt;Node6 -->
<g id="edge11_Node000002_Node000006" class="edge">
<title>Node2&#45;&gt;Node6</title>
<g id="a_edge11_Node000002_Node000006"><a xlink:title=" ">
<path fill="none" stroke="#63b8ff" d="M320.1,-154.53C333.23,-145.25 347.26,-133.28 356.88,-119.5 374.99,-93.54 382.9,-56.48 386.04,-36.31"/>
<polygon fill="#63b8ff" stroke="#63b8ff" points="318.38,-151.47 312.03,-159.96 322.28,-157.28 318.38,-151.47"/>
</a>
</g>
</g>
<!-- Node8 -->
<g id="Node000008" class="node">
<title>Node8</title>
<g id="a_Node000008"><a xlink:href="utils_8h.html" target="_top" xlink:title=" ">
<polygon fill="white" stroke="#666666" points="347.62,-119.5 222.12,-119.5 222.12,-77.75 347.62,-77.75 347.62,-119.5"/>
<text xml:space="preserve" text-anchor="start" x="230.12" y="-106" font-family="Helvetica,sans-Serif" font-size="10.00">src/composition/include</text>
<text xml:space="preserve" text-anchor="start" x="230.12" y="-94.75" font-family="Helvetica,sans-Serif" font-size="10.00">/fourdst/composition/utils</text>
<text xml:space="preserve" text-anchor="middle" x="284.88" y="-83.5" font-family="Helvetica,sans-Serif" font-size="10.00">/utils.h</text>
</a>
</g>
</g>
<!-- Node2&#45;&gt;Node8 -->
<g id="edge7_Node000002_Node000008" class="edge">
<title>Node2&#45;&gt;Node8</title>
<g id="a_edge7_Node000002_Node000008"><a xlink:title=" ">
<path fill="none" stroke="#63b8ff" d="M284.88,-149.39C284.88,-139.75 284.88,-128.97 284.88,-119.91"/>
<polygon fill="#63b8ff" stroke="#63b8ff" points="281.38,-149.26 284.88,-159.26 288.38,-149.26 281.38,-149.26"/>
</a>
</g>
</g>
<!-- Node9 -->
<g id="Node000009" class="node">
<title>Node9</title>
<g id="a_Node000009"><a xlink:href="utils_8cpp.html" target="_top" xlink:title=" ">
<polygon fill="white" stroke="#666666" points="320.75,-36.12 223,-36.12 223,-5.62 320.75,-5.62 320.75,-36.12"/>
<text xml:space="preserve" text-anchor="start" x="231" y="-22.62" font-family="Helvetica,sans-Serif" font-size="10.00">src/composition/lib</text>
<text xml:space="preserve" text-anchor="middle" x="271.88" y="-11.38" font-family="Helvetica,sans-Serif" font-size="10.00">/utils.cpp</text>
</a>
</g>
</g>
<!-- Node2&#45;&gt;Node9 -->
<g id="edge13_Node000002_Node000009" class="edge">
<title>Node2&#45;&gt;Node9</title>
<g id="a_edge13_Node000002_Node000009"><a xlink:title=" ">
<path fill="none" stroke="#63b8ff" d="M245.53,-154.62C232.69,-145.67 219.93,-133.91 212.88,-119.5 204.71,-102.84 205.54,-94.79 212.88,-77.75 220.23,-60.64 235.69,-46.32 248.94,-36.46"/>
<polygon fill="#63b8ff" stroke="#63b8ff" points="243.25,-157.31 253.54,-159.81 247.06,-151.43 243.25,-157.31"/>
</a>
</g>
</g>
<!-- Node3&#45;&gt;Node4 -->
<g id="edge3_Node000003_Node000004" class="edge">
<title>Node3&#45;&gt;Node4</title>
<g id="a_edge3_Node000003_Node000004"><a xlink:title=" ">
<path fill="none" stroke="#63b8ff" d="M89.44,-68.72C99.27,-57.61 110.07,-45.4 118.18,-36.23"/>
<polygon fill="#63b8ff" stroke="#63b8ff" points="86.84,-66.38 82.83,-76.19 92.08,-71.02 86.84,-66.38"/>
</a>
</g>
</g>
<!-- Node5&#45;&gt;Node6 -->
<g id="edge5_Node000005_Node000006" class="edge">
<title>Node5&#45;&gt;Node6</title>
<g id="a_edge5_Node000005_Node000006"><a xlink:title=" ">
<path fill="none" stroke="#63b8ff" d="M437.42,-69.38C425.65,-58.09 412.59,-45.58 402.84,-36.23"/>
<polygon fill="#63b8ff" stroke="#63b8ff" points="434.97,-71.88 444.61,-76.28 439.82,-66.83 434.97,-71.88"/>
</a>
</g>
</g>
<!-- Node7 -->
<g id="Node000007" class="node">
<title>Node7</title>
<g id="a_Node000007"><a xlink:href="composition__masked_8cpp.html" target="_top" xlink:title=" ">
<polygon fill="white" stroke="#666666" points="635,-41.75 514.75,-41.75 514.75,0 635,0 635,-41.75"/>
<text xml:space="preserve" text-anchor="start" x="522.75" y="-28.25" font-family="Helvetica,sans-Serif" font-size="10.00">src/composition/lib</text>
<text xml:space="preserve" text-anchor="start" x="522.75" y="-17" font-family="Helvetica,sans-Serif" font-size="10.00">/decorators/composition</text>
<text xml:space="preserve" text-anchor="middle" x="574.88" y="-5.75" font-family="Helvetica,sans-Serif" font-size="10.00">_masked.cpp</text>
</a>
</g>
</g>
<!-- Node5&#45;&gt;Node7 -->
<g id="edge6_Node000005_Node000007" class="edge">
<title>Node5&#45;&gt;Node7</title>
<g id="a_edge6_Node000005_Node000007"><a xlink:title=" ">
<path fill="none" stroke="#63b8ff" d="M504.86,-70.98C518.33,-61.54 533.25,-51.07 545.85,-42.23"/>
<polygon fill="#63b8ff" stroke="#63b8ff" points="503.23,-67.85 497.06,-76.46 507.25,-73.58 503.23,-67.85"/>
</a>
</g>
</g>
<!-- Node8&#45;&gt;Node4 -->
<g id="edge9_Node000008_Node000004" class="edge">
<title>Node8&#45;&gt;Node4</title>
<g id="a_edge9_Node000008_Node000004"><a xlink:title=" ">
<path fill="none" stroke="#63b8ff" d="M233.48,-72.35C209.24,-60.42 181.18,-46.62 160.54,-36.46"/>
<polygon fill="#63b8ff" stroke="#63b8ff" points="231.73,-75.38 242.25,-76.66 234.82,-69.1 231.73,-75.38"/>
</a>
</g>
</g>
<!-- Node8&#45;&gt;Node6 -->
<g id="edge8_Node000008_Node000006" class="edge">
<title>Node8&#45;&gt;Node6</title>
<g id="a_edge8_Node000008_Node000006"><a xlink:title=" ">
<path fill="none" stroke="#63b8ff" d="M321.43,-70.74C337.13,-59.2 354.85,-46.17 368.04,-36.46"/>
<polygon fill="#63b8ff" stroke="#63b8ff" points="319.68,-67.68 313.7,-76.43 323.83,-73.32 319.68,-67.68"/>
</a>
</g>
</g>
<!-- Node8&#45;&gt;Node9 -->
<g id="edge10_Node000008_Node000009" class="edge">
<title>Node8&#45;&gt;Node9</title>
<g id="a_edge10_Node000008_Node000009"><a xlink:title=" ">
<path fill="none" stroke="#63b8ff" d="M279.46,-66.06C277.68,-55.69 275.79,-44.67 274.34,-36.23"/>
<polygon fill="#63b8ff" stroke="#63b8ff" points="275.99,-66.57 281.14,-75.83 282.89,-65.39 275.99,-66.57"/>
</a>
</g>
</g>
<!-- Node10&#45;&gt;Node11 -->
<g id="edge15_Node000010_Node000011" class="edge">
<title>Node10&#45;&gt;Node11</title>
<g id="a_edge15_Node000010_Node000011"><a xlink:title=" ">
<path fill="none" stroke="#63b8ff" d="M623.29,-143.75C623.4,-135.71 623.51,-127.29 623.61,-119.98"/>
<polygon fill="#63b8ff" stroke="#63b8ff" points="619.8,-143.52 623.16,-153.56 626.79,-143.61 619.8,-143.52"/>
</a>
</g>
</g>
<!-- Node11&#45;&gt;Node7 -->
<g id="edge16_Node000011_Node000007" class="edge">
<title>Node11&#45;&gt;Node7</title>
<g id="a_edge16_Node000011_Node000007"><a xlink:title=" ">
<path fill="none" stroke="#63b8ff" d="M604.5,-67.68C598.98,-59.14 593.1,-50.05 588.04,-42.23"/>
<polygon fill="#63b8ff" stroke="#63b8ff" points="601.55,-69.56 609.92,-76.05 607.43,-65.76 601.55,-69.56"/>
</a>
</g>
</g>
</g>
</svg>
