<?xml version="1.0" encoding="UTF-8" standalone="no"?>
<!DOCTYPE svg PUBLIC "-//W3C//DTD SVG 1.1//EN"
 "http://www.w3.org/Graphics/SVG/1.1/DTD/svg11.dtd">
<!-- Generated by graphviz version 13.0.1 (20250615.1724)
 -->
<!-- Title: src/composition/include/fourdst/atomic/elements.h Pages: 1 -->
<svg width="212pt" height="94pt"
 viewBox="0.00 0.00 212.00 94.00" xmlns="http://www.w3.org/2000/svg" xmlns:xlink="http://www.w3.org/1999/xlink">
<g id="graph0" class="graph" transform="scale(1 1) rotate(0) translate(4 89.75)">
<title>src/composition/include/fourdst/atomic/elements.h</title>
<!-- Node1 -->
<g id="Node000001" class="node">
<title>Node1</title>
<g id="a_Node000001"><a xlink:title="Provides mappings between atomic numbers and element symbols for the periodic table.">
<polygon fill="#999999" stroke="#666666" points="189.5,-85.75 57.25,-85.75 57.25,-55.25 189.5,-55.25 189.5,-85.75"/>
<text xml:space="preserve" text-anchor="start" x="65.25" y="-72.25" font-family="Helvetica,sans-Serif" font-size="10.00">src/composition/include</text>
<text xml:space="preserve" text-anchor="middle" x="123.38" y="-61" font-family="Helvetica,sans-Serif" font-size="10.00">/fourdst/atomic/elements.h</text>
</a>
</g>
</g>
<!-- Node2 -->
<g id="Node000002" class="node">
<title>Node2</title>
<g id="a_Node000002"><a xlink:title=" ">
<polygon fill="#e0e0e0" stroke="#999999" points="82.75,-19.25 0,-19.25 0,0 82.75,0 82.75,-19.25"/>
<text xml:space="preserve" text-anchor="middle" x="41.38" y="-5.75" font-family="Helvetica,sans-Serif" font-size="10.00">unordered_map</text>
</a>
</g>
</g>
<!-- Node1&#45;&gt;Node2 -->
<g id="edge1_Node000001_Node000002" class="edge">
<title>Node1&#45;&gt;Node2</title>
<g id="a_edge1_Node000001_Node000002"><a xlink:title=" ">
<path fill="none" stroke="#63b8ff" d="M103.11,-54.95C90.98,-46.24 75.57,-35.18 63.18,-26.28"/>
<polygon fill="#63b8ff" stroke="#63b8ff" points="65.41,-23.57 55.25,-20.58 61.33,-29.26 65.41,-23.57"/>
</a>
</g>
</g>
<!-- Node3 -->
<g id="Node000003" class="node">
<title>Node3</title>
<g id="a_Node000003"><a xlink:title=" ">
<polygon fill="#e0e0e0" stroke="#999999" points="146,-19.25 100.75,-19.25 100.75,0 146,0 146,-19.25"/>
<text xml:space="preserve" text-anchor="middle" x="123.38" y="-5.75" font-family="Helvetica,sans-Serif" font-size="10.00">cstdint</text>
</a>
</g>
</g>
<!-- Node1&#45;&gt;Node3 -->
<g id="edge2_Node000001_Node000003" class="edge">
<title>Node1&#45;&gt;Node3</title>
<g id="a_edge2_Node000001_Node000003"><a xlink:title=" ">
<path fill="none" stroke="#63b8ff" d="M123.38,-54.95C123.38,-47.71 123.38,-38.84 123.38,-30.94"/>
<polygon fill="#63b8ff" stroke="#63b8ff" points="126.88,-31.21 123.38,-21.21 119.88,-31.21 126.88,-31.21"/>
</a>
</g>
</g>
<!-- Node4 -->
<g id="Node000004" class="node">
<title>Node4</title>
<g id="a_Node000004"><a xlink:title=" ">
<polygon fill="#e0e0e0" stroke="#999999" points="204.38,-19.25 164.38,-19.25 164.38,0 204.38,0 204.38,-19.25"/>
<text xml:space="preserve" text-anchor="middle" x="184.38" y="-5.75" font-family="Helvetica,sans-Serif" font-size="10.00">string</text>
</a>
</g>
</g>
<!-- Node1&#45;&gt;Node4 -->
<g id="edge3_Node000001_Node000004" class="edge">
<title>Node1&#45;&gt;Node4</title>
<g id="a_edge3_Node000001_Node000004"><a xlink:title=" ">
<path fill="none" stroke="#63b8ff" d="M138.45,-54.95C147.03,-46.67 157.81,-36.27 166.77,-27.62"/>
<polygon fill="#63b8ff" stroke="#63b8ff" points="169.12,-30.22 173.88,-20.75 164.26,-25.18 169.12,-30.22"/>
</a>
</g>
</g>
</g>
</svg>
