<?xml version="1.0" encoding="UTF-8" standalone="no"?>
<!DOCTYPE svg PUBLIC "-//W3C//DTD SVG 1.1//EN"
 "http://www.w3.org/Graphics/SVG/1.1/DTD/svg11.dtd">
<!-- Generated by graphviz version 14.1.2 (20260124.0452)
 -->
<!-- Title: src/composition/include/fourdst/composition/exceptions/exceptions_composition.h Pages: 1 -->
<svg width="182pt" height="105pt"
 viewBox="0.00 0.00 182.00 105.00" xmlns="http://www.w3.org/2000/svg" xmlns:xlink="http://www.w3.org/1999/xlink">
<g id="graph0" class="graph" transform="scale(1 1) rotate(0) translate(4 101)">
<title>src/composition/include/fourdst/composition/exceptions/exceptions_composition.h</title>
<!-- Node1 -->
<g id="Node000001" class="node">
<title>Node1</title>
<g id="a_Node000001"><a xlink:title=" ">
<polygon fill="#999999" stroke="#666666" points="173.38,-97 18.62,-97 18.62,-55.25 173.38,-55.25 173.38,-97"/>
<text xml:space="preserve" text-anchor="start" x="26.62" y="-83.5" font-family="Helvetica,sans-Serif" font-size="10.00">src/composition/include</text>
<text xml:space="preserve" text-anchor="start" x="26.62" y="-72.25" font-family="Helvetica,sans-Serif" font-size="10.00">/fourdst/composition/exceptions</text>
<text xml:space="preserve" text-anchor="middle" x="96" y="-61" font-family="Helvetica,sans-Serif" font-size="10.00">/exceptions_composition.h</text>
</a>
</g>
</g>
<!-- Node2 -->
<g id="Node000002" class="node">
<title>Node2</title>
<g id="a_Node000002"><a xlink:title=" ">
<polygon fill="#e0e0e0" stroke="#999999" points="58,-19.25 0,-19.25 0,0 58,0 58,-19.25"/>
<text xml:space="preserve" text-anchor="middle" x="29" y="-5.75" font-family="Helvetica,sans-Serif" font-size="10.00">exception</text>
</a>
</g>
</g>
<!-- Node1&#45;&gt;Node2 -->
<g id="edge1_Node000001_Node000002" class="edge">
<title>Node1&#45;&gt;Node2</title>
<g id="a_edge1_Node000001_Node000002"><a xlink:title=" ">
<path fill="none" stroke="#63b8ff" d="M75.17,-55.07C66.04,-46.29 55.45,-36.09 46.71,-27.68"/>
<polygon fill="#63b8ff" stroke="#63b8ff" points="49.14,-25.16 39.51,-20.75 44.29,-30.2 49.14,-25.16"/>
</a>
</g>
</g>
<!-- Node3 -->
<g id="Node000003" class="node">
<title>Node3</title>
<g id="a_Node000003"><a xlink:title=" ">
<polygon fill="#e0e0e0" stroke="#999999" points="116,-19.25 76,-19.25 76,0 116,0 116,-19.25"/>
<text xml:space="preserve" text-anchor="middle" x="96" y="-5.75" font-family="Helvetica,sans-Serif" font-size="10.00">string</text>
</a>
</g>
</g>
<!-- Node1&#45;&gt;Node3 -->
<g id="edge2_Node000001_Node000003" class="edge">
<title>Node1&#45;&gt;Node3</title>
<g id="a_edge2_Node000001_Node000003"><a xlink:title=" ">
<path fill="none" stroke="#63b8ff" d="M96,-55.07C96,-47.4 96,-38.64 96,-30.95"/>
<polygon fill="#63b8ff" stroke="#63b8ff" points="99.5,-31.21 96,-21.21 92.5,-31.21 99.5,-31.21"/>
</a>
</g>
</g>
<!-- Node4 -->
<g id="Node000004" class="node">
<title>Node4</title>
<g id="a_Node000004"><a xlink:title=" ">
<polygon fill="#e0e0e0" stroke="#999999" points="173.62,-19.25 134.38,-19.25 134.38,0 173.62,0 173.62,-19.25"/>
<text xml:space="preserve" text-anchor="middle" x="154" y="-5.75" font-family="Helvetica,sans-Serif" font-size="10.00">utility</text>
</a>
</g>
</g>
<!-- Node1&#45;&gt;Node4 -->
<g id="edge3_Node000001_Node000004" class="edge">
<title>Node1&#45;&gt;Node4</title>
<g id="a_edge3_Node000001_Node000004"><a xlink:title=" ">
<path fill="none" stroke="#63b8ff" d="M114.03,-55.07C121.77,-46.47 130.72,-36.52 138.19,-28.21"/>
<polygon fill="#63b8ff" stroke="#63b8ff" points="140.75,-30.6 144.83,-20.82 135.54,-25.92 140.75,-30.6"/>
</a>
</g>
</g>
</g>
</svg>
