<?xml version="1.0" encoding="UTF-8" standalone="no"?>
<!DOCTYPE svg PUBLIC "-//W3C//DTD SVG 1.1//EN"
 "http://www.w3.org/Graphics/SVG/1.1/DTD/svg11.dtd">
<!-- Generated by graphviz version 14.1.2 (20260124.0452)
 -->
<!-- Title: Graphical Class Hierarchy Pages: 1 -->
<svg width="424pt" height="88pt"
 viewBox="0.00 0.00 424.00 88.00" xmlns="http://www.w3.org/2000/svg" xmlns:xlink="http://www.w3.org/1999/xlink">
<g id="graph0" class="graph" transform="scale(1 1) rotate(0) translate(4 83.5)">
<title>Graphical Class Hierarchy</title>
<!-- Node0 -->
<g id="Node000000" class="node">
<title>Node0</title>
<g id="a_Node000000"><a xlink:href="classfourdst_1_1composition_1_1_composition_abstract.html" target="_top" xlink:title="Abstract base class for chemical composition representations.">
<polygon fill="white" stroke="#666666" points="113.5,-54.5 0,-54.5 0,-24 113.5,-24 113.5,-54.5"/>
<text xml:space="preserve" text-anchor="start" x="8" y="-41" font-family="Helvetica,sans-Serif" font-size="10.00">fourdst::composition</text>
<text xml:space="preserve" text-anchor="middle" x="56.75" y="-29.75" font-family="Helvetica,sans-Serif" font-size="10.00">::CompositionAbstract</text>
</a>
</g>
</g>
<!-- Node1 -->
<g id="Node000001" class="node">
<title>Node1</title>
<g id="a_Node000001"><a xlink:href="classfourdst_1_1composition_1_1_composition.html" target="_top" xlink:title="Manages a collection of chemical species and their abundances.">
<polygon fill="white" stroke="#666666" points="261.5,-79.5 157,-79.5 157,-49 261.5,-49 261.5,-79.5"/>
<text xml:space="preserve" text-anchor="start" x="165" y="-66" font-family="Helvetica,sans-Serif" font-size="10.00">fourdst::composition</text>
<text xml:space="preserve" text-anchor="middle" x="209.25" y="-54.75" font-family="Helvetica,sans-Serif" font-size="10.00">::Composition</text>
</a>
</g>
</g>
<!-- Node0&#45;&gt;Node1 -->
<g id="edge1_Node000000_Node000001" class="edge">
<title>Node0&#45;&gt;Node1</title>
<g id="a_edge1_Node000000_Node000001"><a xlink:title=" ">
<path fill="none" stroke="#63b8ff" d="M125.14,-50.44C135.71,-52.2 146.5,-53.99 156.64,-55.68"/>
<polygon fill="#63b8ff" stroke="#63b8ff" points="125.72,-46.99 115.28,-48.81 124.57,-53.9 125.72,-46.99"/>
</a>
</g>
</g>
<!-- Node2 -->
<g id="Node000002" class="node">
<title>Node2</title>
<g id="a_Node000002"><a xlink:href="classfourdst_1_1composition_1_1_composition_decorator.html" target="_top" xlink:title=" ">
<polygon fill="white" stroke="#666666" points="269,-30.5 149.5,-30.5 149.5,0 269,0 269,-30.5"/>
<text xml:space="preserve" text-anchor="start" x="157.5" y="-17" font-family="Helvetica,sans-Serif" font-size="10.00">fourdst::composition</text>
<text xml:space="preserve" text-anchor="middle" x="209.25" y="-5.75" font-family="Helvetica,sans-Serif" font-size="10.00">::CompositionDecorator</text>
</a>
</g>
</g>
<!-- Node0&#45;&gt;Node2 -->
<g id="edge2_Node000000_Node000002" class="edge">
<title>Node0&#45;&gt;Node2</title>
<g id="a_edge2_Node000000_Node000002"><a xlink:title=" ">
<path fill="none" stroke="#63b8ff" d="M125.03,-28.52C133.07,-27.24 141.23,-25.94 149.14,-24.68"/>
<polygon fill="#63b8ff" stroke="#63b8ff" points="124.61,-25.04 115.29,-30.07 125.71,-31.96 124.61,-25.04"/>
</a>
</g>
</g>
<!-- Node3 -->
<g id="Node000003" class="node">
<title>Node3</title>
<g id="a_Node000003"><a xlink:href="classfourdst_1_1composition_1_1_masked_composition.html" target="_top" xlink:title=" ">
<polygon fill="white" stroke="#666666" points="416.25,-30.5 305,-30.5 305,0 416.25,0 416.25,-30.5"/>
<text xml:space="preserve" text-anchor="start" x="313" y="-17" font-family="Helvetica,sans-Serif" font-size="10.00">fourdst::composition</text>
<text xml:space="preserve" text-anchor="middle" x="360.62" y="-5.75" font-family="Helvetica,sans-Serif" font-size="10.00">::MaskedComposition</text>
</a>
</g>
</g>
<!-- Node2&#45;&gt;Node3 -->
<g id="edge3_Node000002_Node000003" class="edge">
<title>Node2&#45;&gt;Node3</title>
<g id="a_edge3_Node000002_Node000003"><a xlink:title=" ">
<path fill="none" stroke="#63b8ff" d="M280.7,-15.25C288.83,-15.25 297.03,-15.25 304.9,-15.25"/>
<polygon fill="#63b8ff" stroke="#63b8ff" points="280.8,-11.75 270.8,-15.25 280.8,-18.75 280.8,-11.75"/>
</a>
</g>
</g>
</g>
</svg>
