<?xml version="1.0" encoding="UTF-8" standalone="no"?>
<!DOCTYPE svg PUBLIC "-//W3C//DTD SVG 1.1//EN"
 "http://www.w3.org/Graphics/SVG/1.1/DTD/svg11.dtd">
<!-- Generated by graphviz version 13.0.1 (20250615.1724)
 -->
<!-- Title: src/composition/include/fourdst/atomic/species.h Pages: 1 -->
<svg width="523pt" height="149pt"
 viewBox="0.00 0.00 523.00 149.00" xmlns="http://www.w3.org/2000/svg" xmlns:xlink="http://www.w3.org/1999/xlink">
<g id="graph0" class="graph" transform="scale(1 1) rotate(0) translate(4 145)">
<title>src/composition/include/fourdst/atomic/species.h</title>
<!-- Node1 -->
<g id="Node000001" class="node">
<title>Node1</title>
<g id="a_Node000001"><a xlink:title=" ">
<polygon fill="#999999" stroke="#666666" points="284.5,-141 158.25,-141 158.25,-110.5 284.5,-110.5 284.5,-141"/>
<text xml:space="preserve" text-anchor="start" x="166.25" y="-127.5" font-family="Helvetica,sans-Serif" font-size="10.00">src/composition/include</text>
<text xml:space="preserve" text-anchor="middle" x="221.38" y="-116.25" font-family="Helvetica,sans-Serif" font-size="10.00">/fourdst/atomic/species.h</text>
</a>
</g>
</g>
<!-- Node2 -->
<g id="Node000002" class="node">
<title>Node2</title>
<g id="a_Node000002"><a xlink:title=" ">
<polygon fill="#e0e0e0" stroke="#999999" points="82.75,-19.25 0,-19.25 0,0 82.75,0 82.75,-19.25"/>
<text xml:space="preserve" text-anchor="middle" x="41.38" y="-5.75" font-family="Helvetica,sans-Serif" font-size="10.00">unordered_map</text>
</a>
</g>
</g>
<!-- Node1&#45;&gt;Node2 -->
<g id="edge1_Node000001_Node000002" class="edge">
<title>Node1&#45;&gt;Node2</title>
<g id="a_edge1_Node000001_Node000002"><a xlink:title=" ">
<path fill="none" stroke="#63b8ff" d="M157.79,-111.22C132.42,-103.54 104.14,-91.87 82.38,-74.5 67.42,-62.57 56.24,-43.62 49.37,-29.46"/>
<polygon fill="#63b8ff" stroke="#63b8ff" points="52.72,-28.39 45.41,-20.73 46.35,-31.28 52.72,-28.39"/>
</a>
</g>
</g>
<!-- Node3 -->
<g id="Node000003" class="node">
<title>Node3</title>
<g id="a_Node000003"><a xlink:title=" ">
<polygon fill="#e0e0e0" stroke="#999999" points="288.12,-19.25 222.62,-19.25 222.62,0 288.12,0 288.12,-19.25"/>
<text xml:space="preserve" text-anchor="middle" x="255.38" y="-5.75" font-family="Helvetica,sans-Serif" font-size="10.00">string_view</text>
</a>
</g>
</g>
<!-- Node1&#45;&gt;Node3 -->
<g id="edge2_Node000001_Node000003" class="edge">
<title>Node1&#45;&gt;Node3</title>
<g id="a_edge2_Node000001_Node000003"><a xlink:title=" ">
<path fill="none" stroke="#63b8ff" d="M225.14,-110.04C228.8,-95.92 234.65,-74.04 240.38,-55.25 242.87,-47.04 245.85,-38.06 248.48,-30.32"/>
<polygon fill="#63b8ff" stroke="#63b8ff" points="251.78,-31.49 251.74,-20.9 245.17,-29.2 251.78,-31.49"/>
</a>
</g>
</g>
<!-- Node4 -->
<g id="Node000004" class="node">
<title>Node4</title>
<g id="a_Node000004"><a xlink:title=" ">
<polygon fill="#e0e0e0" stroke="#999999" points="204.38,-19.25 164.38,-19.25 164.38,0 204.38,0 204.38,-19.25"/>
<text xml:space="preserve" text-anchor="middle" x="184.38" y="-5.75" font-family="Helvetica,sans-Serif" font-size="10.00">string</text>
</a>
</g>
</g>
<!-- Node1&#45;&gt;Node4 -->
<g id="edge3_Node000001_Node000004" class="edge">
<title>Node1&#45;&gt;Node4</title>
<g id="a_edge3_Node000001_Node000004"><a xlink:title=" ">
<path fill="none" stroke="#63b8ff" d="M216.69,-110.3C210.13,-90.06 198.18,-53.22 190.8,-30.44"/>
<polygon fill="#63b8ff" stroke="#63b8ff" points="194.2,-29.57 187.78,-21.14 187.54,-31.73 194.2,-29.57"/>
</a>
</g>
</g>
<!-- Node5 -->
<g id="Node000005" class="node">
<title>Node5</title>
<g id="a_Node000005"><a xlink:title=" ">
<polygon fill="#e0e0e0" stroke="#999999" points="432,-19.25 392.75,-19.25 392.75,0 432,0 432,-19.25"/>
<text xml:space="preserve" text-anchor="middle" x="412.38" y="-5.75" font-family="Helvetica,sans-Serif" font-size="10.00">limits</text>
</a>
</g>
</g>
<!-- Node1&#45;&gt;Node5 -->
<g id="edge4_Node000001_Node000005" class="edge">
<title>Node1&#45;&gt;Node5</title>
<g id="a_edge4_Node000001_Node000005"><a xlink:title=" ">
<path fill="none" stroke="#63b8ff" d="M284.91,-116.43C334.22,-108.53 396.73,-94.8 412.38,-74.5 421.81,-62.26 420.97,-44.42 418.25,-30.7"/>
<polygon fill="#63b8ff" stroke="#63b8ff" points="421.65,-29.87 415.83,-21.01 414.86,-31.56 421.65,-29.87"/>
</a>
</g>
</g>
<!-- Node6 -->
<g id="Node000006" class="node">
<title>Node6</title>
<g id="a_Node000006"><a xlink:href="atomic_species_8h.html" target="_top" xlink:title=" ">
<polygon fill="white" stroke="#666666" points="403.38,-74.5 249.38,-74.5 249.38,-55.25 403.38,-55.25 403.38,-74.5"/>
<text xml:space="preserve" text-anchor="middle" x="326.38" y="-61" font-family="Helvetica,sans-Serif" font-size="10.00">fourdst/atomic/atomicSpecies.h</text>
</a>
</g>
</g>
<!-- Node1&#45;&gt;Node6 -->
<g id="edge5_Node000001_Node000006" class="edge">
<title>Node1&#45;&gt;Node6</title>
<g id="a_edge5_Node000001_Node000006"><a xlink:title=" ">
<path fill="none" stroke="#63b8ff" d="M247.6,-110.05C263.74,-100.99 284.35,-89.44 300.44,-80.41"/>
<polygon fill="#63b8ff" stroke="#63b8ff" points="301.94,-83.59 308.95,-75.64 298.52,-77.48 301.94,-83.59"/>
</a>
</g>
</g>
<!-- Node8 -->
<g id="Node000008" class="node">
<title>Node8</title>
<g id="a_Node000008"><a xlink:href="elements_8h.html" target="_top" xlink:title="Provides mappings between atomic numbers and element symbols for the periodic table.">
<polygon fill="white" stroke="#666666" points="155.38,-74.5 91.38,-74.5 91.38,-55.25 155.38,-55.25 155.38,-74.5"/>
<text xml:space="preserve" text-anchor="middle" x="123.38" y="-61" font-family="Helvetica,sans-Serif" font-size="10.00">elements.h</text>
</a>
</g>
</g>
<!-- Node1&#45;&gt;Node8 -->
<g id="edge10_Node000001_Node000008" class="edge">
<title>Node1&#45;&gt;Node8</title>
<g id="a_edge10_Node000001_Node000008"><a xlink:title=" ">
<path fill="none" stroke="#63b8ff" d="M196.9,-110.05C181.97,-101.08 162.96,-89.66 148.01,-80.67"/>
<polygon fill="#63b8ff" stroke="#63b8ff" points="150.08,-77.83 139.7,-75.68 146.47,-83.83 150.08,-77.83"/>
</a>
</g>
</g>
<!-- Node10 -->
<g id="Node000010" class="node">
<title>Node10</title>
<g id="a_Node000010"><a xlink:title=" ">
<polygon fill="#e0e0e0" stroke="#999999" points="515.25,-74.5 459.5,-74.5 459.5,-55.25 515.25,-55.25 515.25,-74.5"/>
<text xml:space="preserve" text-anchor="middle" x="487.38" y="-61" font-family="Helvetica,sans-Serif" font-size="10.00">expected</text>
</a>
</g>
</g>
<!-- Node1&#45;&gt;Node10 -->
<g id="edge14_Node000001_Node000010" class="edge">
<title>Node1&#45;&gt;Node10</title>
<g id="a_edge14_Node000001_Node000010"><a xlink:title=" ">
<path fill="none" stroke="#63b8ff" d="M284.75,-110.72C335.42,-99.51 404.88,-84.13 447.9,-74.61"/>
<polygon fill="#63b8ff" stroke="#63b8ff" points="448.55,-78.05 457.55,-72.48 447.03,-71.22 448.55,-78.05"/>
</a>
</g>
</g>
<!-- Node6&#45;&gt;Node3 -->
<g id="edge6_Node000006_Node000003" class="edge">
<title>Node6&#45;&gt;Node3</title>
<g id="a_edge6_Node000006_Node000003"><a xlink:title=" ">
<path fill="none" stroke="#63b8ff" d="M314.33,-54.84C303.97,-47.07 288.77,-35.67 276.41,-26.4"/>
<polygon fill="#63b8ff" stroke="#63b8ff" points="278.55,-23.63 268.45,-20.43 274.35,-29.23 278.55,-23.63"/>
</a>
</g>
</g>
<!-- Node6&#45;&gt;Node4 -->
<g id="edge7_Node000006_Node000004" class="edge">
<title>Node6&#45;&gt;Node4</title>
<g id="a_edge7_Node000006_Node000004"><a xlink:title=" ">
<path fill="none" stroke="#63b8ff" d="M302.29,-54.84C278.19,-45.81 241.05,-31.88 214.91,-22.07"/>
<polygon fill="#63b8ff" stroke="#63b8ff" points="216.45,-18.92 205.86,-18.68 213.99,-25.47 216.45,-18.92"/>
</a>
</g>
</g>
<!-- Node6&#45;&gt;Node5 -->
<g id="edge9_Node000006_Node000005" class="edge">
<title>Node6&#45;&gt;Node5</title>
<g id="a_edge9_Node000006_Node000005"><a xlink:title=" ">
<path fill="none" stroke="#63b8ff" d="M340.96,-54.84C353.81,-46.89 372.79,-35.14 387.95,-25.75"/>
<polygon fill="#63b8ff" stroke="#63b8ff" points="389.77,-28.74 396.43,-20.5 386.08,-22.79 389.77,-28.74"/>
</a>
</g>
</g>
<!-- Node7 -->
<g id="Node000007" class="node">
<title>Node7</title>
<g id="a_Node000007"><a xlink:title=" ">
<polygon fill="#e0e0e0" stroke="#999999" points="356.25,-19.25 306.5,-19.25 306.5,0 356.25,0 356.25,-19.25"/>
<text xml:space="preserve" text-anchor="middle" x="331.38" y="-5.75" font-family="Helvetica,sans-Serif" font-size="10.00">optional</text>
</a>
</g>
</g>
<!-- Node6&#45;&gt;Node7 -->
<g id="edge8_Node000006_Node000007" class="edge">
<title>Node6&#45;&gt;Node7</title>
<g id="a_edge8_Node000006_Node000007"><a xlink:title=" ">
<path fill="none" stroke="#63b8ff" d="M327.2,-55.08C327.82,-48.49 328.69,-39.21 329.48,-30.82"/>
<polygon fill="#63b8ff" stroke="#63b8ff" points="332.94,-31.4 330.39,-21.12 325.97,-30.75 332.94,-31.4"/>
</a>
</g>
</g>
<!-- Node8&#45;&gt;Node2 -->
<g id="edge11_Node000008_Node000002" class="edge">
<title>Node8&#45;&gt;Node2</title>
<g id="a_edge11_Node000008_Node000002"><a xlink:title=" ">
<path fill="none" stroke="#63b8ff" d="M109.46,-54.84C97.21,-46.89 79.12,-35.14 64.66,-25.75"/>
<polygon fill="#63b8ff" stroke="#63b8ff" points="66.92,-23.04 56.62,-20.53 63.1,-28.91 66.92,-23.04"/>
</a>
</g>
</g>
<!-- Node8&#45;&gt;Node4 -->
<g id="edge13_Node000008_Node000004" class="edge">
<title>Node8&#45;&gt;Node4</title>
<g id="a_edge13_Node000008_Node000004"><a xlink:title=" ">
<path fill="none" stroke="#63b8ff" d="M133.72,-54.84C142.45,-47.22 155.16,-36.12 165.67,-26.95"/>
<polygon fill="#63b8ff" stroke="#63b8ff" points="167.81,-29.73 173.04,-20.52 163.2,-24.46 167.81,-29.73"/>
</a>
</g>
</g>
<!-- Node9 -->
<g id="Node000009" class="node">
<title>Node9</title>
<g id="a_Node000009"><a xlink:title=" ">
<polygon fill="#e0e0e0" stroke="#999999" points="146,-19.25 100.75,-19.25 100.75,0 146,0 146,-19.25"/>
<text xml:space="preserve" text-anchor="middle" x="123.38" y="-5.75" font-family="Helvetica,sans-Serif" font-size="10.00">cstdint</text>
</a>
</g>
</g>
<!-- Node8&#45;&gt;Node9 -->
<g id="edge12_Node000008_Node000009" class="edge">
<title>Node8&#45;&gt;Node9</title>
<g id="a_edge12_Node000008_Node000009"><a xlink:title=" ">
<path fill="none" stroke="#63b8ff" d="M123.38,-55.08C123.38,-48.57 123.38,-39.42 123.38,-31.12"/>
<polygon fill="#63b8ff" stroke="#63b8ff" points="126.88,-31.12 123.38,-21.12 119.88,-31.12 126.88,-31.12"/>
</a>
</g>
</g>
</g>
</svg>
