<?xml version="1.0" encoding="UTF-8" standalone="no"?>
<!DOCTYPE svg PUBLIC "-//W3C//DTD SVG 1.1//EN"
 "http://www.w3.org/Graphics/SVG/1.1/DTD/svg11.dtd">
<!-- Generated by graphviz version 14.1.2 (20260124.0452)
 -->
<!-- Title: src/composition/include/fourdst/atomic/species.h Pages: 1 -->
<svg width="560pt" height="149pt"
 viewBox="0.00 0.00 560.00 149.00" xmlns="http://www.w3.org/2000/svg" xmlns:xlink="http://www.w3.org/1999/xlink">
<g id="graph0" class="graph" transform="scale(1 1) rotate(0) translate(4 145)">
<title>src/composition/include/fourdst/atomic/species.h</title>
<!-- Node1 -->
<g id="Node000001" class="node">
<title>Node1</title>
<g id="a_Node000001"><a xlink:title=" ">
<polygon fill="#999999" stroke="#666666" points="285.5,-141 159.25,-141 159.25,-110.5 285.5,-110.5 285.5,-141"/>
<text xml:space="preserve" text-anchor="start" x="167.25" y="-127.5" font-family="Helvetica,sans-Serif" font-size="10.00">src/composition/include</text>
<text xml:space="preserve" text-anchor="middle" x="222.38" y="-116.25" font-family="Helvetica,sans-Serif" font-size="10.00">/fourdst/atomic/species.h</text>
</a>
</g>
</g>
<!-- Node2 -->
<g id="Node000002" class="node">
<title>Node2</title>
<g id="a_Node000002"><a xlink:title=" ">
<polygon fill="#e0e0e0" stroke="#999999" points="82.75,-19.25 0,-19.25 0,0 82.75,0 82.75,-19.25"/>
<text xml:space="preserve" text-anchor="middle" x="41.38" y="-5.75" font-family="Helvetica,sans-Serif" font-size="10.00">unordered_map</text>
</a>
</g>
</g>
<!-- Node1&#45;&gt;Node2 -->
<g id="edge1_Node000001_Node000002" class="edge">
<title>Node1&#45;&gt;Node2</title>
<g id="a_edge1_Node000001_Node000002"><a xlink:title=" ">
<path fill="none" stroke="#63b8ff" d="M159.04,-111.52C133.31,-103.85 104.5,-92.11 82.38,-74.5 67.41,-62.58 56.23,-43.64 49.36,-29.47"/>
<polygon fill="#63b8ff" stroke="#63b8ff" points="52.72,-28.4 45.4,-20.74 46.34,-31.29 52.72,-28.4"/>
</a>
</g>
</g>
<!-- Node3 -->
<g id="Node000003" class="node">
<title>Node3</title>
<g id="a_Node000003"><a xlink:title=" ">
<polygon fill="#e0e0e0" stroke="#999999" points="288.12,-19.25 222.62,-19.25 222.62,0 288.12,0 288.12,-19.25"/>
<text xml:space="preserve" text-anchor="middle" x="255.38" y="-5.75" font-family="Helvetica,sans-Serif" font-size="10.00">string_view</text>
</a>
</g>
</g>
<!-- Node1&#45;&gt;Node3 -->
<g id="edge2_Node000001_Node000003" class="edge">
<title>Node1&#45;&gt;Node3</title>
<g id="a_edge2_Node000001_Node000003"><a xlink:title=" ">
<path fill="none" stroke="#63b8ff" d="M226.55,-110.3C232.38,-90.15 242.96,-53.56 249.55,-30.75"/>
<polygon fill="#63b8ff" stroke="#63b8ff" points="252.92,-31.73 252.33,-21.15 246.19,-29.79 252.92,-31.73"/>
</a>
</g>
</g>
<!-- Node4 -->
<g id="Node000004" class="node">
<title>Node4</title>
<g id="a_Node000004"><a xlink:title=" ">
<polygon fill="#e0e0e0" stroke="#999999" points="204.38,-19.25 164.38,-19.25 164.38,0 204.38,0 204.38,-19.25"/>
<text xml:space="preserve" text-anchor="middle" x="184.38" y="-5.75" font-family="Helvetica,sans-Serif" font-size="10.00">string</text>
</a>
</g>
</g>
<!-- Node1&#45;&gt;Node4 -->
<g id="edge3_Node000001_Node000004" class="edge">
<title>Node1&#45;&gt;Node4</title>
<g id="a_edge3_Node000001_Node000004"><a xlink:title=" ">
<path fill="none" stroke="#63b8ff" d="M217.56,-110.3C210.82,-90.06 198.56,-53.22 190.97,-30.44"/>
<polygon fill="#63b8ff" stroke="#63b8ff" points="194.35,-29.52 187.87,-21.13 187.71,-31.73 194.35,-29.52"/>
</a>
</g>
</g>
<!-- Node5 -->
<g id="Node000005" class="node">
<title>Node5</title>
<g id="a_Node000005"><a xlink:title=" ">
<polygon fill="#e0e0e0" stroke="#999999" points="345,-19.25 305.75,-19.25 305.75,0 345,0 345,-19.25"/>
<text xml:space="preserve" text-anchor="middle" x="325.38" y="-5.75" font-family="Helvetica,sans-Serif" font-size="10.00">limits</text>
</a>
</g>
</g>
<!-- Node1&#45;&gt;Node5 -->
<g id="edge4_Node000001_Node000005" class="edge">
<title>Node1&#45;&gt;Node5</title>
<g id="a_edge4_Node000001_Node000005"><a xlink:title=" ">
<path fill="none" stroke="#63b8ff" d="M233.49,-110.24C244.66,-95.9 262.58,-73.51 279.38,-55.25 288.21,-45.65 298.6,-35.48 307.27,-27.28"/>
<polygon fill="#63b8ff" stroke="#63b8ff" points="309.52,-29.97 314.44,-20.58 304.74,-24.85 309.52,-29.97"/>
</a>
</g>
</g>
<!-- Node6 -->
<g id="Node000006" class="node">
<title>Node6</title>
<g id="a_Node000006"><a xlink:href="atomic_species_8h.html" target="_top" xlink:title=" ">
<polygon fill="white" stroke="#666666" points="442.38,-74.5 288.38,-74.5 288.38,-55.25 442.38,-55.25 442.38,-74.5"/>
<text xml:space="preserve" text-anchor="middle" x="365.38" y="-61" font-family="Helvetica,sans-Serif" font-size="10.00">fourdst/atomic/atomicSpecies.h</text>
</a>
</g>
</g>
<!-- Node1&#45;&gt;Node6 -->
<g id="edge5_Node000001_Node000006" class="edge">
<title>Node1&#45;&gt;Node6</title>
<g id="a_edge5_Node000001_Node000006"><a xlink:title=" ">
<path fill="none" stroke="#63b8ff" d="M258.09,-110.05C281.02,-100.6 310.56,-88.44 332.84,-79.27"/>
<polygon fill="#63b8ff" stroke="#63b8ff" points="334.13,-82.52 342.05,-75.48 331.47,-76.05 334.13,-82.52"/>
</a>
</g>
</g>
<!-- Node10 -->
<g id="Node000010" class="node">
<title>Node10</title>
<g id="a_Node000010"><a xlink:href="elements_8h.html" target="_top" xlink:title="Provides mappings between atomic numbers and element symbols for the periodic table.">
<polygon fill="white" stroke="#666666" points="155.38,-74.5 91.38,-74.5 91.38,-55.25 155.38,-55.25 155.38,-74.5"/>
<text xml:space="preserve" text-anchor="middle" x="123.38" y="-61" font-family="Helvetica,sans-Serif" font-size="10.00">elements.h</text>
</a>
</g>
</g>
<!-- Node1&#45;&gt;Node10 -->
<g id="edge12_Node000001_Node000010" class="edge">
<title>Node1&#45;&gt;Node10</title>
<g id="a_edge12_Node000001_Node000010"><a xlink:title=" ">
<path fill="none" stroke="#63b8ff" d="M197.65,-110.05C182.57,-101.08 163.36,-89.66 148.26,-80.67"/>
<polygon fill="#63b8ff" stroke="#63b8ff" points="150.24,-77.78 139.86,-75.68 146.66,-83.8 150.24,-77.78"/>
</a>
</g>
</g>
<!-- Node12 -->
<g id="Node000012" class="node">
<title>Node12</title>
<g id="a_Node000012"><a xlink:title=" ">
<polygon fill="#e0e0e0" stroke="#999999" points="516.25,-74.5 460.5,-74.5 460.5,-55.25 516.25,-55.25 516.25,-74.5"/>
<text xml:space="preserve" text-anchor="middle" x="488.38" y="-61" font-family="Helvetica,sans-Serif" font-size="10.00">expected</text>
</a>
</g>
</g>
<!-- Node1&#45;&gt;Node12 -->
<g id="edge16_Node000001_Node000012" class="edge">
<title>Node1&#45;&gt;Node12</title>
<g id="a_edge16_Node000001_Node000012"><a xlink:title=" ">
<path fill="none" stroke="#63b8ff" d="M285.6,-111.11C329.01,-101.69 388.23,-88.73 449.12,-74.99"/>
<polygon fill="#63b8ff" stroke="#63b8ff" points="449.64,-78.46 458.63,-72.84 448.1,-71.63 449.64,-78.46"/>
</a>
</g>
</g>
<!-- Node6&#45;&gt;Node3 -->
<g id="edge7_Node000006_Node000003" class="edge">
<title>Node6&#45;&gt;Node3</title>
<g id="a_edge7_Node000006_Node000003"><a xlink:title=" ">
<path fill="none" stroke="#63b8ff" d="M346.71,-54.84C329.65,-46.58 304.13,-34.23 284.4,-24.68"/>
<polygon fill="#63b8ff" stroke="#63b8ff" points="286.01,-21.57 275.49,-20.36 282.96,-27.87 286.01,-21.57"/>
</a>
</g>
</g>
<!-- Node6&#45;&gt;Node4 -->
<g id="edge8_Node000006_Node000004" class="edge">
<title>Node6&#45;&gt;Node4</title>
<g id="a_edge8_Node000006_Node000004"><a xlink:title=" ">
<path fill="none" stroke="#63b8ff" d="M334.22,-54.76C305.71,-46.42 262.07,-33.62 215.57,-19.89"/>
<polygon fill="#63b8ff" stroke="#63b8ff" points="216.69,-16.57 206.11,-17.09 214.7,-23.29 216.69,-16.57"/>
</a>
</g>
</g>
<!-- Node6&#45;&gt;Node5 -->
<g id="edge10_Node000006_Node000005" class="edge">
<title>Node6&#45;&gt;Node5</title>
<g id="a_edge10_Node000006_Node000005"><a xlink:title=" ">
<path fill="none" stroke="#63b8ff" d="M358.77,-55.08C353.42,-47.96 345.7,-37.68 339.03,-28.8"/>
<polygon fill="#63b8ff" stroke="#63b8ff" points="341.84,-26.71 333.03,-20.82 336.24,-30.92 341.84,-26.71"/>
</a>
</g>
</g>
<!-- Node7 -->
<g id="Node000007" class="node">
<title>Node7</title>
<g id="a_Node000007"><a xlink:title=" ">
<polygon fill="#e0e0e0" stroke="#999999" points="407.25,-19.25 363.5,-19.25 363.5,0 407.25,0 407.25,-19.25"/>
<text xml:space="preserve" text-anchor="middle" x="385.38" y="-5.75" font-family="Helvetica,sans-Serif" font-size="10.00">format</text>
</a>
</g>
</g>
<!-- Node6&#45;&gt;Node7 -->
<g id="edge6_Node000006_Node000007" class="edge">
<title>Node6&#45;&gt;Node7</title>
<g id="a_edge6_Node000006_Node000007"><a xlink:title=" ">
<path fill="none" stroke="#63b8ff" d="M368.68,-55.08C371.21,-48.34 374.8,-38.77 378.01,-30.24"/>
<polygon fill="#63b8ff" stroke="#63b8ff" points="381.23,-31.62 381.47,-21.03 374.68,-29.16 381.23,-31.62"/>
</a>
</g>
</g>
<!-- Node8 -->
<g id="Node000008" class="node">
<title>Node8</title>
<g id="a_Node000008"><a xlink:title=" ">
<polygon fill="#e0e0e0" stroke="#999999" points="475.25,-19.25 425.5,-19.25 425.5,0 475.25,0 475.25,-19.25"/>
<text xml:space="preserve" text-anchor="middle" x="450.38" y="-5.75" font-family="Helvetica,sans-Serif" font-size="10.00">optional</text>
</a>
</g>
</g>
<!-- Node6&#45;&gt;Node8 -->
<g id="edge9_Node000006_Node000008" class="edge">
<title>Node6&#45;&gt;Node8</title>
<g id="a_edge9_Node000006_Node000008"><a xlink:title=" ">
<path fill="none" stroke="#63b8ff" d="M379.79,-54.84C392.49,-46.89 411.25,-35.14 426.23,-25.75"/>
<polygon fill="#63b8ff" stroke="#63b8ff" points="427.99,-28.78 434.6,-20.51 424.27,-22.85 427.99,-28.78"/>
</a>
</g>
</g>
<!-- Node9 -->
<g id="Node000009" class="node">
<title>Node9</title>
<g id="a_Node000009"><a xlink:title=" ">
<polygon fill="#e0e0e0" stroke="#999999" points="551.75,-19.25 493,-19.25 493,0 551.75,0 551.75,-19.25"/>
<text xml:space="preserve" text-anchor="middle" x="522.38" y="-5.75" font-family="Helvetica,sans-Serif" font-size="10.00">stdexcept</text>
</a>
</g>
</g>
<!-- Node6&#45;&gt;Node9 -->
<g id="edge11_Node000006_Node000009" class="edge">
<title>Node6&#45;&gt;Node9</title>
<g id="a_edge11_Node000006_Node000009"><a xlink:title=" ">
<path fill="none" stroke="#63b8ff" d="M392.01,-54.84C417.5,-46.2 456.19,-33.07 484.8,-23.37"/>
<polygon fill="#63b8ff" stroke="#63b8ff" points="485.83,-26.72 494.18,-20.19 483.58,-20.09 485.83,-26.72"/>
</a>
</g>
</g>
<!-- Node10&#45;&gt;Node2 -->
<g id="edge13_Node000010_Node000002" class="edge">
<title>Node10&#45;&gt;Node2</title>
<g id="a_edge13_Node000010_Node000002"><a xlink:title=" ">
<path fill="none" stroke="#63b8ff" d="M109.46,-54.84C97.21,-46.89 79.12,-35.14 64.66,-25.75"/>
<polygon fill="#63b8ff" stroke="#63b8ff" points="66.92,-23.04 56.62,-20.53 63.1,-28.91 66.92,-23.04"/>
</a>
</g>
</g>
<!-- Node10&#45;&gt;Node4 -->
<g id="edge15_Node000010_Node000004" class="edge">
<title>Node10&#45;&gt;Node4</title>
<g id="a_edge15_Node000010_Node000004"><a xlink:title=" ">
<path fill="none" stroke="#63b8ff" d="M133.72,-54.84C142.45,-47.22 155.16,-36.12 165.67,-26.95"/>
<polygon fill="#63b8ff" stroke="#63b8ff" points="167.81,-29.73 173.04,-20.52 163.2,-24.46 167.81,-29.73"/>
</a>
</g>
</g>
<!-- Node11 -->
<g id="Node000011" class="node">
<title>Node11</title>
<g id="a_Node000011"><a xlink:title=" ">
<polygon fill="#e0e0e0" stroke="#999999" points="146,-19.25 100.75,-19.25 100.75,0 146,0 146,-19.25"/>
<text xml:space="preserve" text-anchor="middle" x="123.38" y="-5.75" font-family="Helvetica,sans-Serif" font-size="10.00">cstdint</text>
</a>
</g>
</g>
<!-- Node10&#45;&gt;Node11 -->
<g id="edge14_Node000010_Node000011" class="edge">
<title>Node10&#45;&gt;Node11</title>
<g id="a_edge14_Node000010_Node000011"><a xlink:title=" ">
<path fill="none" stroke="#63b8ff" d="M123.38,-55.08C123.38,-48.57 123.38,-39.42 123.38,-31.12"/>
<polygon fill="#63b8ff" stroke="#63b8ff" points="126.88,-31.12 123.38,-21.12 119.88,-31.12 126.88,-31.12"/>
</a>
</g>
</g>
</g>
</svg>
