<?xml version="1.0" encoding="UTF-8" standalone="no"?>
<!DOCTYPE svg PUBLIC "-//W3C//DTD SVG 1.1//EN"
 "http://www.w3.org/Graphics/SVG/1.1/DTD/svg11.dtd">
<!-- Generated by graphviz version 14.1.2 (20260124.0452)
 -->
<!-- Title: src/composition/include/fourdst/composition/utils/utils.h Pages: 1 -->
<svg width="388pt" height="116pt"
 viewBox="0.00 0.00 388.00 116.00" xmlns="http://www.w3.org/2000/svg" xmlns:xlink="http://www.w3.org/1999/xlink">
<g id="graph0" class="graph" transform="scale(1 1) rotate(0) translate(4 112.25)">
<title>src/composition/include/fourdst/composition/utils/utils.h</title>
<!-- Node1 -->
<g id="Node000001" class="node">
<title>Node1</title>
<g id="a_Node000001"><a xlink:title=" ">
<polygon fill="#999999" stroke="#666666" points="252.62,-108.25 127.12,-108.25 127.12,-66.5 252.62,-66.5 252.62,-108.25"/>
<text xml:space="preserve" text-anchor="start" x="135.12" y="-94.75" font-family="Helvetica,sans-Serif" font-size="10.00">src/composition/include</text>
<text xml:space="preserve" text-anchor="start" x="135.12" y="-83.5" font-family="Helvetica,sans-Serif" font-size="10.00">/fourdst/composition/utils</text>
<text xml:space="preserve" text-anchor="middle" x="189.88" y="-72.25" font-family="Helvetica,sans-Serif" font-size="10.00">/utils.h</text>
</a>
</g>
</g>
<!-- Node2 -->
<g id="Node000002" class="node">
<title>Node2</title>
<g id="a_Node000002"><a xlink:href="composition_8cpp.html" target="_top" xlink:title=" ">
<polygon fill="white" stroke="#666666" points="97.75,-30.5 0,-30.5 0,0 97.75,0 97.75,-30.5"/>
<text xml:space="preserve" text-anchor="start" x="8" y="-17" font-family="Helvetica,sans-Serif" font-size="10.00">src/composition/lib</text>
<text xml:space="preserve" text-anchor="middle" x="48.88" y="-5.75" font-family="Helvetica,sans-Serif" font-size="10.00">/composition.cpp</text>
</a>
</g>
</g>
<!-- Node1&#45;&gt;Node2 -->
<g id="edge1_Node000001_Node000002" class="edge">
<title>Node1&#45;&gt;Node2</title>
<g id="a_edge1_Node000001_Node000002"><a xlink:title=" ">
<path fill="none" stroke="#63b8ff" d="M139.01,-61.08C118.65,-50.95 95.91,-39.64 78.37,-30.92"/>
<polygon fill="#63b8ff" stroke="#63b8ff" points="137.22,-64.1 147.74,-65.42 140.34,-57.83 137.22,-64.1"/>
</a>
</g>
</g>
<!-- Node3 -->
<g id="Node000003" class="node">
<title>Node3</title>
<g id="a_Node000003"><a xlink:href="standard__compositions_8cpp.html" target="_top" xlink:title=" ">
<polygon fill="white" stroke="#666666" points="264.25,-30.5 115.5,-30.5 115.5,0 264.25,0 264.25,-30.5"/>
<text xml:space="preserve" text-anchor="start" x="123.5" y="-17" font-family="Helvetica,sans-Serif" font-size="10.00">src/composition/lib</text>
<text xml:space="preserve" text-anchor="middle" x="189.88" y="-5.75" font-family="Helvetica,sans-Serif" font-size="10.00">/io/standard_compositions.cpp</text>
</a>
</g>
</g>
<!-- Node1&#45;&gt;Node3 -->
<g id="edge2_Node000001_Node000003" class="edge">
<title>Node1&#45;&gt;Node3</title>
<g id="a_edge2_Node000001_Node000003"><a xlink:title=" ">
<path fill="none" stroke="#63b8ff" d="M189.88,-54.63C189.88,-46.27 189.88,-37.65 189.88,-30.7"/>
<polygon fill="#63b8ff" stroke="#63b8ff" points="186.38,-54.58 189.88,-64.58 193.38,-54.58 186.38,-54.58"/>
</a>
</g>
</g>
<!-- Node4 -->
<g id="Node000004" class="node">
<title>Node4</title>
<g id="a_Node000004"><a xlink:href="utils_8cpp.html" target="_top" xlink:title=" ">
<polygon fill="white" stroke="#666666" points="379.75,-30.5 282,-30.5 282,0 379.75,0 379.75,-30.5"/>
<text xml:space="preserve" text-anchor="start" x="290" y="-17" font-family="Helvetica,sans-Serif" font-size="10.00">src/composition/lib</text>
<text xml:space="preserve" text-anchor="middle" x="330.88" y="-5.75" font-family="Helvetica,sans-Serif" font-size="10.00">/utils.cpp</text>
</a>
</g>
</g>
<!-- Node1&#45;&gt;Node4 -->
<g id="edge3_Node000001_Node000004" class="edge">
<title>Node1&#45;&gt;Node4</title>
<g id="a_edge3_Node000001_Node000004"><a xlink:title=" ">
<path fill="none" stroke="#63b8ff" d="M240.74,-61.08C261.1,-50.95 283.84,-39.64 301.38,-30.92"/>
<polygon fill="#63b8ff" stroke="#63b8ff" points="239.41,-57.83 232.01,-65.42 242.53,-64.1 239.41,-57.83"/>
</a>
</g>
</g>
</g>
</svg>
